<svg width="19" height="15" viewBox="0 0 19 15" fill="none" xmlns="http://www.w3.org/2000/svg">
<mask id="path-1-outside-1_1747_4608" maskUnits="userSpaceOnUse" x="0" y="0" width="19" height="15" fill="black">
<rect fill="white" width="19" height="15"/>
<path d="M15.7346 2C16.7303 2 17.3347 3.03927 16.8019 3.83533C14.6584 7.03825 12.515 10.2412 10.3715 13.4441C9.87147 14.1913 8.71693 14.1838 8.22776 13.4302L7.10231 11.6965C7.94531 10.4339 9.6001 7.92564 9.63131 7.91017C9.65186 7.90033 9.38752 7.4122 9.10154 6.89757C8.8028 6.36002 9.21709 5.71164 9.85888 5.71479C10.5105 5.71798 11.1428 5.71746 11.1612 5.70351C11.1995 5.67458 13.581 2 13.581 2H15.7346Z"/>
<path d="M2.18199 3.81099C1.68019 3.02421 2.27501 2.03748 3.24607 2.03403C6.54555 2.02232 7.64547 2.01163 11.9911 2C11.4116 2.93121 10.5488 4.4032 10.3163 4.80103C10.2792 4.86455 10.2091 4.90297 10.1324 4.90297H8.21723C7.59186 4.90297 7.1846 5.52525 7.46317 6.0551L8.33287 7.70927C8.36454 7.76957 8.36192 7.84095 8.32583 7.89901L6.57995 10.7089C6.09082 9.90864 3.67791 6.15653 2.18199 3.81099Z"/>
</mask>
<path d="M15.7346 2C16.7303 2 17.3347 3.03927 16.8019 3.83533C14.6584 7.03825 12.515 10.2412 10.3715 13.4441C9.87147 14.1913 8.71693 14.1838 8.22776 13.4302L7.10231 11.6965C7.94531 10.4339 9.6001 7.92564 9.63131 7.91017C9.65186 7.90033 9.38752 7.4122 9.10154 6.89757C8.8028 6.36002 9.21709 5.71164 9.85888 5.71479C10.5105 5.71798 11.1428 5.71746 11.1612 5.70351C11.1995 5.67458 13.581 2 13.581 2H15.7346Z" fill="white"/>
<path d="M2.18199 3.81099C1.68019 3.02421 2.27501 2.03748 3.24607 2.03403C6.54555 2.02232 7.64547 2.01163 11.9911 2C11.4116 2.93121 10.5488 4.4032 10.3163 4.80103C10.2792 4.86455 10.2091 4.90297 10.1324 4.90297H8.21723C7.59186 4.90297 7.1846 5.52525 7.46317 6.0551L8.33287 7.70927C8.36454 7.76957 8.36192 7.84095 8.32583 7.89901L6.57995 10.7089C6.09082 9.90864 3.67791 6.15653 2.18199 3.81099Z" fill="white"/>
<path d="M16.8019 3.83533L15.9708 3.27914L15.9708 3.27916L16.8019 3.83533ZM10.3715 13.4441L9.54044 12.8879L9.54044 12.8879L10.3715 13.4441ZM8.22776 13.4302L9.06654 12.8858L9.06652 12.8857L8.22776 13.4302ZM7.10231 11.6965L6.27065 11.1412L5.90506 11.6888L6.26354 12.241L7.10231 11.6965ZM9.63131 7.91017L9.19927 7.00822L9.1873 7.01415L9.63131 7.91017ZM9.10154 6.89757L9.97564 6.41183L9.97562 6.41179L9.10154 6.89757ZM9.85888 5.71479L9.85398 6.71478H9.85399L9.85888 5.71479ZM11.1612 5.70351L10.5578 4.90608L10.5572 4.90657L11.1612 5.70351ZM13.581 2V1H13.0374L12.7418 1.45614L13.581 2ZM2.18199 3.81099L3.02511 3.27327L3.02511 3.27327L2.18199 3.81099ZM3.24607 2.03403L3.24252 1.03404H3.24252L3.24607 2.03403ZM11.9911 2L12.8402 2.52836L13.7943 0.995173L11.9885 1L11.9911 2ZM10.3163 4.80103L11.1796 5.30579L11.1797 5.3056L10.3163 4.80103ZM7.46317 6.0551L6.57804 6.52046L6.57805 6.52046L7.46317 6.0551ZM8.33287 7.70927L9.2182 7.2443L9.21799 7.24391L8.33287 7.70927ZM8.32583 7.89901L7.47651 7.37114L7.47644 7.37126L8.32583 7.89901ZM6.57995 10.7089L5.72671 11.2304L6.57296 12.615L7.42935 11.2367L6.57995 10.7089ZM15.7346 3C15.8671 3 15.9423 3.06233 15.977 3.12185C15.995 3.1529 16.0002 3.18025 16 3.19982C15.9998 3.21552 15.9964 3.24101 15.9708 3.27914L17.633 4.39151C18.6669 2.84665 17.4263 1 15.7346 1V3ZM15.9708 3.27916C14.8991 4.88062 13.8274 6.48208 12.7556 8.08355C11.6839 9.68501 10.6122 11.2865 9.54044 12.8879L11.2026 14.0003C12.2743 12.3988 13.346 10.7973 14.4178 9.19588C15.4895 7.59442 16.5612 5.99296 17.633 4.3915L15.9708 3.27916ZM9.54044 12.8879C9.49849 12.9506 9.41828 13.0007 9.30204 13C9.18581 12.9992 9.10704 12.9482 9.06654 12.8858L7.38898 13.9747C8.26981 15.3317 10.3039 15.3432 11.2026 14.0003L9.54044 12.8879ZM9.06652 12.8857L7.94108 11.152L6.26354 12.241L7.38899 13.9747L9.06652 12.8857ZM7.93397 12.2518C8.35616 11.6195 8.98267 10.6737 9.50405 9.88922C9.76551 9.49586 10.0004 9.14323 10.1716 8.88843C10.2575 8.76056 10.3255 8.66006 10.3722 8.59217C10.3961 8.55741 10.4112 8.53596 10.419 8.5251C10.4237 8.51847 10.4207 8.52289 10.4132 8.53256C10.4105 8.53607 10.3978 8.55238 10.3794 8.57329C10.3709 8.58301 10.3508 8.60549 10.3229 8.63226C10.3187 8.63631 10.2242 8.73241 10.0753 8.80619L9.1873 7.01415C9.03791 7.08818 8.94272 7.18483 8.93763 7.18972C8.90887 7.21734 8.88774 7.24096 8.87791 7.25213C8.85697 7.27593 8.841 7.29632 8.8342 7.30507C8.81854 7.32521 8.80435 7.34474 8.79508 7.35764C8.7748 7.38585 8.75027 7.4211 8.7243 7.45888C8.67122 7.53605 8.59826 7.64391 8.51147 7.7731C8.33726 8.03241 8.09993 8.38867 7.83841 8.78214C7.31384 9.57137 6.69146 10.511 6.27065 11.1412L7.93397 12.2518ZM10.0633 8.81205C10.574 8.56741 10.623 8.06882 10.6295 7.98404C10.6402 7.84375 10.6182 7.73433 10.6112 7.70035C10.5937 7.61567 10.5684 7.5494 10.5608 7.52931C10.5399 7.4743 10.5156 7.42232 10.4998 7.38917C10.4642 7.31475 10.4163 7.22194 10.3653 7.12546C10.261 6.92847 10.1194 6.67047 9.97564 6.41183L8.22744 7.38331C8.36969 7.6393 8.5032 7.88268 8.59749 8.06087C8.6457 8.15199 8.67789 8.21522 8.69507 8.25118C8.70559 8.27321 8.70084 8.265 8.69155 8.24058C8.68972 8.23578 8.66836 8.18151 8.6526 8.10531C8.64645 8.07558 8.62478 7.96952 8.63531 7.83168C8.64074 7.76063 8.65816 7.62912 8.72863 7.48063C8.80557 7.31851 8.9524 7.12657 9.19931 7.0083L10.0633 8.81205ZM9.97562 6.41179C9.99251 6.44218 10.0048 6.48675 10.0023 6.53578C10 6.58143 9.98582 6.61741 9.96985 6.64237C9.93685 6.69395 9.88553 6.71493 9.85398 6.71478L9.86379 4.7148C8.55055 4.70836 7.51284 6.09749 8.22745 7.38334L9.97562 6.41179ZM9.85399 6.71478C10.1807 6.71638 10.5061 6.71707 10.7536 6.71556C10.8763 6.71481 10.986 6.71349 11.0688 6.71124C11.1086 6.71016 11.1527 6.7086 11.1927 6.70596C11.2105 6.70478 11.244 6.70236 11.2822 6.69729C11.2996 6.69499 11.338 6.68958 11.3851 6.67859C11.4085 6.67314 11.4499 6.66267 11.4998 6.64462C11.5363 6.63144 11.6466 6.5904 11.7653 6.50045L10.5572 4.90657C10.6753 4.81706 10.7847 4.77645 10.8201 4.76369C10.8688 4.74606 10.9088 4.73601 10.9304 4.73097C10.9739 4.7208 11.0077 4.71619 11.0193 4.71465C11.0346 4.71262 11.046 4.71154 11.051 4.71109C11.0566 4.71059 11.0601 4.71035 11.0608 4.71031C11.0619 4.71024 11.0586 4.71046 11.0495 4.71083C11.0408 4.71118 11.0292 4.71157 11.0144 4.71198C10.9532 4.71364 10.8605 4.71487 10.7414 4.7156C10.5053 4.71704 10.1887 4.71639 9.86377 4.7148L9.85399 6.71478ZM11.7646 6.50095C11.8555 6.43222 11.9151 6.36072 11.916 6.35964C11.9332 6.33998 11.9462 6.32354 11.9525 6.31549C11.9659 6.29835 11.9769 6.28327 11.9826 6.27537C11.9952 6.25782 12.0083 6.23893 12.0195 6.22264C12.0429 6.18851 12.0734 6.1431 12.1084 6.09048C12.1792 5.98419 12.277 5.83588 12.3916 5.66112C12.6213 5.31098 12.9234 4.8477 13.2236 4.38633C13.524 3.92473 13.8231 3.46413 14.0471 3.11899C14.1591 2.94641 14.2523 2.80265 14.3176 2.70204C14.3502 2.65173 14.3758 2.6122 14.3933 2.58524C14.402 2.57176 14.4087 2.56143 14.4133 2.55446C14.4155 2.55097 14.4172 2.54833 14.4184 2.54655C14.419 2.54567 14.4194 2.545 14.4197 2.54455C14.4198 2.54432 14.4199 2.54415 14.42 2.54404C14.4201 2.54398 14.4201 2.54394 14.4201 2.54391C14.4201 2.54388 14.4201 2.54386 13.581 2C12.7418 1.45614 12.7418 1.45615 12.7418 1.45617C12.7417 1.4562 12.7417 1.45624 12.7417 1.4563C12.7416 1.45641 12.7415 1.45657 12.7414 1.45679C12.7411 1.45723 12.7406 1.45789 12.7401 1.45877C12.7389 1.46053 12.7372 1.46316 12.735 1.46663C12.7305 1.47356 12.7238 1.48386 12.7151 1.49731C12.6977 1.52419 12.6721 1.56364 12.6395 1.61386C12.5744 1.71431 12.4813 1.85786 12.3694 2.03022C12.1457 2.37497 11.847 2.83482 11.5473 3.29548C11.2474 3.75637 10.9469 4.21717 10.7193 4.56415C10.6053 4.73794 10.5107 4.88146 10.4439 4.98166C10.4102 5.03229 10.3856 5.06879 10.37 5.09166C10.3616 5.10387 10.3591 5.10726 10.3605 5.10532C10.3606 5.10521 10.367 5.09627 10.377 5.08353C10.3815 5.07769 10.3931 5.06302 10.4091 5.0447C10.4171 5.03549 10.4311 5.01978 10.4495 5.00109C10.4637 4.98675 10.5022 4.94815 10.5578 4.90608L11.7646 6.50095ZM13.581 3H15.7346V1H13.581V3ZM3.02511 3.27327C3.00162 3.23644 2.99998 3.21426 3 3.20373C3.00003 3.18969 3.00396 3.16865 3.01911 3.14341C3.04774 3.0957 3.11667 3.0345 3.24962 3.03402L3.24252 1.03404C1.59766 1.03988 0.353363 2.8035 1.33887 4.34872L3.02511 3.27327ZM3.24962 3.03402C6.55383 3.02229 7.64723 3.01162 11.9938 3L11.9885 1C7.64372 1.01163 6.53726 1.02234 3.24252 1.03404L3.24962 3.03402ZM11.1421 1.47164C10.5541 2.41657 9.68435 3.90049 9.45294 4.29645L11.1797 5.3056C11.4133 4.90591 12.2692 3.44586 12.8402 2.52836L11.1421 1.47164ZM9.45304 4.29627C9.60736 4.03236 9.8785 3.90297 10.1324 3.90297V5.90297C10.5398 5.90297 10.951 5.69674 11.1796 5.30579L9.45304 4.29627ZM10.1324 3.90297H8.21723V5.90297H10.1324V3.90297ZM8.21723 3.90297C6.93375 3.90297 5.90649 5.24313 6.57804 6.52046L8.34829 5.58975C8.36509 5.62169 8.37665 5.66747 8.37335 5.71748C8.37025 5.76435 8.35515 5.80167 8.33795 5.82796C8.3025 5.88212 8.24938 5.90297 8.21723 5.90297V3.90297ZM6.57805 6.52046L7.44775 8.17463L9.21799 7.24391L8.34829 5.58974L6.57805 6.52046ZM7.44754 8.17424C7.31386 7.9197 7.32597 7.61336 7.47651 7.37114L9.17516 8.42689C9.39788 8.06854 9.41521 7.61943 9.2182 7.2443L7.44754 8.17424ZM7.47644 7.37126L5.73056 10.1811L7.42935 11.2367L9.17523 8.42677L7.47644 7.37126ZM7.43319 10.1874C6.93748 9.37635 4.51235 5.60519 3.02511 3.27327L1.33887 4.34871C2.84347 6.70787 5.24416 10.4409 5.72671 11.2304L7.43319 10.1874Z" fill="#141415" mask="url(#path-1-outside-1_1747_4608)"/>
</svg>
