<svg width="17" height="13" viewBox="0 0 17 13" fill="none" xmlns="http://www.w3.org/2000/svg">
<path d="M14.4006 1.08875C13.3002 0.580125 12.1235 0.210479 10.8934 0C10.7423 0.269827 10.5658 0.632751 10.4441 0.921455C9.13644 0.727182 7.84078 0.727182 6.55715 0.921455C6.43549 0.632751 6.25498 0.269827 6.10255 0C4.87107 0.210479 3.69308 0.581483 2.59264 1.09144C0.373039 4.40485 -0.228658 7.63596 0.072191 10.8212C1.54435 11.9072 2.97104 12.567 4.37366 12.9987C4.71997 12.5278 5.02884 12.0273 5.29492 11.4998C4.78816 11.3096 4.30279 11.0748 3.84418 10.8023C3.96585 10.7133 4.08486 10.6202 4.19984 10.5244C6.99705 11.8168 10.0363 11.8168 12.8001 10.5244C12.9164 10.6202 13.0354 10.7133 13.1558 10.8023C12.6958 11.0762 12.2091 11.3109 11.7023 11.5012C11.9684 12.0273 12.276 12.5292 12.6236 13C14.0276 12.5683 15.4556 11.9086 16.9277 10.8212C17.2807 7.1287 16.3247 3.92726 14.4006 1.08875ZM5.676 8.86231C4.8363 8.86231 4.14768 8.08791 4.14768 7.14488C4.14768 6.20186 4.8216 5.42612 5.676 5.42612C6.53042 5.42612 7.21902 6.2005 7.20432 7.14488C7.20564 8.08791 6.53042 8.86231 5.676 8.86231ZM11.3239 8.86231C10.4842 8.86231 9.79562 8.08791 9.79562 7.14488C9.79562 6.20186 10.4695 5.42612 11.3239 5.42612C12.1783 5.42612 12.867 6.2005 12.8523 7.14488C12.8523 8.08791 12.1783 8.86231 11.3239 8.86231Z" fill="white"/>
</svg>
