<svg width="17" height="17" viewBox="0 0 17 17" fill="none" xmlns="http://www.w3.org/2000/svg">
<path d="M16.66 8.69274C16.66 8.09001 16.6059 7.51047 16.5055 6.9541H8.5V10.2459H13.0745C12.8736 11.3046 12.2709 12.2009 11.3668 12.8036V14.9441H14.1255C15.7327 13.4605 16.66 11.2814 16.66 8.69274Z" fill="white"/>
<path d="M8.4998 16.9993C10.7948 16.9993 12.7189 16.2421 14.1253 14.9439L11.3666 12.8034C10.6093 13.3134 9.64344 13.6225 8.4998 13.6225C6.2898 13.6225 4.41208 12.1312 3.7398 10.1221H0.911621V12.3166C2.31026 15.0907 5.17707 16.9993 8.4998 16.9993Z" fill="white"/>
<path d="M3.74 10.115C3.57 9.60498 3.46955 9.06407 3.46955 8.49998C3.46955 7.93588 3.57 7.39497 3.74 6.88497V4.69043H0.911818C0.332273 5.83407 0 7.12452 0 8.49998C0 9.87543 0.332273 11.1659 0.911818 12.3095L3.11409 10.5941L3.74 10.115Z" fill="white"/>
<path d="M8.4998 3.38455C9.75162 3.38455 10.8643 3.81727 11.753 4.65182L14.1871 2.21773C12.7112 0.842273 10.7948 0 8.4998 0C5.17707 0 2.31026 1.90864 0.911621 4.69045L3.7398 6.885C4.41208 4.87591 6.2898 3.38455 8.4998 3.38455Z" fill="white"/>
</svg>
