<svg width="24" height="15" viewBox="0 0 24 15" fill="none" xmlns="http://www.w3.org/2000/svg">
<path d="M15.2741 1.58496H8.82239V13.2391H15.2741V1.58496Z" fill="#1F1F1F"/>
<path d="M9.23091 7.41169C9.22989 6.28931 9.48292 5.18141 9.97083 4.17186C10.4587 3.16231 11.1688 2.27757 12.0471 1.58462C10.9594 0.725203 9.65306 0.190744 8.27744 0.0423302C6.90182 -0.106083 5.51241 0.137533 4.26802 0.745344C3.02363 1.35315 1.97447 2.30064 1.24046 3.47948C0.506442 4.65833 0.117188 6.02098 0.117188 7.41169C0.117188 8.80239 0.506442 10.165 1.24046 11.3439C1.97447 12.5227 3.02363 13.4702 4.26802 14.078C5.51241 14.6858 6.90182 14.9295 8.27744 14.781C9.65306 14.6326 10.9594 14.0982 12.0471 13.2388C11.1688 12.5458 10.4588 11.6611 9.97084 10.6515C9.48293 9.64196 9.2299 8.53406 9.23091 7.41169Z" fill="white"/>
<path d="M23.9788 7.41169C23.9788 8.80238 23.5896 10.165 22.8556 11.3439C22.1216 12.5227 21.0725 13.4702 19.8281 14.078C18.5838 14.6858 17.1944 14.9295 15.8188 14.7811C14.4432 14.6326 13.1369 14.0982 12.0492 13.2388C12.9268 12.5451 13.6362 11.6602 14.1241 10.6508C14.6119 9.64144 14.8654 8.53389 14.8654 7.41169C14.8654 6.28949 14.6119 5.18194 14.1241 4.17255C13.6362 3.16316 12.9268 2.27828 12.0492 1.58463C13.1369 0.725205 14.4432 0.19074 15.8188 0.0423284C17.1944 -0.106083 18.5838 0.137543 19.8281 0.74536C21.0725 1.35318 22.1216 2.30066 22.8556 3.47951C23.5896 4.65836 23.9788 6.021 23.9788 7.41169Z" fill="white"/>
</svg>
