<svg width="32" height="9" viewBox="0 0 32 9" fill="none" xmlns="http://www.w3.org/2000/svg">
<path fill-rule="evenodd" clip-rule="evenodd" d="M22.4922 4.08691V8.99958H25.2796V6.13058H28.2994C29.6156 6.13058 30.7306 5.27774 31.1449 4.08691H22.4922Z" fill="white"/>
<path fill-rule="evenodd" clip-rule="evenodd" d="M28.3001 0H22.1019C22.4116 1.71354 23.6776 3.08908 25.3152 3.53712C25.6869 3.6393 26.0779 3.69432 26.4805 3.69432H31.2579C31.3005 3.48996 31.3198 3.28166 31.3198 3.0655C31.3198 1.37162 29.9687 0 28.3001 0Z" fill="white"/>
<path fill-rule="evenodd" clip-rule="evenodd" d="M18.6213 0C18.6213 0 17.8044 0.0746725 17.4212 0.943231L15.4467 5.34498H15.2144V0H12.427V9H15.0596C15.0596 9 15.9152 8.9214 16.2984 8.05677L18.2342 3.65502H18.4665V9H21.2539V0H18.6213Z" fill="white"/>
<path fill-rule="evenodd" clip-rule="evenodd" d="M8.43975 1.71233e-07V0.0039303C8.43588 0.0039303 7.21638 1.49923e-07 6.89117 1.18297C6.59307 2.26769 5.75297 5.26245 5.72974 5.34498H5.49745C5.49745 5.34498 4.63799 2.28341 4.33602 1.17904C4.01082 -0.00393 2.78744 1.71233e-07 2.78744 1.71233e-07H0V9H2.78744V3.65502H2.90358H3.01973L4.64574 9H6.58146L8.20747 3.65895H8.43975V9H11.2272V1.71233e-07H8.43975Z" fill="white"/>
</svg>
