<svg width="19" height="20" viewBox="0 0 19 20" fill="none" xmlns="http://www.w3.org/2000/svg">
<path fill-rule="evenodd" clip-rule="evenodd" d="M13.1482 17.5355C14.8223 17.5355 16.6384 18.12 18.6492 19.9338C18.8507 20.1154 19.1189 19.8897 18.9428 19.664C16.9672 17.1239 15.1399 16.6403 13.3175 16.2317C11.088 15.7312 9.94165 14.4539 9.14263 13.0517C8.98382 12.7731 8.91214 12.8222 8.89792 13.181C8.88 13.6191 8.91028 14.1998 9.00668 14.771C8.91646 14.7748 8.82624 14.7741 8.73478 14.7741C5.54614 14.7741 2.96062 12.1413 2.96062 8.89386C2.96062 5.647 5.54614 3.01484 8.7354 3.01484C11.924 3.01484 14.5096 5.647 14.5096 8.89386C14.5096 9.12523 14.4984 9.35409 14.4725 9.5779C14.051 9.50035 13.2211 9.49153 12.639 9.54259C12.4203 9.56214 12.4512 9.66616 12.6168 9.69643C14.5256 10.0476 15.8363 11.2524 16.1366 13.4382C16.1428 13.4886 16.2083 13.5031 16.2337 13.4596C17.0453 12.0808 17.4728 10.5022 17.4702 8.89386C17.4702 3.9826 13.5592 0 8.7354 0C3.91103 0 0 3.98197 0 8.89386C0 13.8064 3.91103 17.789 8.7354 17.789C10.0146 17.789 11.2851 17.5355 13.1482 17.5355ZM13.7983 14.3063C14.187 14.6405 14.305 15.0383 14.0999 15.3188C13.9855 15.4727 13.8002 15.5578 13.5777 15.5578C13.3607 15.5578 13.1505 15.4802 12.9838 15.3384C12.6304 15.0238 12.5266 14.5144 12.757 14.225C12.8473 14.1115 12.9937 14.0491 13.1692 14.0491C13.3824 14.0491 13.6061 14.1405 13.7983 14.3063ZM15.5916 13.4565C15.6485 13.8461 15.528 14.0075 15.4062 14.0075C15.2734 14.0075 15.1071 13.8499 14.9112 13.5378C14.7172 13.2301 14.6461 12.8771 14.7425 12.6987C14.8056 12.5808 14.9384 12.5291 15.1059 12.594C15.4303 12.7182 15.557 13.2238 15.5916 13.4565Z" fill="white"/>
</svg>
