<svg width="15" height="13" viewBox="0 0 15 13" fill="none" xmlns="http://www.w3.org/2000/svg">
<path fill-rule="evenodd" clip-rule="evenodd" d="M1.02703 5.60679C5.05273 3.77797 7.7327 2.56276 9.07844 1.97321C12.9086 0.300794 13.7137 0.0120317 14.2313 0C14.3464 0 14.5994 0.0240637 14.7719 0.168445C14.91 0.288762 14.9445 0.445175 14.9675 0.565493C14.9905 0.68581 15.0135 0.938476 14.9905 1.13098C14.7834 3.41702 13.8863 8.96365 13.4262 11.5144C13.2307 12.5972 12.8511 12.9582 12.483 12.9943C11.6779 13.0665 11.0683 12.4408 10.2977 11.9114C9.07844 11.0812 8.39982 10.5639 7.21511 9.74571C5.84637 8.80724 6.73203 8.28987 7.51416 7.44765C7.7212 7.23108 11.2523 3.86219 11.3213 3.5614C11.3328 3.5253 11.3328 3.38092 11.2523 3.30873C11.1718 3.23654 11.0568 3.2606 10.9648 3.28467C10.8382 3.30873 8.90591 4.65629 5.14475 7.3153C4.59265 7.71235 4.09807 7.90486 3.64949 7.89283C3.1549 7.88079 2.21174 7.60406 1.49861 7.36343C0.635962 7.07467 -0.0541587 6.91825 0.00335136 6.41292C0.0378574 6.14822 0.382918 5.88352 1.02703 5.60679Z" fill="white"/>
</svg>
