<svg width="19" height="17" viewBox="0 0 19 17" fill="none" xmlns="http://www.w3.org/2000/svg">
<path fill-rule="evenodd" clip-rule="evenodd" d="M3.3693 0.0786254L0.0137952 7.12686C0.00102657 7.15308 -0.00301973 7.18269 0.00224804 7.21137C0.00751582 7.24005 0.0218213 7.26629 0.0430725 7.28626L9.10548 15.9702C9.13122 15.9949 9.16551 16.0087 9.20117 16.0087C9.23684 16.0087 9.27112 15.9949 9.29687 15.9702L18.3593 7.2868C18.3805 7.26684 18.3948 7.24059 18.4001 7.21191C18.4054 7.18323 18.4013 7.15362 18.3885 7.12741L15.033 0.0791676C15.0222 0.0554966 15.0048 0.0354443 14.9829 0.0214072C14.961 0.0073701 14.9355 -5.8066e-05 14.9094 1.04923e-05H3.494C3.46784 -0.000314899 3.44215 0.00693434 3.42003 0.0208837C3.3979 0.0348331 3.38028 0.0548867 3.3693 0.0786254Z" fill="white"/>
<path fill-rule="evenodd" clip-rule="evenodd" d="M10.3658 7.85016C10.3007 7.85504 9.96455 7.8751 9.21472 7.8751C8.61833 7.8751 8.1949 7.85721 8.04634 7.85016C5.74157 7.74877 4.02126 7.34756 4.02126 6.8672C4.02126 6.38684 5.74157 5.98617 8.04634 5.88316V7.45058C8.19706 7.46142 8.62863 7.4869 9.22502 7.4869C9.94069 7.4869 10.2991 7.45708 10.3636 7.45112V5.88424C12.6635 5.98671 14.38 6.38792 14.38 6.8672C14.38 7.34648 12.664 7.74769 10.3636 7.84962L10.3658 7.85016ZM10.3658 5.72213V4.31953H13.5754V2.18066H4.83668V4.31953H8.0458V5.72159C5.43741 5.84141 3.47583 6.3581 3.47583 6.97726C3.47583 7.59642 5.43741 8.11257 8.0458 8.23293V12.7275H10.3652V8.23131C12.9676 8.11149 14.926 7.59534 14.926 6.97672C14.926 6.3581 12.9693 5.84195 10.3652 5.72159L10.3658 5.72213Z" fill="#1F1F1F"/>
</svg>
