<svg width="32" height="10" viewBox="0 0 32 10" fill="none" xmlns="http://www.w3.org/2000/svg">
<path d="M13.6494 9.85604H11.0977L12.6937 0.175781H15.2453L13.6494 9.85604Z" fill="white"/>
<path d="M22.8986 0.412127C22.3953 0.216261 21.597 0 20.6099 0C18.09 0 16.3155 1.31809 16.3046 3.20257C16.2837 4.59294 17.5751 5.36518 18.541 5.82877C19.5282 6.30249 19.8638 6.61169 19.8638 7.03394C19.8538 7.68245 19.0661 7.98139 18.3314 7.98139C17.3126 7.98139 16.7668 7.82727 15.9372 7.46647L15.6012 7.3118L15.2441 9.48481C15.8426 9.75226 16.9452 9.9896 18.09 10C20.7674 10 22.5106 8.7023 22.5312 6.69409C22.5414 5.59212 21.8595 4.74774 20.3893 4.05776C19.4968 3.61484 18.9503 3.31618 18.9503 2.86299C18.9607 2.451 19.4125 2.02902 20.42 2.02902C21.2496 2.00835 21.8591 2.20394 22.3208 2.39967L22.5516 2.50246L22.8986 0.412127V0.412127Z" fill="white"/>
<path d="M26.2917 6.42667C26.5018 5.87055 27.3104 3.71821 27.3104 3.71821C27.2998 3.73888 27.5202 3.15183 27.6462 2.79144L27.8245 3.62555C27.8245 3.62555 28.3077 5.94269 28.4127 6.42667C28.0139 6.42667 26.7957 6.42667 26.2917 6.42667ZM29.4415 0.175781H27.4677C26.859 0.175781 26.3966 0.350706 26.134 0.978957L22.3438 9.85591H25.0212C25.0212 9.85591 25.462 8.66114 25.5567 8.40381C25.8505 8.40381 28.4551 8.40381 28.8329 8.40381C28.9062 8.74367 29.1374 9.85591 29.1374 9.85591H31.5001L29.4415 0.175781V0.175781Z" fill="white"/>
<path d="M8.96794 0.175781L6.46897 6.77679L6.19589 5.43803C5.73388 3.89327 4.28493 2.21493 2.66797 1.38041L4.95694 9.84578H7.65531L11.6662 0.175781H8.96794V0.175781Z" fill="white"/>
<path d="M4.14747 0.175781H0.0420006L0 0.371374C3.20252 1.17469 5.32349 3.11104 6.1949 5.43844L5.30242 0.989496C5.15549 0.371237 4.70394 0.196175 4.14747 0.175781Z" fill="white"/>
</svg>
