<svg width="19" height="10" viewBox="0 0 19 10" fill="none" xmlns="http://www.w3.org/2000/svg">
<path fill-rule="evenodd" clip-rule="evenodd" d="M18.5641 0.677106C18.6962 0.286843 18.5641 0 17.9354 0H15.8568C15.3283 0 15.0848 0.247763 14.9526 0.521053C14.9526 0.521053 13.8955 2.80434 12.398 4.2875C11.9136 4.71684 11.6934 4.85329 11.4291 4.85329C11.2969 4.85329 11.1057 4.71684 11.1057 4.32658V0.677106C11.1057 0.208685 10.9523 0 10.5118 0H7.24544C6.91524 0 6.71658 0.217369 6.71658 0.423421C6.71658 0.8675 7.46518 0.969868 7.54239 2.21882V4.93158C7.54239 5.52632 7.42123 5.63421 7.15695 5.63421C6.4523 5.63421 4.73834 3.34053 3.7216 0.716184C3.52235 0.206053 3.32251 0 2.79128 0H0.712666C0.118778 0 0 0.247763 0 0.521053C0 1.00895 0.704797 3.42895 3.28123 6.62947C4.99906 8.815 7.41886 10 9.621 10C10.9424 10 11.1057 9.73684 11.1057 9.28355V7.63158C11.1057 7.10526 11.2309 7.00026 11.6491 7.00026C11.9577 7.00026 12.4861 7.13684 13.7194 8.19066C15.1287 9.43947 15.3609 10 16.1538 10H18.2324C18.8263 10 19.1232 9.73684 18.9519 9.2175C18.7645 8.69987 18.0916 7.94908 17.1987 7.05882C16.7143 6.55132 15.9875 6.00487 15.7674 5.73171C15.4591 5.38039 15.5471 5.22434 15.7674 4.91224C15.7674 4.91224 18.2998 1.75066 18.5641 0.677237V0.677106Z" fill="white"/>
</svg>
