<svg width="229" height="229" viewBox="0 0 229 229" fill="none" xmlns="http://www.w3.org/2000/svg">
<circle cx="113.988" cy="114.001" r="79" fill="#212121" stroke="black" stroke-width="4"/>
<path d="M114.332 32.7265C131.356 32.7932 147.929 38.2039 161.713 48.1951C175.497 58.1862 185.795 72.2534 191.155 88.4117L164.346 97.305C160.849 86.7622 154.129 77.5837 145.136 71.0648C136.142 64.5458 125.329 61.0155 114.221 60.972L114.332 32.7265Z" fill="#754FE0" stroke="#232323" stroke-width="3"/>
<path d="M191.438 89.3018C196.61 105.514 196.562 122.94 191.303 139.123C186.043 155.307 175.836 169.431 162.122 179.505L145.404 156.745C154.353 150.172 161.013 140.955 164.446 130.395C167.878 119.834 167.909 108.463 164.534 97.8839L191.438 89.3018Z" fill="#424242" stroke="#232323" stroke-width="3"/>
<path d="M161.415 180.013C147.604 189.933 131.03 195.271 114.026 195.276C97.0223 195.281 80.445 189.954 66.6282 180.043L83.0743 157.115C92.0945 163.585 102.917 167.064 114.018 167.06C125.118 167.057 135.938 163.572 144.955 157.096L161.415 180.013Z" fill="#424242" stroke="#232323" stroke-width="3"/>
<path d="M65.8667 179.497C52.1696 169.433 41.9725 155.327 36.7102 139.165C31.448 123.002 31.3852 105.597 36.5309 89.3972L63.456 97.9497C60.0989 108.519 60.1398 119.874 63.573 130.418C67.0062 140.963 73.6588 150.166 82.595 156.732L65.8667 179.497Z" fill="#424242" stroke="#232323" stroke-width="3"/>
<path d="M36.8643 88.4227C42.2163 72.2757 52.4998 58.2148 66.2659 48.2215C80.032 38.2282 96.5867 32.806 113.597 32.7191L113.742 61.0528C102.662 61.1094 91.8782 64.6412 82.9112 71.1508C73.9441 77.6603 67.2456 86.8193 63.7594 97.3372L36.8643 88.4227Z" fill="#424242" stroke="#232323" stroke-width="3"/>
<path d="M95.1738 136.684L117.278 107.416C118.421 105.922 119.3 104.384 119.915 102.802C120.56 101.19 120.882 99.6963 120.882 98.3193V98.2314C120.882 96.0928 120.223 94.4375 118.904 93.2656C117.615 92.0938 115.77 91.5078 113.367 91.5078C111.053 91.5078 109.178 92.2256 107.742 93.6611C106.336 95.0674 105.486 97.0742 105.193 99.6816V99.7256H94.3828V99.6816C94.793 95.8438 95.8184 92.5625 97.459 89.8379C99.0996 87.1133 101.268 85.0332 103.963 83.5977C106.658 82.1621 109.764 81.4443 113.279 81.4443C117.176 81.4443 120.501 82.1035 123.255 83.4219C126.009 84.7109 128.104 86.6006 129.539 89.0908C131.004 91.5811 131.736 94.584 131.736 98.0996V98.1436C131.736 100.722 131.238 103.344 130.242 106.01C129.275 108.646 127.928 111.122 126.199 113.437L109.061 135.937H132.088V146H95.1738V136.684Z" fill="white"/>
</svg>
