<svg width="229" height="229" viewBox="0 0 229 229" fill="none" xmlns="http://www.w3.org/2000/svg">
<circle cx="114.977" cy="114.001" r="79" fill="#212121" stroke="black" stroke-width="4"/>
<path d="M115.32 32.7265C132.344 32.7932 148.917 38.2039 162.701 48.195C176.485 58.1862 186.784 72.2534 192.144 88.4117L165.335 97.305C161.837 86.7622 155.118 77.5837 146.124 71.0648C137.13 64.5458 126.317 61.0155 115.209 60.972L115.32 32.7265Z" fill="#8E44B1" stroke="#232323" stroke-width="3"/>
<path d="M192.427 89.3018C197.598 105.514 197.551 122.94 192.291 139.123C187.031 155.307 176.824 169.431 163.11 179.505L146.392 156.745C155.341 150.172 162.002 140.955 165.434 130.395C168.866 119.834 168.897 108.463 165.523 97.8839L192.427 89.3018Z" fill="#8E44B1" stroke="#232323" stroke-width="3"/>
<path d="M162.403 180.013C148.592 189.933 132.018 195.271 115.015 195.276C98.0106 195.281 81.4333 189.954 67.6165 180.043L84.0626 157.115C93.0828 163.585 103.905 167.064 115.006 167.06C126.107 167.057 136.927 163.572 145.943 157.096L162.403 180.013Z" fill="#8E44B1" stroke="#232323" stroke-width="3"/>
<path d="M66.855 179.497C53.1578 169.433 42.9608 155.327 37.6985 139.165C32.4362 123.002 32.3735 105.597 37.5192 89.3972L64.4443 97.9497C61.0872 108.519 61.1281 119.874 64.5613 130.418C67.9945 140.963 74.6471 150.166 83.5832 156.732L66.855 179.497Z" fill="#8E44B1" stroke="#232323" stroke-width="3"/>
<path d="M37.8525 88.4227C43.2046 72.2756 53.4881 58.2148 67.2542 48.2215C81.0203 38.2282 97.575 32.8061 114.586 32.7191L114.73 61.0527C103.65 61.1094 92.8665 64.6412 83.8994 71.1508C74.9324 77.6603 68.2339 86.8193 64.7476 97.3372L37.8525 88.4227Z" fill="#424242" stroke="#232323" stroke-width="3"/>
<path d="M96.1738 136.684L118.278 107.416C119.421 105.922 120.3 104.384 120.915 102.802C121.56 101.19 121.882 99.6963 121.882 98.3193V98.2314C121.882 96.0928 121.223 94.4375 119.904 93.2656C118.615 92.0938 116.77 91.5078 114.367 91.5078C112.053 91.5078 110.178 92.2256 108.742 93.6611C107.336 95.0674 106.486 97.0742 106.193 99.6816V99.7256H95.3828V99.6816C95.793 95.8438 96.8184 92.5625 98.459 89.8379C100.1 87.1133 102.268 85.0332 104.963 83.5977C107.658 82.1621 110.764 81.4443 114.279 81.4443C118.176 81.4443 121.501 82.1035 124.255 83.4219C127.009 84.7109 129.104 86.6006 130.539 89.0908C132.004 91.5811 132.736 94.584 132.736 98.0996V98.1436C132.736 100.722 132.238 103.344 131.242 106.01C130.275 108.646 128.928 111.122 127.199 113.437L110.061 135.937H133.088V146H96.1738V136.684Z" fill="white"/>
</svg>
