<svg width="229" height="229" viewBox="0 0 229 229" fill="none" xmlns="http://www.w3.org/2000/svg">
<circle cx="113.988" cy="114.001" r="79" fill="#212121" stroke="black" stroke-width="4"/>
<path d="M114.332 32.7265C131.356 32.7932 147.929 38.2039 161.713 48.195C175.497 58.1862 185.795 72.2534 191.155 88.4117L164.346 97.305C160.849 86.7622 154.129 77.5837 145.136 71.0648C136.142 64.5458 125.329 61.0155 114.221 60.972L114.332 32.7265Z" fill="#754FE0" stroke="#232323" stroke-width="3"/>
<path d="M191.438 89.3018C196.61 105.514 196.562 122.94 191.303 139.123C186.043 155.307 175.836 169.431 162.122 179.505L145.404 156.745C154.353 150.172 161.013 140.955 164.446 130.395C167.878 119.834 167.909 108.463 164.534 97.8839L191.438 89.3018Z" fill="#424242" stroke="#232323" stroke-width="3"/>
<path d="M161.415 180.013C147.604 189.933 131.03 195.271 114.026 195.276C97.0223 195.281 80.445 189.954 66.6282 180.043L83.0743 157.115C92.0945 163.585 102.917 167.064 114.018 167.06C125.118 167.057 135.938 163.572 144.955 157.096L161.415 180.013Z" fill="#424242" stroke="#232323" stroke-width="3"/>
<path d="M65.8667 179.497C52.1696 169.433 41.9725 155.327 36.7102 139.165C31.448 123.002 31.3852 105.597 36.5309 89.3972L63.456 97.9497C60.0989 108.519 60.1398 119.874 63.573 130.418C67.0062 140.963 73.6588 150.166 82.595 156.732L65.8667 179.497Z" fill="#424242" stroke="#232323" stroke-width="3"/>
<path d="M36.8643 88.4227C42.2163 72.2756 52.4998 58.2148 66.2659 48.2215C80.032 38.2282 96.5867 32.8061 113.597 32.7191L113.742 61.0527C102.662 61.1094 91.8782 64.6412 82.9112 71.1508C73.9441 77.6603 67.2456 86.8193 63.7594 97.3372L36.8643 88.4227Z" fill="#424242" stroke="#232323" stroke-width="3"/>
<path d="M114.323 146.659C110.603 146.659 107.307 145.985 104.436 144.638C101.564 143.29 99.2646 141.327 97.5361 138.749C95.8369 136.142 94.8262 133.036 94.5039 129.433H105.271C105.505 131.015 105.988 132.333 106.721 133.388C107.453 134.413 108.405 135.189 109.577 135.717C110.749 136.244 112.111 136.508 113.664 136.508C116.301 136.508 118.337 135.805 119.772 134.398C121.208 132.963 121.926 130.941 121.926 128.334V126.62C121.926 123.808 121.281 121.64 119.992 120.116C118.732 118.563 116.916 117.787 114.543 117.787H109.577V107.768H114.543C116.564 107.768 118.117 107.108 119.201 105.79C120.314 104.442 120.871 102.567 120.871 100.165V98.627C120.871 96.3711 120.271 94.6426 119.069 93.4414C117.897 92.2109 116.228 91.5957 114.06 91.5957C112.741 91.5957 111.555 91.874 110.5 92.4307C109.475 92.9873 108.596 93.8369 107.863 94.9795C107.131 96.0928 106.604 97.4697 106.281 99.1104H95.5586C96.0273 95.4189 97.0967 92.2402 98.7666 89.5742C100.466 86.9082 102.634 84.8867 105.271 83.5098C107.937 82.1328 110.939 81.4443 114.279 81.4443C119.846 81.4443 124.152 82.8945 127.199 85.7949C130.275 88.6953 131.813 92.7822 131.813 98.0557V99.5498C131.813 102.626 131.008 105.307 129.396 107.592C127.785 109.877 125.5 111.562 122.541 112.646C125.822 113.378 128.356 115.048 130.144 117.655C131.96 120.233 132.868 123.529 132.868 127.543V129.037C132.868 132.758 132.136 135.937 130.671 138.573C129.235 141.21 127.126 143.217 124.343 144.594C121.56 145.971 118.22 146.659 114.323 146.659Z" fill="white"/>
</svg>
