<svg width="229" height="229" viewBox="0 0 229 229" fill="none" xmlns="http://www.w3.org/2000/svg">
<circle cx="114.977" cy="114.001" r="79" fill="#212121" stroke="black" stroke-width="4"/>
<path d="M115.32 32.7265C132.344 32.7932 148.917 38.2039 162.701 48.195C176.485 58.1862 186.784 72.2534 192.144 88.4117L165.335 97.305C161.837 86.7622 155.118 77.5837 146.124 71.0648C137.13 64.5458 126.317 61.0155 115.209 60.972L115.32 32.7265Z" fill="#5B4FE0" stroke="#232323" stroke-width="3"/>
<path d="M192.427 89.3018C197.598 105.514 197.551 122.94 192.291 139.123C187.031 155.307 176.824 169.431 163.11 179.505L146.392 156.745C155.341 150.172 162.002 140.955 165.434 130.395C168.866 119.834 168.897 108.463 165.523 97.8839L192.427 89.3018Z" fill="#5B4FE0" stroke="#232323" stroke-width="3"/>
<path d="M162.403 180.013C148.592 189.933 132.018 195.271 115.015 195.276C98.0106 195.281 81.4333 189.954 67.6165 180.043L84.0626 157.115C93.0828 163.585 103.905 167.064 115.006 167.06C126.107 167.057 136.927 163.572 145.943 157.096L162.403 180.013Z" fill="#5B4FE0" stroke="#232323" stroke-width="3"/>
<path d="M66.855 179.497C53.1578 169.433 42.9608 155.327 37.6985 139.165C32.4362 123.002 32.3735 105.597 37.5192 89.3972L64.4443 97.9497C61.0872 108.519 61.1281 119.874 64.5613 130.418C67.9945 140.963 74.6471 150.166 83.5832 156.732L66.855 179.497Z" fill="#424242" stroke="#232323" stroke-width="3"/>
<path d="M37.8525 88.4227C43.2046 72.2756 53.4881 58.2148 67.2542 48.2215C81.0203 38.2282 97.575 32.8061 114.586 32.7191L114.73 61.0527C103.65 61.1094 92.8665 64.6412 83.8994 71.1508C74.9324 77.6603 68.2339 86.8193 64.7476 97.3372L37.8525 88.4227Z" fill="#424242" stroke="#232323" stroke-width="3"/>
<path d="M115.323 146.659C111.603 146.659 108.307 145.985 105.436 144.638C102.564 143.29 100.265 141.327 98.5361 138.749C96.8369 136.142 95.8262 133.036 95.5039 129.433H106.271C106.505 131.015 106.988 132.333 107.721 133.388C108.453 134.413 109.405 135.189 110.577 135.717C111.749 136.244 113.111 136.508 114.664 136.508C117.301 136.508 119.337 135.805 120.772 134.398C122.208 132.963 122.926 130.941 122.926 128.334V126.62C122.926 123.808 122.281 121.64 120.992 120.116C119.732 118.563 117.916 117.787 115.543 117.787H110.577V107.768H115.543C117.564 107.768 119.117 107.108 120.201 105.79C121.314 104.442 121.871 102.567 121.871 100.165V98.627C121.871 96.3711 121.271 94.6426 120.069 93.4414C118.897 92.2109 117.228 91.5957 115.06 91.5957C113.741 91.5957 112.555 91.874 111.5 92.4307C110.475 92.9873 109.596 93.8369 108.863 94.9795C108.131 96.0928 107.604 97.4697 107.281 99.1104H96.5586C97.0273 95.4189 98.0967 92.2402 99.7666 89.5742C101.466 86.9082 103.634 84.8867 106.271 83.5098C108.937 82.1328 111.939 81.4443 115.279 81.4443C120.846 81.4443 125.152 82.8945 128.199 85.7949C131.275 88.6953 132.813 92.7822 132.813 98.0557V99.5498C132.813 102.626 132.008 105.307 130.396 107.592C128.785 109.877 126.5 111.562 123.541 112.646C126.822 113.378 129.356 115.048 131.144 117.655C132.96 120.233 133.868 123.529 133.868 127.543V129.037C133.868 132.758 133.136 135.937 131.671 138.573C130.235 141.21 128.126 143.217 125.343 144.594C122.56 145.971 119.22 146.659 115.323 146.659Z" fill="white"/>
</svg>
