<svg width="229" height="229" viewBox="0 0 229 229" fill="none" xmlns="http://www.w3.org/2000/svg">
<circle cx="114.977" cy="114.001" r="79" fill="#212121" stroke="black" stroke-width="4"/>
<path d="M115.32 32.7265C132.344 32.7932 148.917 38.2039 162.701 48.195C176.485 58.1862 186.784 72.2534 192.144 88.4117L165.335 97.305C161.837 86.7622 155.118 77.5837 146.124 71.0648C137.13 64.5458 126.317 61.0155 115.209 60.972L115.32 32.7265Z" fill="#8E44B1" stroke="#232323" stroke-width="3"/>
<path d="M192.427 89.3018C197.598 105.514 197.551 122.94 192.291 139.123C187.031 155.307 176.824 169.431 163.11 179.505L146.392 156.745C155.341 150.172 162.002 140.955 165.434 130.395C168.866 119.834 168.897 108.463 165.523 97.8839L192.427 89.3018Z" fill="#8E44B1" stroke="#232323" stroke-width="3"/>
<path d="M162.403 180.013C148.592 189.933 132.018 195.271 115.015 195.276C98.0106 195.281 81.4333 189.954 67.6165 180.043L84.0626 157.115C93.0828 163.585 103.905 167.064 115.006 167.06C126.107 167.057 136.927 163.572 145.943 157.096L162.403 180.013Z" fill="#8E44B1" stroke="#232323" stroke-width="3"/>
<path d="M66.855 179.497C53.1578 169.433 42.9608 155.327 37.6985 139.165C32.4362 123.002 32.3735 105.597 37.5192 89.3972L64.4443 97.9497C61.0872 108.519 61.1281 119.874 64.5613 130.418C67.9945 140.963 74.6471 150.166 83.5832 156.732L66.855 179.497Z" fill="#8E44B1" stroke="#232323" stroke-width="3"/>
<path d="M37.8525 88.4227C43.2046 72.2756 53.4881 58.2148 67.2542 48.2215C81.0203 38.2282 97.575 32.8061 114.586 32.7191L114.73 61.0527C103.65 61.1094 92.8665 64.6412 83.8994 71.1508C74.9324 77.6603 68.2339 86.8193 64.7476 97.3372L37.8525 88.4227Z" fill="#424242" stroke="#232323" stroke-width="3"/>
<path d="M114.323 146.659C110.603 146.659 107.307 145.985 104.436 144.638C101.564 143.29 99.2646 141.327 97.5361 138.749C95.8369 136.142 94.8262 133.036 94.5039 129.433H105.271C105.505 131.015 105.988 132.333 106.721 133.388C107.453 134.413 108.405 135.189 109.577 135.717C110.749 136.244 112.111 136.508 113.664 136.508C116.301 136.508 118.337 135.805 119.772 134.398C121.208 132.963 121.926 130.941 121.926 128.334V126.62C121.926 123.808 121.281 121.64 119.992 120.116C118.732 118.563 116.916 117.787 114.543 117.787H109.577V107.768H114.543C116.564 107.768 118.117 107.108 119.201 105.79C120.314 104.442 120.871 102.567 120.871 100.165V98.627C120.871 96.3711 120.271 94.6426 119.069 93.4414C117.897 92.2109 116.228 91.5957 114.06 91.5957C112.741 91.5957 111.555 91.874 110.5 92.4307C109.475 92.9873 108.596 93.8369 107.863 94.9795C107.131 96.0928 106.604 97.4697 106.281 99.1104H95.5586C96.0273 95.4189 97.0967 92.2402 98.7666 89.5742C100.466 86.9082 102.634 84.8867 105.271 83.5098C107.937 82.1328 110.939 81.4443 114.279 81.4443C119.846 81.4443 124.152 82.8945 127.199 85.7949C130.275 88.6953 131.813 92.7822 131.813 98.0557V99.5498C131.813 102.626 131.008 105.307 129.396 107.592C127.785 109.877 125.5 111.562 122.541 112.646C125.822 113.378 128.356 115.048 130.144 117.655C131.96 120.233 132.868 123.529 132.868 127.543V129.037C132.868 132.758 132.136 135.937 130.671 138.573C129.235 141.21 127.126 143.217 124.343 144.594C121.56 145.971 118.22 146.659 114.323 146.659Z" fill="white"/>
</svg>
