<svg width="229" height="229" viewBox="0 0 229 229" fill="none" xmlns="http://www.w3.org/2000/svg">
<circle cx="114.965" cy="114.001" r="79" fill="#212121" stroke="black" stroke-width="4"/>
<path d="M115.308 32.7265C132.332 32.7932 148.905 38.2039 162.689 48.195C176.473 58.1862 186.772 72.2534 192.132 88.4117L165.323 97.305C161.825 86.7622 155.106 77.5837 146.112 71.0648C137.119 64.5458 126.305 61.0155 115.197 60.972L115.308 32.7265Z" fill="#4F80E0" stroke="#232323" stroke-width="3"/>
<path d="M192.415 89.3018C197.586 105.514 197.539 122.94 192.279 139.123C187.019 155.307 176.813 169.431 163.098 179.505L146.38 156.745C155.33 150.172 161.99 140.955 165.422 130.395C168.854 119.834 168.885 108.463 165.511 97.8839L192.415 89.3018Z" fill="#4F80E0" stroke="#232323" stroke-width="3"/>
<path d="M162.391 180.013C148.581 189.933 132.007 195.271 115.003 195.276C97.9989 195.281 81.4216 189.954 67.6047 180.043L84.0509 157.115C93.071 163.585 103.893 167.064 114.994 167.06C126.095 167.057 136.915 163.572 145.931 157.096L162.391 180.013Z" fill="#424242" stroke="#232323" stroke-width="3"/>
<path d="M66.8433 179.497C53.1461 169.433 42.9491 155.327 37.6868 139.165C32.4245 123.002 32.3618 105.597 37.5075 89.3972L64.4326 97.9497C61.0755 108.519 61.1164 119.874 64.5496 130.418C67.9827 140.963 74.6354 150.166 83.5715 156.732L66.8433 179.497Z" fill="#424242" stroke="#232323" stroke-width="3"/>
<path d="M37.8408 88.4227C43.1929 72.2756 53.4764 58.2148 67.2425 48.2215C81.0086 38.2282 97.5633 32.8061 114.574 32.7191L114.719 61.0527C103.638 61.1094 92.8548 64.6412 83.8877 71.1508C74.9207 77.6603 68.2221 86.8193 64.7359 97.3372L37.8408 88.4227Z" fill="#424242" stroke="#232323" stroke-width="3"/>
<path d="M116.41 146.659C113.1 146.659 110.126 145.971 107.489 144.594C104.882 143.217 102.772 141.21 101.161 138.573C99.5498 135.907 98.5391 132.743 98.1289 129.081V129.037H108.632V129.081C108.896 131.425 109.716 133.256 111.093 134.574C112.47 135.863 114.271 136.508 116.498 136.508C118.988 136.508 120.907 135.688 122.255 134.047C123.632 132.406 124.32 130.077 124.32 127.06V121.698C124.32 118.71 123.661 116.396 122.343 114.755C121.054 113.114 119.223 112.294 116.85 112.294C115.209 112.294 113.715 112.733 112.367 113.612C111.049 114.491 110.009 115.722 109.247 117.304H99.5352V82.1035H132.978V92.167H110.038V104.999C111.034 104.091 112.265 103.388 113.729 102.89C115.224 102.392 116.718 102.143 118.212 102.143C121.698 102.143 124.687 102.904 127.177 104.428C129.667 105.951 131.557 108.178 132.846 111.107C134.164 114.037 134.823 117.567 134.823 121.698V127.06C134.823 131.19 134.091 134.721 132.626 137.65C131.19 140.58 129.096 142.821 126.342 144.374C123.588 145.897 120.277 146.659 116.41 146.659Z" fill="white"/>
</svg>
