<svg width="229" height="229" viewBox="0 0 229 229" fill="none" xmlns="http://www.w3.org/2000/svg">
<circle cx="114.977" cy="114.001" r="79" fill="#212121" stroke="black" stroke-width="4"/>
<path d="M115.32 32.7265C132.344 32.7932 148.917 38.2039 162.701 48.195C176.485 58.1862 186.784 72.2534 192.144 88.4117L165.335 97.305C161.837 86.7622 155.118 77.5837 146.124 71.0648C137.13 64.5458 126.317 61.0155 115.209 60.972L115.32 32.7265Z" fill="#754FE0" stroke="#232323" stroke-width="3"/>
<path d="M192.427 89.3018C197.598 105.514 197.551 122.94 192.291 139.123C187.031 155.307 176.824 169.431 163.11 179.505L146.392 156.745C155.341 150.172 162.002 140.955 165.434 130.395C168.866 119.834 168.897 108.463 165.523 97.8839L192.427 89.3018Z" fill="#424242" stroke="#232323" stroke-width="3"/>
<path d="M162.403 180.013C148.592 189.933 132.018 195.271 115.015 195.276C98.0106 195.281 81.4333 189.954 67.6165 180.043L84.0626 157.115C93.0828 163.585 103.905 167.064 115.006 167.06C126.107 167.057 136.927 163.572 145.943 157.096L162.403 180.013Z" fill="#424242" stroke="#232323" stroke-width="3"/>
<path d="M66.855 179.497C53.1578 169.433 42.9608 155.327 37.6985 139.165C32.4362 123.002 32.3735 105.597 37.5192 89.3972L64.4443 97.9497C61.0872 108.519 61.1281 119.874 64.5613 130.418C67.9945 140.963 74.6471 150.166 83.5832 156.732L66.855 179.497Z" fill="#424242" stroke="#232323" stroke-width="3"/>
<path d="M37.8525 88.4227C43.2046 72.2756 53.4881 58.2148 67.2542 48.2215C81.0203 38.2282 97.575 32.8061 114.586 32.7191L114.73 61.0527C103.65 61.1094 92.8665 64.6412 83.8994 71.1508C74.9324 77.6603 68.2339 86.8193 64.7476 97.3372L37.8525 88.4227Z" fill="#424242" stroke="#232323" stroke-width="3"/>
<path d="M115.048 146.659C111.21 146.659 107.929 145.912 105.204 144.418C102.479 142.895 100.399 140.697 98.9639 137.826C97.5283 134.926 96.8105 131.439 96.8105 127.367V127.323C96.8105 124.979 97.0889 122.519 97.6455 119.94C98.2314 117.333 99.0518 114.74 100.106 112.162C100.282 111.723 100.458 111.298 100.634 110.888C100.839 110.448 101.044 110.023 101.249 109.613L114.696 82.1035H126.298L110.478 113.964L108.983 112.382C109.716 111.005 110.785 109.936 112.191 109.174C113.598 108.412 115.238 108.031 117.113 108.031C120.512 108.031 123.427 108.778 125.858 110.272C128.29 111.767 130.136 113.949 131.396 116.82C132.685 119.662 133.329 123.09 133.329 127.104V127.147C133.329 131.249 132.611 134.765 131.176 137.694C129.74 140.624 127.646 142.851 124.892 144.374C122.167 145.897 118.886 146.659 115.048 146.659ZM115.048 136.552C117.538 136.552 119.457 135.805 120.805 134.311C122.152 132.816 122.826 130.678 122.826 127.895V127.851C122.826 124.745 122.138 122.357 120.761 120.688C119.384 118.988 117.406 118.139 114.828 118.139C112.426 118.139 110.565 118.988 109.247 120.688C107.958 122.387 107.313 124.789 107.313 127.895V127.938C107.313 130.722 107.987 132.86 109.335 134.354C110.683 135.819 112.587 136.552 115.048 136.552Z" fill="white"/>
</svg>
