<svg width="229" height="229" viewBox="0 0 229 229" fill="none" xmlns="http://www.w3.org/2000/svg">
<circle cx="114.965" cy="114.001" r="79" fill="#212121" stroke="black" stroke-width="4"/>
<path d="M115.308 32.7265C132.332 32.7932 148.905 38.2039 162.689 48.1951C176.473 58.1862 186.772 72.2534 192.132 88.4117L165.323 97.305C161.825 86.7622 155.106 77.5837 146.112 71.0648C137.119 64.5458 126.305 61.0155 115.197 60.972L115.308 32.7265Z" fill="#5B4FE0" stroke="#232323" stroke-width="3"/>
<path d="M192.415 89.3018C197.586 105.514 197.539 122.94 192.279 139.123C187.019 155.307 176.813 169.431 163.098 179.505L146.38 156.745C155.33 150.172 161.99 140.955 165.422 130.395C168.854 119.834 168.885 108.463 165.511 97.8839L192.415 89.3018Z" fill="#5B4FE0" stroke="#232323" stroke-width="3"/>
<path d="M162.391 180.013C148.581 189.933 132.007 195.271 115.003 195.276C97.9989 195.281 81.4216 189.954 67.6047 180.043L84.0509 157.115C93.071 163.585 103.893 167.064 114.994 167.06C126.095 167.057 136.915 163.572 145.931 157.096L162.391 180.013Z" fill="#5B4FE0" stroke="#232323" stroke-width="3"/>
<path d="M66.8433 179.497C53.1461 169.433 42.9491 155.327 37.6868 139.165C32.4245 123.002 32.3618 105.597 37.5075 89.3972L64.4326 97.9497C61.0755 108.519 61.1164 119.874 64.5496 130.418C67.9827 140.963 74.6354 150.166 83.5715 156.732L66.8433 179.497Z" fill="#424242" stroke="#232323" stroke-width="3"/>
<path d="M37.8408 88.4227C43.1929 72.2757 53.4764 58.2148 67.2425 48.2215C81.0086 38.2282 97.5633 32.806 114.574 32.7191L114.719 61.0528C103.638 61.1094 92.8548 64.6412 83.8877 71.1508C74.9207 77.6603 68.2221 86.8193 64.7359 97.3372L37.8408 88.4227Z" fill="#424242" stroke="#232323" stroke-width="3"/>
<path d="M115.048 146.659C111.21 146.659 107.929 145.912 105.204 144.418C102.479 142.895 100.399 140.697 98.9639 137.826C97.5283 134.926 96.8105 131.439 96.8105 127.367V127.323C96.8105 124.979 97.0889 122.519 97.6455 119.94C98.2314 117.333 99.0518 114.74 100.106 112.162C100.282 111.723 100.458 111.298 100.634 110.888C100.839 110.448 101.044 110.023 101.249 109.613L114.696 82.1035H126.298L110.478 113.964L108.983 112.382C109.716 111.005 110.785 109.936 112.191 109.174C113.598 108.412 115.238 108.031 117.113 108.031C120.512 108.031 123.427 108.778 125.858 110.272C128.29 111.767 130.136 113.949 131.396 116.82C132.685 119.662 133.329 123.09 133.329 127.104V127.147C133.329 131.249 132.611 134.765 131.176 137.694C129.74 140.624 127.646 142.851 124.892 144.374C122.167 145.897 118.886 146.659 115.048 146.659ZM115.048 136.552C117.538 136.552 119.457 135.805 120.805 134.311C122.152 132.816 122.826 130.678 122.826 127.895V127.851C122.826 124.745 122.138 122.357 120.761 120.688C119.384 118.988 117.406 118.139 114.828 118.139C112.426 118.139 110.565 118.988 109.247 120.688C107.958 122.387 107.313 124.789 107.313 127.895V127.938C107.313 130.722 107.987 132.86 109.335 134.354C110.683 135.819 112.587 136.552 115.048 136.552Z" fill="white"/>
</svg>
