<svg width="229" height="229" viewBox="0 0 229 229" fill="none" xmlns="http://www.w3.org/2000/svg">
<circle cx="114.965" cy="114.001" r="79" fill="#212121" stroke="black" stroke-width="4"/>
<path d="M115.308 32.7265C132.332 32.7932 148.905 38.2039 162.689 48.195C176.473 58.1862 186.772 72.2534 192.132 88.4117L165.323 97.305C161.825 86.7622 155.106 77.5837 146.112 71.0648C137.119 64.5458 126.305 61.0155 115.197 60.972L115.308 32.7265Z" fill="#8E44B1" stroke="#232323" stroke-width="3"/>
<path d="M192.415 89.3018C197.586 105.514 197.539 122.94 192.279 139.123C187.019 155.307 176.813 169.431 163.098 179.505L146.38 156.745C155.33 150.172 161.99 140.955 165.422 130.395C168.854 119.834 168.885 108.463 165.511 97.8839L192.415 89.3018Z" fill="#8E44B1" stroke="#232323" stroke-width="3"/>
<path d="M162.391 180.013C148.581 189.933 132.007 195.271 115.003 195.276C97.9989 195.281 81.4216 189.954 67.6047 180.043L84.0509 157.115C93.071 163.585 103.893 167.064 114.994 167.06C126.095 167.057 136.915 163.572 145.931 157.096L162.391 180.013Z" fill="#8E44B1" stroke="#232323" stroke-width="3"/>
<path d="M66.8433 179.497C53.1461 169.433 42.9491 155.327 37.6868 139.165C32.4245 123.002 32.3618 105.597 37.5075 89.3972L64.4326 97.9497C61.0755 108.519 61.1164 119.874 64.5496 130.418C67.9827 140.963 74.6354 150.166 83.5715 156.732L66.8433 179.497Z" fill="#8E44B1" stroke="#232323" stroke-width="3"/>
<path d="M37.8408 88.4227C43.1929 72.2756 53.4764 58.2148 67.2425 48.2215C81.0086 38.2282 97.5633 32.8061 114.574 32.7191L114.719 61.0527C103.638 61.1094 92.8548 64.6412 83.8877 71.1508C74.9207 77.6603 68.2221 86.8193 64.7359 97.3372L37.8408 88.4227Z" fill="#424242" stroke="#232323" stroke-width="3"/>
<path d="M114.048 146.659C110.21 146.659 106.929 145.912 104.204 144.418C101.479 142.895 99.3994 140.697 97.9639 137.826C96.5283 134.926 95.8105 131.439 95.8105 127.367V127.323C95.8105 124.979 96.0889 122.519 96.6455 119.94C97.2314 117.333 98.0518 114.74 99.1064 112.162C99.2822 111.723 99.458 111.298 99.6338 110.888C99.8389 110.448 100.044 110.023 100.249 109.613L113.696 82.1035H125.298L109.478 113.964L107.983 112.382C108.716 111.005 109.785 109.936 111.191 109.174C112.598 108.412 114.238 108.031 116.113 108.031C119.512 108.031 122.427 108.778 124.858 110.272C127.29 111.767 129.136 113.949 130.396 116.82C131.685 119.662 132.329 123.09 132.329 127.104V127.147C132.329 131.249 131.611 134.765 130.176 137.694C128.74 140.624 126.646 142.851 123.892 144.374C121.167 145.897 117.886 146.659 114.048 146.659ZM114.048 136.552C116.538 136.552 118.457 135.805 119.805 134.311C121.152 132.816 121.826 130.678 121.826 127.895V127.851C121.826 124.745 121.138 122.357 119.761 120.688C118.384 118.988 116.406 118.139 113.828 118.139C111.426 118.139 109.565 118.988 108.247 120.688C106.958 122.387 106.313 124.789 106.313 127.895V127.938C106.313 130.722 106.987 132.86 108.335 134.354C109.683 135.819 111.587 136.552 114.048 136.552Z" fill="white"/>
</svg>
