<svg width="229" height="229" viewBox="0 0 229 229" fill="none" xmlns="http://www.w3.org/2000/svg">
<circle cx="114.965" cy="114.001" r="79" fill="#212121" stroke="black" stroke-width="4"/>
<path d="M115.308 32.7265C132.332 32.7932 148.905 38.2039 162.689 48.195C176.473 58.1862 186.772 72.2534 192.132 88.4117L165.323 97.305C161.825 86.7622 155.106 77.5837 146.112 71.0648C137.119 64.5458 126.305 61.0155 115.197 60.972L115.308 32.7265Z" fill="#984FE0" stroke="#232323" stroke-width="3"/>
<path d="M192.415 89.3018C197.586 105.514 197.539 122.94 192.279 139.123C187.019 155.307 176.813 169.431 163.098 179.505L146.38 156.745C155.33 150.172 161.99 140.955 165.422 130.395C168.854 119.834 168.885 108.463 165.511 97.8839L192.415 89.3018Z" fill="#984FE0" stroke="#232323" stroke-width="3"/>
<path d="M162.391 180.013C148.581 189.933 132.007 195.271 115.003 195.276C97.9989 195.281 81.4216 189.954 67.6047 180.043L84.0509 157.115C93.071 163.585 103.893 167.064 114.994 167.06C126.095 167.057 136.915 163.572 145.931 157.096L162.391 180.013Z" fill="#974FE0" stroke="#232323" stroke-width="3"/>
<path d="M66.8433 179.497C53.1461 169.433 42.9491 155.327 37.6868 139.165C32.4245 123.002 32.3618 105.597 37.5075 89.3972L64.4326 97.9497C61.0755 108.519 61.1164 119.874 64.5496 130.418C67.9827 140.963 74.6354 150.166 83.5715 156.732L66.8433 179.497Z" fill="#974FE0" stroke="#232323" stroke-width="3"/>
<path d="M37.8408 88.4227C43.1929 72.2756 53.4764 58.2148 67.2425 48.2215C81.0086 38.2282 97.5633 32.8061 114.574 32.7191L114.719 61.0527C103.638 61.1094 92.8548 64.6412 83.8877 71.1508C74.9207 77.6603 68.2221 86.8193 64.7359 97.3372L37.8408 88.4227Z" fill="#984FE0" stroke="#232323" stroke-width="3"/>
<path d="M113.048 146.659C109.21 146.659 105.929 145.912 103.204 144.418C100.479 142.895 98.3994 140.697 96.9639 137.826C95.5283 134.926 94.8105 131.439 94.8105 127.367V127.323C94.8105 124.979 95.0889 122.519 95.6455 119.94C96.2314 117.333 97.0518 114.74 98.1064 112.162C98.2822 111.723 98.458 111.298 98.6338 110.888C98.8389 110.448 99.0439 110.023 99.249 109.613L112.696 82.1035H124.298L108.478 113.964L106.983 112.382C107.716 111.005 108.785 109.936 110.191 109.174C111.598 108.412 113.238 108.031 115.113 108.031C118.512 108.031 121.427 108.778 123.858 110.272C126.29 111.767 128.136 113.949 129.396 116.82C130.685 119.662 131.329 123.09 131.329 127.104V127.147C131.329 131.249 130.611 134.765 129.176 137.694C127.74 140.624 125.646 142.851 122.892 144.374C120.167 145.897 116.886 146.659 113.048 146.659ZM113.048 136.552C115.538 136.552 117.457 135.805 118.805 134.311C120.152 132.816 120.826 130.678 120.826 127.895V127.851C120.826 124.745 120.138 122.357 118.761 120.688C117.384 118.988 115.406 118.139 112.828 118.139C110.426 118.139 108.565 118.988 107.247 120.688C105.958 122.387 105.313 124.789 105.313 127.895V127.938C105.313 130.722 105.987 132.86 107.335 134.354C108.683 135.819 110.587 136.552 113.048 136.552Z" fill="white"/>
</svg>
