<svg width="229" height="229" viewBox="0 0 229 229" fill="none" xmlns="http://www.w3.org/2000/svg">
<circle cx="114.965" cy="114.001" r="79" fill="#212121" stroke="black" stroke-width="4"/>
<path d="M115.308 32.7265C132.332 32.7932 148.905 38.2039 162.689 48.195C176.473 58.1862 186.772 72.2534 192.132 88.4117L165.323 97.305C161.825 86.7622 155.106 77.5837 146.112 71.0648C137.119 64.5458 126.305 61.0155 115.197 60.972L115.308 32.7265Z" fill="#5B4FE0" stroke="#232323" stroke-width="3"/>
<path d="M192.415 89.3018C197.586 105.514 197.539 122.94 192.279 139.123C187.019 155.307 176.813 169.431 163.098 179.505L146.38 156.745C155.33 150.172 161.99 140.955 165.422 130.395C168.854 119.834 168.885 108.463 165.511 97.8839L192.415 89.3018Z" fill="#5B4FE0" stroke="#232323" stroke-width="3"/>
<path d="M162.391 180.013C148.581 189.933 132.007 195.271 115.003 195.276C97.9989 195.281 81.4216 189.954 67.6047 180.043L84.0509 157.115C93.071 163.585 103.893 167.064 114.994 167.06C126.095 167.057 136.915 163.572 145.931 157.096L162.391 180.013Z" fill="#5B4FE0" stroke="#232323" stroke-width="3"/>
<path d="M66.8433 179.497C53.1461 169.433 42.9491 155.327 37.6868 139.165C32.4245 123.002 32.3618 105.597 37.5075 89.3972L64.4326 97.9497C61.0755 108.519 61.1164 119.874 64.5496 130.418C67.9827 140.963 74.6354 150.166 83.5715 156.732L66.8433 179.497Z" fill="#424242" stroke="#232323" stroke-width="3"/>
<path d="M37.8408 88.4227C43.1929 72.2756 53.4764 58.2148 67.2425 48.2215C81.0086 38.2282 97.5633 32.8061 114.574 32.7191L114.719 61.0527C103.638 61.1094 92.8548 64.6412 83.8877 71.1508C74.9207 77.6603 68.2221 86.8193 64.7359 97.3372L37.8408 88.4227Z" fill="#424242" stroke="#232323" stroke-width="3"/>
<path d="M117.289 146.659C113.334 146.659 109.862 145.927 106.874 144.462C103.886 142.997 101.571 140.932 99.9307 138.266C98.29 135.57 97.4697 132.45 97.4697 128.905V127.851C97.4697 124.657 98.3047 121.654 99.9746 118.842C101.674 116.029 103.915 113.905 106.698 112.47C104.325 111.239 102.406 109.467 100.941 107.152C99.5059 104.838 98.7881 102.392 98.7881 99.8135V98.2314C98.7881 94.8916 99.5498 91.9619 101.073 89.4424C102.626 86.8936 104.794 84.9307 107.577 83.5537C110.36 82.1475 113.598 81.4443 117.289 81.4443C120.98 81.4443 124.218 82.1475 127.001 83.5537C129.784 84.9307 131.938 86.8936 133.461 89.4424C135.014 91.9619 135.79 94.8916 135.79 98.2314V99.8135C135.79 102.45 135.043 104.926 133.549 107.24C132.084 109.525 130.15 111.269 127.748 112.47C130.561 113.935 132.816 116.073 134.516 118.886C136.244 121.669 137.108 124.657 137.108 127.851V128.905C137.108 132.45 136.288 135.57 134.647 138.266C133.007 140.932 130.692 142.997 127.704 144.462C124.716 145.927 121.244 146.659 117.289 146.659ZM117.289 136.552C119.135 136.552 120.761 136.186 122.167 135.453C123.603 134.721 124.701 133.681 125.463 132.333C126.254 130.985 126.649 129.447 126.649 127.719V127.104C126.649 125.404 126.254 123.91 125.463 122.621C124.701 121.332 123.617 120.336 122.211 119.633C120.805 118.9 119.164 118.534 117.289 118.534C115.414 118.534 113.773 118.9 112.367 119.633C110.961 120.336 109.862 121.347 109.071 122.665C108.31 123.954 107.929 125.448 107.929 127.147V127.807C107.929 129.535 108.31 131.073 109.071 132.421C109.862 133.739 110.961 134.765 112.367 135.497C113.803 136.2 115.443 136.552 117.289 136.552ZM117.289 108.427C118.871 108.427 120.263 108.09 121.464 107.416C122.694 106.713 123.632 105.731 124.276 104.472C124.95 103.183 125.287 101.703 125.287 100.033V99.418C125.287 97.8652 124.95 96.4883 124.276 95.2871C123.632 94.0859 122.694 93.1631 121.464 92.5186C120.263 91.874 118.871 91.5518 117.289 91.5518C115.707 91.5518 114.301 91.874 113.07 92.5186C111.869 93.1631 110.932 94.0859 110.258 95.2871C109.613 96.4883 109.291 97.8799 109.291 99.4619V100.121C109.291 101.762 109.613 103.212 110.258 104.472C110.932 105.731 111.869 106.713 113.07 107.416C114.301 108.09 115.707 108.427 117.289 108.427Z" fill="white"/>
</svg>
