<svg width="229" height="229" viewBox="0 0 229 229" fill="none" xmlns="http://www.w3.org/2000/svg">
<circle cx="114.965" cy="114.001" r="79" fill="#212121" stroke="black" stroke-width="4"/>
<path d="M115.308 32.7265C132.332 32.7932 148.905 38.2039 162.689 48.195C176.473 58.1862 186.772 72.2534 192.132 88.4117L165.323 97.305C161.825 86.7622 155.106 77.5837 146.112 71.0648C137.119 64.5458 126.305 61.0155 115.197 60.972L115.308 32.7265Z" fill="#8E44B1" stroke="#232323" stroke-width="3"/>
<path d="M192.415 89.3018C197.586 105.514 197.539 122.94 192.279 139.123C187.019 155.307 176.813 169.431 163.098 179.505L146.38 156.745C155.33 150.172 161.99 140.955 165.422 130.395C168.854 119.834 168.885 108.463 165.511 97.8839L192.415 89.3018Z" fill="#8E44B1" stroke="#232323" stroke-width="3"/>
<path d="M162.391 180.013C148.581 189.933 132.007 195.271 115.003 195.276C97.9989 195.281 81.4216 189.954 67.6047 180.043L84.0509 157.115C93.071 163.585 103.893 167.064 114.994 167.06C126.095 167.057 136.915 163.572 145.931 157.096L162.391 180.013Z" fill="#8E44B1" stroke="#232323" stroke-width="3"/>
<path d="M66.8433 179.497C53.1461 169.433 42.9491 155.327 37.6868 139.165C32.4245 123.002 32.3618 105.597 37.5075 89.3972L64.4326 97.9497C61.0755 108.519 61.1164 119.874 64.5496 130.418C67.9827 140.963 74.6354 150.166 83.5715 156.732L66.8433 179.497Z" fill="#8E44B1" stroke="#232323" stroke-width="3"/>
<path d="M37.8408 88.4227C43.1929 72.2756 53.4764 58.2148 67.2425 48.2215C81.0086 38.2282 97.5633 32.8061 114.574 32.7191L114.719 61.0527C103.638 61.1094 92.8548 64.6412 83.8877 71.1508C74.9207 77.6603 68.2221 86.8193 64.7359 97.3372L37.8408 88.4227Z" fill="#424242" stroke="#232323" stroke-width="3"/>
<path d="M116.289 146.659C112.334 146.659 108.862 145.927 105.874 144.462C102.886 142.997 100.571 140.932 98.9307 138.266C97.29 135.57 96.4697 132.45 96.4697 128.905V127.851C96.4697 124.657 97.3047 121.654 98.9746 118.842C100.674 116.029 102.915 113.905 105.698 112.47C103.325 111.239 101.406 109.467 99.9414 107.152C98.5059 104.838 97.7881 102.392 97.7881 99.8135V98.2314C97.7881 94.8916 98.5498 91.9619 100.073 89.4424C101.626 86.8936 103.794 84.9307 106.577 83.5537C109.36 82.1475 112.598 81.4443 116.289 81.4443C119.98 81.4443 123.218 82.1475 126.001 83.5537C128.784 84.9307 130.938 86.8936 132.461 89.4424C134.014 91.9619 134.79 94.8916 134.79 98.2314V99.8135C134.79 102.45 134.043 104.926 132.549 107.24C131.084 109.525 129.15 111.269 126.748 112.47C129.561 113.935 131.816 116.073 133.516 118.886C135.244 121.669 136.108 124.657 136.108 127.851V128.905C136.108 132.45 135.288 135.57 133.647 138.266C132.007 140.932 129.692 142.997 126.704 144.462C123.716 145.927 120.244 146.659 116.289 146.659ZM116.289 136.552C118.135 136.552 119.761 136.186 121.167 135.453C122.603 134.721 123.701 133.681 124.463 132.333C125.254 130.985 125.649 129.447 125.649 127.719V127.104C125.649 125.404 125.254 123.91 124.463 122.621C123.701 121.332 122.617 120.336 121.211 119.633C119.805 118.9 118.164 118.534 116.289 118.534C114.414 118.534 112.773 118.9 111.367 119.633C109.961 120.336 108.862 121.347 108.071 122.665C107.31 123.954 106.929 125.448 106.929 127.147V127.807C106.929 129.535 107.31 131.073 108.071 132.421C108.862 133.739 109.961 134.765 111.367 135.497C112.803 136.2 114.443 136.552 116.289 136.552ZM116.289 108.427C117.871 108.427 119.263 108.09 120.464 107.416C121.694 106.713 122.632 105.731 123.276 104.472C123.95 103.183 124.287 101.703 124.287 100.033V99.418C124.287 97.8652 123.95 96.4883 123.276 95.2871C122.632 94.0859 121.694 93.1631 120.464 92.5186C119.263 91.874 117.871 91.5518 116.289 91.5518C114.707 91.5518 113.301 91.874 112.07 92.5186C110.869 93.1631 109.932 94.0859 109.258 95.2871C108.613 96.4883 108.291 97.8799 108.291 99.4619V100.121C108.291 101.762 108.613 103.212 109.258 104.472C109.932 105.731 110.869 106.713 112.07 107.416C113.301 108.09 114.707 108.427 116.289 108.427Z" fill="white"/>
</svg>
