<svg width="229" height="229" viewBox="0 0 229 229" fill="none" xmlns="http://www.w3.org/2000/svg">
<circle cx="114.965" cy="114.001" r="79" fill="#212121" stroke="black" stroke-width="4"/>
<path d="M115.308 32.7265C132.332 32.7932 148.905 38.2039 162.689 48.195C176.473 58.1862 186.772 72.2534 192.132 88.4117L165.323 97.305C161.825 86.7622 155.106 77.5837 146.112 71.0648C137.119 64.5458 126.305 61.0155 115.197 60.972L115.308 32.7265Z" fill="#E0AF4F" stroke="#232323" stroke-width="3"/>
<path d="M192.415 89.3018C197.586 105.514 197.539 122.94 192.279 139.123C187.019 155.307 176.813 169.431 163.098 179.505L146.38 156.745C155.33 150.172 161.99 140.955 165.422 130.395C168.854 119.834 168.885 108.463 165.511 97.8839L192.415 89.3018Z" fill="#E0AF4F" stroke="#232323" stroke-width="3"/>
<path d="M162.391 180.013C148.581 189.933 132.007 195.271 115.003 195.276C97.9989 195.281 81.4216 189.954 67.6047 180.043L84.0509 157.115C93.071 163.585 103.893 167.064 114.994 167.06C126.095 167.057 136.915 163.572 145.931 157.096L162.391 180.013Z" fill="#E0AF4F" stroke="#232323" stroke-width="3"/>
<path d="M66.8433 179.497C53.1461 169.433 42.9491 155.327 37.6868 139.165C32.4245 123.002 32.3618 105.597 37.5075 89.3972L64.4326 97.9497C61.0755 108.519 61.1164 119.874 64.5496 130.418C67.9827 140.963 74.6354 150.166 83.5715 156.732L66.8433 179.497Z" fill="#E0AF4F" stroke="#232323" stroke-width="3"/>
<path d="M37.8408 88.4227C43.1929 72.2756 53.4764 58.2148 67.2425 48.2215C81.0086 38.2282 97.5633 32.8061 114.574 32.7191L114.719 61.0527C103.638 61.1094 92.8548 64.6412 83.8877 71.1508C74.9207 77.6603 68.2221 86.8193 64.7359 97.3372L37.8408 88.4227Z" fill="#E0AF4F" stroke="#232323" stroke-width="3"/>
<path d="M115.289 146.659C111.334 146.659 107.862 145.927 104.874 144.462C101.886 142.997 99.5713 140.932 97.9307 138.266C96.29 135.57 95.4697 132.45 95.4697 128.905V127.851C95.4697 124.657 96.3047 121.654 97.9746 118.842C99.6738 116.029 101.915 113.905 104.698 112.47C102.325 111.239 100.406 109.467 98.9414 107.152C97.5059 104.838 96.7881 102.392 96.7881 99.8135V98.2314C96.7881 94.8916 97.5498 91.9619 99.0732 89.4424C100.626 86.8936 102.794 84.9307 105.577 83.5537C108.36 82.1475 111.598 81.4443 115.289 81.4443C118.98 81.4443 122.218 82.1475 125.001 83.5537C127.784 84.9307 129.938 86.8936 131.461 89.4424C133.014 91.9619 133.79 94.8916 133.79 98.2314V99.8135C133.79 102.45 133.043 104.926 131.549 107.24C130.084 109.525 128.15 111.269 125.748 112.47C128.561 113.935 130.816 116.073 132.516 118.886C134.244 121.669 135.108 124.657 135.108 127.851V128.905C135.108 132.45 134.288 135.57 132.647 138.266C131.007 140.932 128.692 142.997 125.704 144.462C122.716 145.927 119.244 146.659 115.289 146.659ZM115.289 136.552C117.135 136.552 118.761 136.186 120.167 135.453C121.603 134.721 122.701 133.681 123.463 132.333C124.254 130.985 124.649 129.447 124.649 127.719V127.104C124.649 125.404 124.254 123.91 123.463 122.621C122.701 121.332 121.617 120.336 120.211 119.633C118.805 118.9 117.164 118.534 115.289 118.534C113.414 118.534 111.773 118.9 110.367 119.633C108.961 120.336 107.862 121.347 107.071 122.665C106.31 123.954 105.929 125.448 105.929 127.147V127.807C105.929 129.535 106.31 131.073 107.071 132.421C107.862 133.739 108.961 134.765 110.367 135.497C111.803 136.2 113.443 136.552 115.289 136.552ZM115.289 108.427C116.871 108.427 118.263 108.09 119.464 107.416C120.694 106.713 121.632 105.731 122.276 104.472C122.95 103.183 123.287 101.703 123.287 100.033V99.418C123.287 97.8652 122.95 96.4883 122.276 95.2871C121.632 94.0859 120.694 93.1631 119.464 92.5186C118.263 91.874 116.871 91.5518 115.289 91.5518C113.707 91.5518 112.301 91.874 111.07 92.5186C109.869 93.1631 108.932 94.0859 108.258 95.2871C107.613 96.4883 107.291 97.8799 107.291 99.4619V100.121C107.291 101.762 107.613 103.212 108.258 104.472C108.932 105.731 109.869 106.713 111.07 107.416C112.301 108.09 113.707 108.427 115.289 108.427Z" fill="white"/>
</svg>
