<svg width="24" height="24" viewBox="0 0 24 24" fill="none" xmlns="http://www.w3.org/2000/svg">
<path d="M12.5231 3.90723C9.42821 3.90723 6.91301 6.42242 6.91301 9.51733V12.2195C6.91301 12.7899 6.66991 13.6595 6.38005 14.1457L5.30478 15.9315C4.64092 17.0349 5.09908 18.2597 6.3146 18.6712C10.3445 20.0176 14.6924 20.0176 18.7223 18.6712C19.8537 18.2971 20.3492 16.9601 19.7321 15.9315L18.6568 14.1457C18.3763 13.6595 18.1332 12.7899 18.1332 12.2195V9.51733C18.1332 6.43177 15.6087 3.90723 12.5231 3.90723Z" stroke="white" stroke-width="1.5" stroke-miterlimit="10" stroke-linecap="round"/>
<path d="M14.2545 4.17812C13.9646 4.09397 13.6654 4.02852 13.3569 3.99112C12.4593 3.87892 11.599 3.94437 10.7949 4.17812C11.0661 3.48621 11.7393 3 12.5247 3C13.3101 3 13.9833 3.48621 14.2545 4.17812Z" stroke="white" stroke-width="1.5" stroke-miterlimit="10" stroke-linecap="round" stroke-linejoin="round"/>
<path d="M15.3308 19.0078C15.3308 20.5506 14.0685 21.8129 12.5258 21.8129C11.759 21.8129 11.0484 21.495 10.5435 20.99C10.0386 20.4851 9.7207 19.7745 9.7207 19.0078" stroke="white" stroke-width="1.5" stroke-miterlimit="10"/>
</svg>
