<svg width="16" height="16" viewBox="0 0 16 16" fill="none" xmlns="http://www.w3.org/2000/svg">
<path d="M6.36245 7.67773C6.29844 7.67133 6.22163 7.67133 6.15122 7.67773C4.62777 7.62652 3.41797 6.37832 3.41797 4.84207C3.41797 3.27381 4.68538 2 6.26003 2C7.82829 2 9.1021 3.27381 9.1021 4.84207C9.0957 6.37832 7.8859 7.62652 6.36245 7.67773Z" stroke="#878787" stroke-width="1.2" stroke-linecap="round" stroke-linejoin="round"/>
<path d="M11.0022 3.28027C12.244 3.28027 13.2425 4.28524 13.2425 5.52064C13.2425 6.73044 12.2824 7.7162 11.0854 7.76101C11.0342 7.75461 10.9766 7.75461 10.9189 7.76101" stroke="#878787" stroke-width="1.2" stroke-linecap="round" stroke-linejoin="round"/>
<path d="M3.16179 10.0397C1.61274 11.0766 1.61274 12.7665 3.16179 13.7971C4.92208 14.9749 7.80895 14.9749 9.56924 13.7971C11.1183 12.7601 11.1183 11.0702 9.56924 10.0397C7.81535 8.86828 4.92848 8.86828 3.16179 10.0397Z" stroke="#878787" stroke-width="1.2" stroke-linecap="round" stroke-linejoin="round"/>
<path d="M12.2383 13.5223C12.6992 13.4263 13.1344 13.2406 13.4929 12.9654C14.4914 12.2165 14.4914 10.9811 13.4929 10.2321C13.1408 9.96329 12.712 9.78406 12.2575 9.68164" stroke="#878787" stroke-width="1.2" stroke-linecap="round" stroke-linejoin="round"/>
</svg>
