<svg width="22" height="22" viewBox="0 0 22 22" fill="none" xmlns="http://www.w3.org/2000/svg">
<path d="M8.13512 2.9339C9.32379 1.96385 10.867 1.25822 12.2167 1.06752C15.1507 0.65311 18.4224 2.17629 20.2542 4.80958C20.9058 5.74629 21.5893 7.42548 21.751 8.48703C21.8023 8.82411 21.763 8.77918 21.4145 8.10274C20.7989 6.90816 19.9024 5.54741 19.2823 4.86673C18.5424 4.05467 17.9356 3.74658 17.0734 3.74523C16.5017 3.7443 16.3926 3.7765 16.1767 4.00984C15.9888 4.21306 15.9436 4.34402 15.9846 4.5664C16.0363 4.84499 16.0206 4.85938 15.6123 4.90917C15.3779 4.93775 15.1197 5.02057 15.0387 5.09335C14.9082 5.21033 14.9192 5.25723 15.1344 5.49989C15.3913 5.78977 15.4471 6.11225 15.2729 6.30056C15.1972 6.38235 14.9255 6.29011 14.2911 5.96731C13.2806 5.4532 12.4532 5.14718 11.6114 4.97647C10.8178 4.81548 8.35236 4.84054 7.2839 5.02046C6.80977 5.10028 6.407 5.15205 6.3889 5.13538C6.30748 5.06053 7.45075 4.3375 7.86233 4.20364C8.11405 4.12175 8.66883 4.05084 9.09506 4.04608L9.87004 4.03728L9.48126 3.84368C9.26747 3.73726 8.75436 3.58911 8.34106 3.51457L7.58954 3.37916L8.13512 2.9339Z" fill="currentColor"/>
<path d="M16.4412 8.66718L16.413 7.52597L16.3848 6.38477H16.9375C17.4345 6.38477 17.5526 6.43767 18.1105 6.91031C18.6423 7.36093 18.724 7.47775 18.6835 7.72963C18.6575 7.89127 18.6179 8.02342 18.5956 8.02342C18.5732 8.02342 18.2914 7.86541 17.9691 7.67228C17.6469 7.47915 17.3598 7.32114 17.3312 7.32114C17.3025 7.32114 17.2791 7.62967 17.2791 8.0068V8.69246L16.8601 8.67982L16.4412 8.66718Z" fill="currentColor"/>
<path d="M19.4614 10.7462C19.4614 10.7282 19.6596 10.5984 19.9018 10.4578C20.3332 10.2072 20.3551 10.2032 20.9779 10.2607C21.3275 10.2928 21.6267 10.3306 21.6428 10.3444C21.6589 10.3583 21.7003 10.693 21.735 11.0884C21.7931 11.7517 21.7859 11.8031 21.6435 11.756C21.5586 11.7279 21.3147 11.7049 21.1014 11.7049H20.7135L20.6087 11.2455C20.5511 10.9928 20.4862 10.786 20.4647 10.786C20.4431 10.786 20.2549 10.8722 20.0465 10.9775L19.6676 11.1691L19.5645 10.974C19.5078 10.8666 19.4614 10.7641 19.4614 10.7462Z" fill="currentColor"/>
<path d="M8.07452 16.7858C8.48731 16.7858 8.54663 16.7625 8.60226 16.5785C8.68276 16.3123 8.77055 16.3176 9.14988 16.6118C9.66704 17.0127 9.58135 17.092 8.58618 17.1335C7.49612 17.179 7.06306 17.34 7.06306 17.6998C7.06306 17.9404 7.07514 17.9464 7.56244 17.9464C8.09628 17.9464 8.11496 17.9578 7.96325 18.1931C7.87266 18.3336 7.2719 18.6925 7.12748 18.6925C7.09342 18.6925 6.90196 18.4228 6.70201 18.0933C6.36023 17.53 6.34375 17.4669 6.42615 17.0424C6.52832 16.5156 6.76343 16.3608 6.76343 16.8203C6.76343 16.9836 6.7861 17.1174 6.81377 17.1174C6.84143 17.1174 7.0317 17.0428 7.23675 16.9516C7.45647 16.8538 7.80026 16.7858 8.07452 16.7858Z" fill="currentColor"/>
<path d="M12.5484 18.5089C13.9728 18.2158 14.7778 17.8129 15.5502 17.0065L16.1457 16.3848L16.2974 16.6976C16.4413 16.994 16.4303 17.035 16.087 17.4822C15.8076 17.8461 15.7229 18.0631 15.7163 18.4311C15.7115 18.6935 15.6625 18.955 15.6075 19.0123C15.4013 19.2263 14.6216 19.311 13.5388 19.2367C12.4783 19.1639 11.6107 19.2305 11.1481 19.4199C10.947 19.5024 10.9478 19.4904 11.1684 19.1257C11.3872 18.7641 11.4544 18.734 12.5484 18.5089Z" fill="currentColor"/>
<path d="M6.38477 20.2772C6.38477 19.8798 6.41831 19.5242 6.45915 19.4867C6.5583 19.3959 7.25012 19.5521 8.04581 19.8445L8.69246 20.0823L8.38205 20.3492C7.9982 20.6793 7.18371 20.9994 6.72723 20.9994C6.39991 20.9994 6.38477 20.9675 6.38477 20.2772Z" fill="currentColor"/>
<path fill-rule="evenodd" clip-rule="evenodd" d="M5.19243 5.7827C4.38098 6.01679 3.03759 6.77692 2.81996 7.12498C2.58427 7.50208 0.997907 12.1838 1 12.4963C1.002 12.7969 1.19239 13.4036 1.39225 13.7462C1.51778 13.9613 1.55031 14.3429 1.55031 15.6016V17.1862L2.17126 17.8168C3.18447 18.8457 4.62875 19.4757 5.94081 19.4611C6.38574 19.4562 6.41278 19.4429 6.19027 19.3382C3.00735 17.8398 2.05152 16.7487 3.03649 15.7387C3.37566 15.3908 3.35979 15.1751 2.97542 14.9053C2.803 14.7843 2.62269 14.5535 2.57469 14.3923C2.49766 14.1337 2.53788 14.0469 2.91696 13.6529L3.34642 13.2064L2.82146 13.4233C2.03496 13.7484 1.99934 13.7326 1.99954 13.0627C1.99984 11.8689 2.48918 11.3975 4.0948 11.045C5.75601 10.6801 9.46627 10.9776 11.0793 11.6049C11.3162 11.6971 11.5295 11.7509 11.5535 11.7245C11.6088 11.6634 10.6105 10.544 10.2883 10.3059L10.0458 10.1266L10.3238 8.66571C10.4768 7.86234 10.6216 7.16908 10.6455 7.12519C10.6984 7.02871 11.7427 7.45103 12.8044 7.99809L13.5813 8.39829L13.5136 8.90167C13.4764 9.17855 13.3481 10.0733 13.2285 10.8901L13.0111 12.3752L11.2222 12.4981C8.73775 12.6689 6.78358 13.1209 5.64145 13.7892L5.24232 14.0226L6.06065 14.0827C7.0059 14.152 7.2846 14.3003 6.46976 14.3003C6.03879 14.3003 5.76529 14.3843 5.22266 14.6836C4.84039 14.8944 4.45382 15.1568 4.36372 15.2666C4.20666 15.4579 4.22352 15.463 4.77094 15.3875C5.08506 15.3443 6.15913 15.3047 7.15777 15.2995C8.92465 15.2905 9.01006 15.3007 10.3332 15.6778C11.9557 16.1403 12.6811 16.238 13.2442 16.07C14.009 15.8419 14.6127 14.7566 14.7419 13.3773C14.7736 13.0378 14.8192 12.7602 14.8432 12.7602C14.8672 12.7602 15.0235 12.9109 15.1907 13.0951C15.3577 13.2794 15.7082 13.5495 15.9693 13.6953C16.2923 13.8757 16.4646 14.0501 16.5079 14.2404C16.5705 14.5152 16.5885 14.5203 17.5028 14.5203C18.799 14.5203 19.4615 14.241 19.4615 13.6945C19.4615 13.472 19.4 13.4476 18.6882 13.3868C17.204 13.26 15.9915 12.6473 15.5406 11.7962C15.3287 11.3961 15.2796 10.6372 15.399 9.60976L15.4776 8.93445L15.1597 8.81223C14.9847 8.74501 14.7392 8.69002 14.6137 8.69002C14.4397 8.69002 14.3783 8.61896 14.3542 8.38938C14.3272 8.1312 14.1819 8.00777 13.3248 7.5144C11.9235 6.70773 10.4021 6.06024 9.34115 5.81889C8.22007 5.56379 6.01774 5.54453 5.19243 5.7827ZM9.20165 6.96129C9.19686 6.91377 8.93263 6.81333 8.61462 6.73809C7.84129 6.55526 5.75221 6.47265 5.19243 6.60289C4.63324 6.73303 3.59319 7.28933 3.34592 7.59063C3.16312 7.81328 3.16701 7.82439 3.61245 8.33581L4.06448 8.85503L3.92178 9.3869C3.84335 9.67941 3.79395 9.93319 3.81221 9.95101C3.83047 9.96872 4.20456 9.91163 4.64361 9.82407C5.41874 9.66962 7.47738 9.68535 8.23694 9.85157L8.53738 9.91735L8.87396 8.48244C9.05896 7.69327 9.20654 7.0087 9.20165 6.96129Z" fill="currentColor"/>
</svg>
