<svg width="22" height="22" viewBox="0 0 22 22" fill="none" xmlns="http://www.w3.org/2000/svg">
<path d="M5.60887 2.95597C5.19969 2.52674 4.8649 2.13611 4.8649 2.08783C4.8649 2.03955 5.98882 2 7.36251 2H9.86011V9.86803V17.7359L11.6935 17.8142C12.7018 17.8571 14.6899 17.8925 16.1113 17.8927L18.6958 17.8931L18.622 18.1619C18.4512 18.7842 18.1555 19.228 17.3381 20.0888L16.4731 21H10.5626C6.38642 21 4.65234 20.962 4.65234 20.8705C4.65234 20.7991 4.86426 20.4362 5.12327 20.0639C5.68305 19.2592 6.0883 18.3815 6.23848 17.6491C6.30607 17.3193 6.34858 14.5684 6.35028 10.4263L6.35284 3.73641L5.60887 2.95597Z" fill="currentColor"/>
<path d="M10.4346 4.33759V3.99503V3.65234L11.406 3.65318C14.5197 3.65582 17.2528 5.45303 18.5862 8.37443C19.1817 9.6794 19.4126 10.5659 19.5036 11.8985C19.6217 13.6263 19.1483 15.7198 18.3206 17.1308C18.017 17.6485 17.9525 17.6958 17.5502 17.6958H17.1111L17.4773 17.1077C17.9567 16.3374 18.4859 14.9435 18.655 14.0057C18.7364 13.5544 18.7684 12.7428 18.7354 11.9652C18.6907 10.9089 18.6176 10.4904 18.3336 9.66391C17.2319 6.45852 14.8527 4.62398 11.5171 4.40781L10.4346 4.33759Z" fill="currentColor"/>
<path d="M10.4346 12.2963C10.4346 10.2351 10.4651 7.81882 10.5026 6.92671L10.5705 5.30469L11.6081 5.36483C13.2887 5.46228 14.4429 6.01896 15.7171 7.34652L16.2172 7.86766L14.763 9.16862L13.3086 10.4696L13.2791 11.5207C13.243 12.8099 12.9525 13.8697 12.4103 14.6904C11.9966 15.3166 11.0618 16.0438 10.6705 16.0438H10.4346V12.2963Z" fill="currentColor"/>
<path d="M4.53496 16.8362C2.38332 13.4323 2.48892 10.4058 4.88214 6.88881L5.39786 6.13086L5.44093 6.7425C5.4764 7.24532 5.38475 7.54612 4.92521 8.43535C4.21803 9.80358 3.95299 10.8144 3.9505 12.1542C3.94788 13.4798 4.20215 14.3979 4.94992 15.7634C5.39689 16.5798 5.51947 16.9308 5.46688 17.2427C5.42892 17.4676 5.33201 17.6711 5.25154 17.695C5.17106 17.7189 4.84859 17.3324 4.53496 16.8362Z" fill="currentColor"/>
<path d="M14.1755 10.8335L15.4246 9.72145C16.1116 9.10978 16.7165 8.60938 16.7687 8.60938C16.9135 8.60938 17.3465 9.64591 17.6188 10.6441C17.9325 11.7946 17.9545 13.4913 17.6684 14.4655C17.3976 15.3877 16.8126 16.6259 16.3738 17.2054L16.0022 17.6963L13.2373 17.6644C10.4956 17.6329 10.4721 17.6305 10.44 17.3747C10.4138 17.1681 10.4769 17.0998 10.757 17.0314C11.6729 16.8074 12.8404 15.832 13.3351 14.8775C13.7293 14.117 13.9074 13.4137 14.0476 12.065L14.1755 10.8335Z" fill="currentColor"/>
<path d="M4.94226 14.3538C4.47893 13.0069 4.57998 11.0519 5.18078 9.7369C5.25652 9.57113 5.35452 9.43555 5.39842 9.43555C5.44246 9.43555 5.47843 10.7517 5.47843 12.3602C5.47843 13.9687 5.41945 15.2545 5.34721 15.2174C5.27512 15.1803 5.09284 14.7917 4.94226 14.3538Z" fill="currentColor"/>
</svg>
