<svg width="22" height="22" viewBox="0 0 22 22" fill="none" xmlns="http://www.w3.org/2000/svg">
<path d="M1 3.72437C1.00072 3.63533 1.27603 3.44581 1.64348 3.28149C2.74213 2.79024 2.98016 2.8598 4.63128 4.15506C5.18518 4.58957 5.85008 5.08803 6.10871 5.26272C7.85011 6.43867 11.4251 8.89664 12.9417 9.96078C13.9327 10.6561 15.2068 11.5217 15.773 11.8845C16.3393 12.2473 17.1836 12.8253 17.6493 13.1691C18.115 13.5129 18.6522 13.8612 18.8432 13.9433C19.0341 14.0253 19.4344 14.2909 19.7326 14.5333L20.2751 14.9742L20.2075 15.4985C20.0496 16.7221 18.9432 19.6017 18.577 19.7418C18.507 19.7686 17.8382 19.7671 17.0906 19.7386L15.7311 19.6868L13.59 17.3451C12.4124 16.0572 10.1748 13.6434 8.61755 11.9812C7.06033 10.3191 5.0916 8.19882 4.24272 7.26967C3.39374 6.34051 2.31651 5.19772 1.84898 4.73018C1.38135 4.26253 0.99928 3.80991 1 3.72437Z" fill="currentColor"/>
<path d="M14.631 3.31575C15.1817 3.18135 15.718 3.05081 15.8229 3.02565C16.1952 2.93659 16.6878 3.08174 17.1798 3.4253C17.6991 3.78793 17.8662 4.11566 17.7019 4.44938C17.5508 4.75622 17.3009 6.06318 17.3009 6.54641C17.3009 6.92171 17.2669 7.0058 17.0956 7.05348C16.9827 7.08492 16.7945 7.24667 16.6583 7.16968C16.1748 6.89622 12.682 4.08354 12.735 3.99235C12.7646 3.94133 13.0807 3.65352 13.2755 3.62046C13.4703 3.58729 14.0803 3.45025 14.631 3.31575Z" fill="currentColor"/>
<path d="M1.00058 18.5744C0.970653 18.5279 2.10821 16.6214 2.68926 15.7441C2.75253 15.6485 2.86308 15.5703 2.9349 15.5703C3.00672 15.5703 4.29782 16.3261 5.80402 17.2498L8.54244 18.9294L7.96627 19.1021C7.64942 19.1972 7.3035 19.2753 7.19772 19.2758C7.09194 19.2764 6.59724 19.3657 6.09839 19.4741C5.54995 19.5935 4.78079 19.6891 4.15259 19.716L3.11372 19.7606L2.07608 19.1969C1.50541 18.8869 1.02147 18.6067 1.00058 18.5744Z" fill="currentColor"/>
</svg>
