<svg width="22" height="22" viewBox="0 0 22 22" fill="none" xmlns="http://www.w3.org/2000/svg">
<path fill-rule="evenodd" clip-rule="evenodd" d="M2.02807 4.02807C2.01263 4.04348 2 5.63165 2 7.5573V11.0585L2.12008 11.2226C2.51972 11.7689 7.74845 18.2566 7.82287 18.2985C7.89147 18.3372 8.59942 18.35 10.7231 18.3511C13.3732 18.3525 13.5326 18.3484 13.5326 18.2788C13.5326 18.185 2.18705 4 2.11196 4C2.08123 4 2.04348 4.01263 2.02807 4.02807ZM15.5978 8.65824C13.4032 11.4025 11.8744 13.3493 11.8728 13.402L11.8701 13.4912L14.648 13.5013C16.8183 13.5092 17.4488 13.4997 17.5306 13.4582C17.6553 13.3949 19.3667 11.2781 19.4509 11.0829C19.4992 10.9711 19.5093 10.3548 19.5093 7.54034C19.5093 5.66638 19.4979 4.1032 19.4838 4.06659C19.4697 4.02997 19.4271 4.00088 19.3891 4.00194C19.349 4.00303 17.7572 5.95797 15.5978 8.65824Z" fill="currentColor"/>
</svg>
