<svg width="22" height="22" viewBox="0 0 22 22" fill="none" xmlns="http://www.w3.org/2000/svg">
<g clip-path="url(#clip0_311_2513)">
<path d="M5.86684 0.791023C5.9333 0.508713 6.0279 0.19996 6.0771 0.105032C6.19829 -0.128959 6.40644 0.0461534 6.48787 0.450691C6.62117 1.11242 6.62556 1.11423 6.94651 0.635125C7.13827 0.348915 7.33183 0.170949 7.47315 0.150974C7.66776 0.123485 7.68778 0.148025 7.62809 0.34121C7.52502 0.67517 6.91667 2.10365 6.19705 3.70192C4.89225 6.5996 4.36723 8.43271 4.27561 10.4106C4.19045 12.2502 4.45286 12.909 5.37177 13.1621C5.98002 13.3296 6.11962 13.2295 6.25168 12.5313C6.31605 12.1908 6.34484 11.6807 6.31557 11.3978C6.27008 10.958 6.28554 10.8836 6.42228 10.8856C6.82171 10.8912 7.36015 11.0827 7.51577 11.2744C7.61513 11.3967 7.72002 11.4484 7.76665 11.3979C7.81079 11.3504 8.16788 10.9238 8.56007 10.45L9.27331 9.58861L8.93891 8.92809L8.6046 8.26759L8.66095 6.0949C8.70901 4.24238 8.742 3.88483 8.88513 3.66939L9.05295 3.41656L9.61668 5.15637C10.1404 6.77224 10.1695 6.90826 10.0262 7.06625C9.82998 7.28245 9.82779 7.6868 10.0217 7.88036C10.2396 8.09771 10.8767 8.07383 11.1115 7.83956C11.3528 7.59891 11.3516 7.45233 11.1059 7.14072L10.9097 6.8918L11.5002 5.17796C11.8249 4.23534 12.1226 3.46412 12.1615 3.46412C12.2005 3.46412 12.2913 3.53489 12.3633 3.62126C12.4644 3.74272 12.5015 4.31705 12.5266 6.14874L12.5591 8.51908L12.7778 8.22326L12.9965 7.92745L13.2447 8.62067C14.0331 10.8234 14.4232 12.0276 14.3237 11.9511C13.8823 11.6115 11.9006 10.1453 11.8114 10.0924C11.7412 10.0507 11.538 10.308 11.2558 10.796C10.8308 11.531 10.803 11.5584 10.6344 11.4061C10.4671 11.2552 10.4499 11.2621 10.3079 11.536C10.2254 11.695 10.158 11.9915 10.158 12.1949C10.158 12.4892 9.99208 12.8424 9.3452 13.9253C8.89819 14.6737 8.54424 15.2936 8.55854 15.3028C9.39259 15.8417 10.4005 16.4319 10.4864 16.4319C10.6043 16.4319 12.4465 15.2719 12.4465 15.1976C12.4465 15.1748 12.3667 14.9973 12.2693 14.8032C11.9693 14.2057 11.9432 13.9536 12.159 13.7383C12.426 13.4719 12.5418 13.4988 12.5418 13.8275C12.5418 14.4195 12.9955 14.8752 13.3297 14.6188C13.3945 14.5691 13.9626 14.1298 14.5919 13.6426C15.2212 13.1554 16.5676 12.2061 17.5839 11.5328C19.4606 10.2895 20.5058 9.47968 21.3583 8.60849C21.6186 8.34254 21.8653 8.12491 21.9066 8.12491C22.1375 8.12491 21.9061 9.82517 21.5852 10.4864C21.1911 11.2985 19.2047 13.1932 17.0669 14.7961C16.3077 15.3653 16.1502 15.4477 15.9872 15.3607C15.6169 15.163 15.1227 15.2378 14.8229 15.5368C14.3833 15.9753 14.4715 16.4134 15.0587 16.7091L15.3348 16.8481L15.1302 17.0521C14.8491 17.3326 14.5402 17.3079 14.1151 16.9709C13.9172 16.814 13.6715 16.6856 13.5693 16.6856C13.3286 16.6856 12.3511 17.6831 12.3511 17.9287C12.3511 18.0526 12.5037 18.2056 12.7972 18.3763C13.0425 18.5189 13.4609 18.8539 13.7268 19.1209C14.1576 19.5532 14.2666 19.6126 14.724 19.6648C15.0065 19.6971 15.2578 19.7437 15.2827 19.7684C15.3075 19.7933 15.2433 19.9337 15.14 20.0805C15.0366 20.2275 14.8997 20.5088 14.8356 20.7058C14.7715 20.9028 14.6125 21.1382 14.4821 21.229C14.3519 21.3197 14.0583 21.5303 13.8298 21.697L13.4144 22L13.3118 21.7066C13.2554 21.5451 13.2093 21.3424 13.2093 21.256C13.2093 21.1603 12.9374 20.9446 12.5148 20.7047C12.1329 20.4879 11.5268 20.0916 11.168 19.8241C10.8092 19.5565 10.457 19.3601 10.3853 19.3875C10.3137 19.4149 9.70049 19.8015 9.02272 20.2466C7.95372 20.9486 7.78161 21.0971 7.72335 21.3676C7.68645 21.539 7.61446 21.7588 7.56335 21.8559C7.47658 22.0209 7.45083 22.0142 7.16945 21.752C7.00383 21.5978 6.73188 21.3785 6.5652 21.2646C6.19151 21.0095 5.90442 20.5572 5.81688 20.086C5.75157 19.7349 5.75518 19.7293 6.05344 19.7293C6.46031 19.7293 6.66933 19.6089 7.35444 18.9794C7.67425 18.6856 8.10219 18.3129 8.30538 18.1512L8.67487 17.8573L8.18229 17.3427C7.78763 16.9306 7.66576 16.8519 7.56983 16.9471C7.38599 17.1296 7.23858 17.0922 6.871 16.7703L6.53335 16.4745L6.30098 16.9986C5.86827 17.9746 5.66145 18.7278 5.6071 19.5256C5.56066 20.2065 5.51051 20.3838 5.25706 20.7612C4.9034 21.288 4.73853 21.3376 4.37629 21.0258L4.1031 20.7907L4.11445 19.6655C4.12399 18.721 4.3124 17.1783 4.49157 16.5778C4.52666 16.4601 4.45048 16.4062 4.17749 16.3556C3.97925 16.3188 3.6025 16.2125 3.34028 16.1193C2.8004 15.9274 1.08138 14.8716 1.02265 14.6958C1.00138 14.6323 1.07738 14.5561 1.19142 14.5263C1.38193 14.4766 1.36143 14.4392 0.939212 14.0652C0.549602 13.7199 0.495634 13.6317 0.584597 13.4847C0.642286 13.3894 0.84577 13.2746 1.03666 13.2296L1.38365 13.1477L0.700068 12.5089C-0.0258498 11.8306 -0.11586 11.5492 0.393036 11.5492C0.637997 11.5492 0.641049 11.5424 0.490106 11.3352C0.404289 11.2174 0.241615 10.9418 0.128431 10.7224C-0.121106 10.2389 -0.01059 10.0273 0.491346 10.0273C0.66851 10.0273 0.813445 10.0073 0.813445 9.98297C0.813445 9.95862 0.660213 9.66071 0.473036 9.32093C0.255442 8.926 0.143593 8.60735 0.16314 8.43775C0.189744 8.20643 0.239423 8.16867 0.551226 8.14298C0.747938 8.12672 0.908798 8.0998 0.908798 8.08306C0.908798 8.06641 0.798855 7.8133 0.664504 7.52053C0.366337 6.87087 0.370341 6.28571 0.673181 6.24243C0.779499 6.2273 1.11581 6.34021 1.42047 6.49354C1.85403 6.71165 1.9632 6.73837 1.92287 6.61634C1.50694 5.35707 1.36124 4.4153 1.58256 4.4153C1.73235 4.4153 2.0555 4.59774 2.44559 4.90269L2.79058 5.17225L2.83968 4.24685C2.91244 2.87582 3.04517 2.70594 3.55874 3.32744L3.8388 3.66625L3.90639 3.06995C3.98391 2.38663 4.18186 1.84712 4.35522 1.84712C4.42063 1.84712 4.58864 1.9566 4.72862 2.09033L4.98311 2.33355L5.0469 1.77131C5.0819 1.46208 5.17305 1.12783 5.24934 1.02872C5.38388 0.853706 5.39323 0.855038 5.56706 1.07637L5.74603 1.30437L5.86684 0.791023Z" fill="currentColor"/>
<path d="M13.8113 0.932271C13.8813 0.760894 14.0147 0.460518 14.1075 0.264734C14.3268 -0.197671 14.4759 -0.0673212 14.6725 0.758506C14.8139 1.35198 14.8398 1.38688 15.0235 1.22953C15.4308 0.880546 15.7255 1.29257 15.7255 2.21125V2.58132L15.9726 2.35407C16.1085 2.22902 16.3047 2.12671 16.4084 2.12671C16.61 2.12671 16.5778 2.18269 15.3794 3.9138L14.8252 4.71429L14.3192 3.63596C14.0409 3.04279 13.5343 2.05733 13.1935 1.44598C12.8527 0.834534 12.5737 0.29797 12.5737 0.253516C12.5737 0.209062 12.6834 0.197326 12.8176 0.227342C13.115 0.294023 13.6611 0.831211 13.6743 1.0701C13.6795 1.16565 13.7412 1.10364 13.8113 0.932271Z" fill="currentColor"/>
<path d="M12.576 7.06232C13.475 5.78535 13.9587 5.10328 14.0888 4.92913C14.2388 4.72856 14.332 4.71289 15.3764 4.71289C15.9956 4.71289 16.5023 4.73125 16.5023 4.75374C16.5023 4.77623 16.0071 5.08617 15.402 5.44244C14.797 5.79871 13.8992 6.32941 13.4069 6.62167C12.9148 6.91403 12.5408 7.1123 12.576 7.06232Z" fill="currentColor"/>
</g>
<defs>
<clipPath id="clip0_311_2513">
<rect width="22" height="22" fill="white"/>
</clipPath>
</defs>
</svg>
