<svg width="18" height="18" viewBox="0 0 18 18" fill="none" xmlns="http://www.w3.org/2000/svg">
<path d="M2 7.1862V11.4611C2 13.0318 2 13.0318 3.48177 14.032L7.55664 16.388C8.17158 16.7436 9.17177 16.7436 9.7793 16.388L13.8542 14.032C15.3359 13.0318 15.3359 13.0318 15.3359 11.4685V7.1862C15.3359 5.62293 15.3359 5.62293 13.8542 4.62273L9.7793 2.26672C9.17177 1.91109 8.17158 1.91109 7.55664 2.26672L3.48177 4.62273C2 5.62293 2 5.62293 2 7.1862Z" stroke="white" stroke-width="1.2" stroke-linecap="round" stroke-linejoin="round"/>
<path d="M8.66797 11.5498C9.89551 11.5498 10.8906 10.5547 10.8906 9.32715C10.8906 8.09961 9.89551 7.10449 8.66797 7.10449C7.44043 7.10449 6.44531 8.09961 6.44531 9.32715C6.44531 10.5547 7.44043 11.5498 8.66797 11.5498Z" stroke="white" stroke-width="1.2" stroke-linecap="round" stroke-linejoin="round"/>
</svg>
