<svg width="16" height="16" viewBox="0 0 16 16" fill="none" xmlns="http://www.w3.org/2000/svg">
<path d="M4.5 3.25C5.54375 2.46875 6.84375 2 8.25 2C11.7 2 14.5 4.8 14.5 8.25C14.5 11.7 11.7 14.5 8.25 14.5C4.8 14.5 2 11.7 2 8.25C2 7.11875 2.29999 6.05624 2.83124 5.13749L8.25 8.25" stroke="currentColor" stroke-miterlimit="10" stroke-linecap="round" stroke-linejoin="round"/>
<path d="M5.01874 6.34999C4.68749 6.90624 4.5 7.55625 4.5 8.25C4.5 10.3187 6.18125 12 8.25 12C10.3187 12 12 10.3187 12 8.25C12 6.18125 10.3187 4.5 8.25 4.5C7.68125 4.5 7.13751 4.625 6.65626 4.85625" stroke="currentColor" stroke-miterlimit="10" stroke-linecap="round" stroke-linejoin="round"/>
</svg>
