<svg width="46" height="46" viewBox="0 0 46 46" fill="none" xmlns="http://www.w3.org/2000/svg">
<circle cx="23.0054" cy="22.8325" r="20.604" fill="#212121"/>
<path d="M45 23.0025C45.5523 23.0025 46.0023 23.4505 45.9783 24.0022C45.8039 28.0093 44.5841 31.9076 42.4322 35.306C40.1017 38.9866 36.7738 41.9295 32.8359 43.7923C28.8979 45.6551 24.5119 46.3612 20.1883 45.8283C16.196 45.3363 12.4086 43.8066 9.20015 41.3997C8.75837 41.0683 8.69745 40.4362 9.04777 40.0093L15.0502 32.6935C15.4005 32.2666 16.0284 32.2084 16.4841 32.5205C18.0032 33.5607 19.7536 34.225 21.5904 34.4514C23.759 34.7186 25.959 34.3645 27.9342 33.4302C29.9093 32.4958 31.5785 31.0197 32.7475 29.1737C33.7376 27.61 34.3343 25.8354 34.4937 24.0012C34.5415 23.451 34.9847 23.0025 35.537 23.0025L45 23.0025Z" fill="#AE7CFF"/>
<path d="M45.9971 22.9986C45.9971 35.7003 35.7003 45.9971 22.9986 45.9971C10.2968 45.9971 0 35.7003 0 22.9986C0 10.2968 10.2968 0 22.9986 0C35.7003 0 45.9971 10.2968 45.9971 22.9986ZM2.35174 22.9986C2.35174 34.4015 11.5956 43.6454 22.9986 43.6454C34.4015 43.6454 43.6454 34.4015 43.6454 22.9986C43.6454 11.5956 34.4015 2.35174 22.9986 2.35174C11.5956 2.35174 2.35174 11.5956 2.35174 22.9986Z" fill="#515151"/>
<path d="M23.4688 30.2187C22.2396 30.2187 21.1484 30.0026 20.1953 29.5703C19.2474 29.1328 18.5 28.5312 17.9531 27.7656C17.4115 27 17.1354 26.1198 17.125 25.125H21.3438C21.3594 25.6771 21.5729 26.1172 21.9844 26.4453C22.401 26.7734 22.8958 26.9375 23.4688 26.9375C23.9115 26.9375 24.3021 26.8437 24.6406 26.6562C24.9792 26.4635 25.2448 26.1927 25.4375 25.8438C25.6302 25.4948 25.724 25.0885 25.7188 24.625C25.724 24.1562 25.6302 23.75 25.4375 23.4063C25.2448 23.0573 24.9792 22.7891 24.6406 22.6016C24.3021 22.4089 23.9115 22.3125 23.4688 22.3125C23.0104 22.3125 22.5859 22.4245 22.1953 22.6484C21.8099 22.8672 21.526 23.1719 21.3438 23.5625L17.5313 22.8125L18.1563 14H28.9063V17.4687H21.7188L21.4063 21H21.5C21.75 20.5156 22.1823 20.1146 22.7969 19.7969C23.4115 19.474 24.125 19.3125 24.9375 19.3125C25.8906 19.3125 26.7396 19.5339 27.4844 19.9766C28.2344 20.4193 28.8255 21.0312 29.2578 21.8125C29.6953 22.5885 29.9115 23.4844 29.9063 24.5C29.9115 25.6146 29.6458 26.6042 29.1094 27.4687C28.5781 28.3281 27.8307 29.0026 26.8672 29.4922C25.9036 29.9766 24.7708 30.2187 23.4688 30.2187Z" fill="white"/>
</svg>
