<svg width="64" height="64" viewBox="0 0 64 64" fill="none" xmlns="http://www.w3.org/2000/svg">
<path d="M56.5184 9C59.1815 9 60.798 11.9125 59.3731 14.1435C51.1015 27.0942 42.8299 40.045 34.5583 52.9958C33.2209 55.0899 30.133 55.0689 28.8245 52.9569L23.9104 45.025C26.8996 40.3343 32.7671 31.0153 32.8778 30.9578C32.9645 30.9144 31.6192 28.3519 30.4176 26.1035C29.6138 24.5994 30.722 22.7819 32.4385 22.7938C35.1142 22.8124 38.2255 22.8206 38.3025 22.7596C38.4381 22.652 46.8823 9 46.8823 9H56.5184Z" fill="white"/>
<path d="M5.48448 14.1168C4.14439 11.9106 5.74245 9.14241 8.33969 9.13333C21.561 9.08711 25.0328 9.04549 41.2456 9.00005C39.1458 12.5354 35.9971 18.1687 35.2561 19.4978C35.1568 19.6758 34.9685 19.7853 34.7633 19.7853H26.6796C25.0069 19.7853 23.9176 21.5292 24.6627 23.0142L28.3183 30.2996C28.4032 30.4687 28.3961 30.6687 28.2996 30.8315L22.0587 41.3559C20.2129 38.1915 10.6404 22.6049 5.48448 14.1168Z" fill="#7D5AB5"/>
</svg>
