<svg width="16" height="16" viewBox="0 0 16 16" fill="none" xmlns="http://www.w3.org/2000/svg">
<path d="M6.20703 9.46745L7.20703 10.4674L9.8737 7.80078" stroke="currentColor" stroke-linecap="round" stroke-linejoin="round"/>
<path d="M6.66634 3.66667H9.33301C10.6663 3.66667 10.6663 3 10.6663 2.33333C10.6663 1 9.99967 1 9.33301 1H6.66634C5.99967 1 5.33301 1 5.33301 2.33333C5.33301 3.66667 5.99967 3.66667 6.66634 3.66667Z" stroke="currentColor" stroke-miterlimit="10" stroke-linecap="round" stroke-linejoin="round"/>
<path d="M10.6667 2.34668C12.8867 2.46668 14 3.28668 14 6.33335V10.3333C14 13 13.3333 14.3333 10 14.3333H6C2.66667 14.3333 2 13 2 10.3333V6.33335C2 3.29335 3.11333 2.46668 5.33333 2.34668" stroke="currentColor" stroke-miterlimit="10" stroke-linecap="round" stroke-linejoin="round"/>
</svg>
