<svg width="16" height="16" viewBox="0 0 16 16" fill="none" xmlns="http://www.w3.org/2000/svg">
<path d="M14 4.33333V11C14 13 13 14.3333 10.6667 14.3333H5.33333C3 14.3333 2 13 2 11V4.33333C2 2.33333 3 1 5.33333 1H10.6667C13 1 14 2.33333 14 4.33333Z" stroke="currentColor" stroke-miterlimit="10" stroke-linecap="round" stroke-linejoin="round"/>
<path d="M10.3337 1V6.23999C10.3337 6.53332 9.98697 6.67999 9.77364 6.48665L8.22701 5.06002C8.10034 4.94002 7.90031 4.94002 7.77364 5.06002L6.22701 6.48665C6.01368 6.67999 5.66699 6.53332 5.66699 6.23999V1H10.3337Z" stroke="currentColor" stroke-miterlimit="10" stroke-linecap="round" stroke-linejoin="round"/>
<path d="M8.83301 9H11.6663" stroke="currentColor" stroke-miterlimit="10" stroke-linecap="round" stroke-linejoin="round"/>
<path d="M6 11.667H11.6667" stroke="currentColor" stroke-miterlimit="10" stroke-linecap="round" stroke-linejoin="round"/>
</svg>
