<svg width="16" height="16" viewBox="0 0 16 16" fill="none" xmlns="http://www.w3.org/2000/svg">
<path d="M12.7843 5.43182C11.5629 5.43182 10.5684 4.43791 10.5684 3.21591C10.5684 1.99391 11.5629 1 12.7843 1C14.0057 1 15.0002 1.99391 15.0002 3.21591C15.0002 4.43791 14.0057 5.43182 12.7843 5.43182ZM12.7843 1.88636C12.0515 1.88636 11.4547 2.48254 11.4547 3.21591C11.4547 3.94928 12.0515 4.54545 12.7843 4.54545C13.517 4.54545 14.1138 3.94928 14.1138 3.21591C14.1138 2.48254 13.517 1.88636 12.7843 1.88636Z" fill="white"/>
<path d="M12.7843 15.1818C11.5629 15.1818 10.5684 14.1879 10.5684 12.9659C10.5684 11.7439 11.5629 10.75 12.7843 10.75C14.0057 10.75 15.0002 11.7439 15.0002 12.9659C15.0002 14.1879 14.0057 15.1818 12.7843 15.1818ZM12.7843 11.6364C12.0515 11.6364 11.4547 12.2325 11.4547 12.9659C11.4547 13.6993 12.0515 14.2955 12.7843 14.2955C13.517 14.2955 14.1138 13.6993 14.1138 12.9659C14.1138 12.2325 13.517 11.6364 12.7843 11.6364Z" fill="white"/>
<path d="M4.21591 10.3068C2.99445 10.3068 2 9.31291 2 8.09091C2 6.86891 2.99445 5.875 4.21591 5.875C5.43736 5.875 6.43182 6.86891 6.43182 8.09091C6.43182 9.31291 5.43736 10.3068 4.21591 10.3068ZM4.21591 6.76136C3.48319 6.76136 2.88636 7.35754 2.88636 8.09091C2.88636 8.82428 3.48319 9.42045 4.21591 9.42045C4.94863 9.42045 5.54545 8.82428 5.54545 8.09091C5.54545 7.35754 4.94863 6.76136 4.21591 6.76136Z" fill="white"/>
<path d="M5.75899 7.65914C5.6047 7.65914 5.45463 7.57875 5.3737 7.43582C5.25252 7.2231 5.32641 6.95239 5.53913 6.83131L11.0222 3.70535C11.2343 3.58308 11.5055 3.65752 11.6261 3.87089C11.7472 4.08361 11.6733 4.35421 11.4606 4.4754L5.97755 7.60126C5.90841 7.64021 5.83343 7.65914 5.75899 7.65914V7.65914Z" fill="white"/>
<path d="M11.2408 12.5344C11.1664 12.5344 11.0913 12.5155 11.0222 12.476L5.53909 9.35005C5.32637 9.22898 5.25258 8.95826 5.37365 8.74554C5.49418 8.53229 5.7649 8.45839 5.97761 8.58011L11.4606 11.706C11.6733 11.8271 11.7472 12.0977 11.6261 12.3105C11.5445 12.454 11.3945 12.5344 11.2408 12.5344Z" fill="white"/>
</svg>
