<svg width="26" height="26" viewBox="0 0 26 26" fill="none" xmlns="http://www.w3.org/2000/svg">
<path d="M24.9996 13.6586C24.9482 12.2305 23.7805 11.1152 22.3856 11.1637C21.7674 11.1858 21.1796 11.4459 20.7333 11.8821C18.7674 10.5068 16.4581 9.75292 14.0844 9.70011L15.2045 4.16805L18.9002 4.96606C19.003 5.94022 19.853 6.64562 20.8016 6.53961C21.7502 6.434 22.4371 5.56112 22.3338 4.58696C22.2306 3.6128 21.381 2.9074 20.4324 3.01341C19.8872 3.07055 19.3979 3.39684 19.1278 3.88195L14.8956 3.01341C14.6082 2.9472 14.3204 3.13242 14.2559 3.43231C14.2559 3.43664 14.2559 3.43664 14.2559 3.44098L12.9812 9.5945C10.5775 9.6343 8.23826 10.3925 6.2467 11.7765C5.23365 10.798 3.63695 10.8465 2.68414 11.8912C1.73134 12.9315 1.77854 14.5713 2.79581 15.5498C2.99343 15.7393 3.2206 15.9025 3.47386 16.0172C3.45659 16.2773 3.45659 16.5374 3.47386 16.7974C3.47386 20.769 7.98078 24 13.5391 24C19.0974 24 23.6044 20.7733 23.6044 16.7974C23.6216 16.5374 23.6216 16.2773 23.6044 16.0172C24.4716 15.5719 25.0169 14.6548 24.9996 13.6586ZM7.73173 15.4351C7.73173 14.4566 8.50879 13.6586 9.46159 13.6586C10.4144 13.6586 11.1914 14.4566 11.1914 15.4351C11.1914 16.4136 10.4144 17.2116 9.46159 17.2116C8.50457 17.2026 7.73173 16.4136 7.73173 15.4351ZM17.7628 20.3808V20.3103C16.5353 21.258 15.033 21.7427 13.4961 21.6769C11.9593 21.7431 10.4574 21.258 9.22943 20.3103C9.06635 20.1073 9.09628 19.8035 9.2939 19.636C9.46543 19.4906 9.71025 19.4906 9.88638 19.636C10.9251 20.4163 12.1914 20.8131 13.4789 20.7512C14.7667 20.8218 16.0372 20.4427 17.0886 19.6715C17.2774 19.4819 17.5863 19.4862 17.7713 19.6801C17.9558 19.874 17.9516 20.1912 17.7628 20.3808ZM17.5268 17.3393C17.4969 17.3393 17.4712 17.3393 17.4409 17.3393L17.4539 17.2731C16.5011 17.2731 15.7241 16.4751 15.7241 15.4966C15.7241 14.5181 16.5011 13.7201 17.4539 13.7201C18.4067 13.7201 19.1838 14.5181 19.1838 15.4966C19.2222 16.4755 18.4796 17.2995 17.5268 17.3393Z" fill="currentColor"/>
</svg>
