<svg width="26" height="26" viewBox="0 0 26 26" fill="none" xmlns="http://www.w3.org/2000/svg">
<path fill-rule="evenodd" clip-rule="evenodd" d="M24.4493 6.94795C24.6163 6.40158 24.4493 6 23.6553 6H21.0297C20.362 6 20.0544 6.34687 19.8875 6.72947C19.8875 6.72947 18.5522 9.92608 16.6607 12.0025C16.0487 12.6036 15.7706 12.7946 15.4367 12.7946C15.2698 12.7946 15.0283 12.6036 15.0283 12.0572V6.94795C15.0283 6.29216 14.8345 6 14.2781 6H10.1521C9.73504 6 9.48411 6.30432 9.48411 6.59279C9.48411 7.2145 10.4297 7.35782 10.5272 9.10634V12.9042C10.5272 13.7368 10.3742 13.8879 10.0404 13.8879C9.15028 13.8879 6.98527 10.6767 5.70097 7.00266C5.44929 6.28847 5.19685 6 4.52582 6H1.90021C1.15003 6 1 6.34687 1 6.72947C1 7.41253 1.89027 10.8005 5.14472 15.2813C7.3146 18.341 10.3712 20 13.1528 20C14.822 20 15.0283 19.6316 15.0283 18.997V16.6842C15.0283 15.9474 15.1864 15.8004 15.7147 15.8004C16.1044 15.8004 16.7719 15.9916 18.3298 17.4669C20.11 19.2153 20.4033 20 21.4048 20H24.0304C24.7806 20 25.1556 19.6316 24.9392 18.9045C24.7025 18.1798 23.8526 17.1287 22.7247 15.8823C22.1127 15.1718 21.1947 14.4068 20.9168 14.0244C20.5272 13.5326 20.6385 13.3141 20.9168 12.8771C20.9168 12.8771 24.1155 8.45092 24.4493 6.94813V6.94795Z" fill="currentColor"/>
</svg>
