<svg width="26" height="26" viewBox="0 0 26 26" fill="none" xmlns="http://www.w3.org/2000/svg">
<path d="M20.6339 6.70502C20.486 6.62827 20.3419 6.54414 20.2023 6.45294C19.7965 6.18367 19.4243 5.86638 19.094 5.50791C18.2674 4.55875 17.9586 3.59584 17.8449 2.92166H17.8495C17.7545 2.36207 17.7938 2 17.7997 2H14.0348V16.61C14.0348 16.8062 14.0348 17 14.0266 17.1916C14.0266 17.2154 14.0243 17.2374 14.0229 17.2631C14.0229 17.2737 14.0229 17.2847 14.0206 17.2957C14.0206 17.2984 14.0206 17.3012 14.0206 17.3039C13.981 17.8281 13.8135 18.3345 13.533 18.7785C13.2526 19.2225 12.8677 19.5906 12.4122 19.8503C11.9375 20.1213 11.4006 20.2635 10.8544 20.2628C9.10032 20.2628 7.67865 18.8273 7.67865 17.0546C7.67865 15.2818 9.10032 13.8464 10.8544 13.8464C11.1865 13.8461 11.5165 13.8985 11.8322 14.0018L11.8368 10.1547C10.8784 10.0305 9.90469 10.1069 8.97718 10.3792C8.04967 10.6515 7.18847 11.1138 6.44789 11.7368C5.79897 12.3026 5.25342 12.9778 4.83579 13.7318C4.67686 14.0068 4.07723 15.1118 4.00462 16.9052C3.95895 17.9231 4.26356 18.9777 4.40878 19.4135V19.4227C4.50012 19.6793 4.85405 20.5552 5.43085 21.2935C5.89595 21.8858 6.44546 22.406 7.06167 22.8375V22.8284L7.07081 22.8375C8.89344 24.0805 10.9143 23.9989 10.9143 23.9989C11.2641 23.9847 12.4359 23.9989 13.7667 23.366C15.2427 22.6643 16.083 21.6189 16.083 21.6189C16.6199 20.9943 17.0467 20.2824 17.3453 19.5139C17.686 18.6151 17.7997 17.5372 17.7997 17.1064V9.35542C17.8454 9.38292 18.4537 9.78669 18.4537 9.78669C18.4537 9.78669 19.3301 10.3504 20.6974 10.7175C21.6784 10.9788 23 11.0338 23 11.0338V7.28294C22.5369 7.33336 21.5966 7.1867 20.6339 6.70502Z" fill="currentColor"/>
</svg>
