<svg width="26" height="26" viewBox="0 0 26 26" fill="none" xmlns="http://www.w3.org/2000/svg">
<path fill-rule="evenodd" clip-rule="evenodd" d="M3.50631 12.1945C9.41068 9.52165 13.3413 7.74557 15.315 6.88392C20.9326 4.43962 22.1135 4.01758 22.8726 4C23.0413 4 23.4125 4.03517 23.6655 4.24619C23.8679 4.42204 23.9185 4.65064 23.9523 4.82649C23.986 5.00234 24.0198 5.37162 23.986 5.65298C23.6824 8.9941 22.3665 17.1007 21.6918 20.8287C21.405 22.4113 20.8483 22.9389 20.3084 22.9916C19.1276 23.0972 18.2335 22.1827 17.1032 21.409C15.315 20.1957 14.3197 19.4395 12.5822 18.2437C10.5747 16.8721 11.8736 16.116 13.0208 14.885C13.3244 14.5685 18.5034 9.64474 18.6046 9.20512C18.6215 9.15236 18.6215 8.94134 18.5034 8.83584C18.3853 8.73033 18.2166 8.7655 18.0817 8.80067C17.8961 8.83584 15.062 10.8053 9.54563 14.6916C8.73589 15.2719 8.0105 15.5533 7.35258 15.5357C6.62719 15.5181 5.24388 15.1136 4.19797 14.7619C2.93274 14.3399 1.92057 14.1113 2.00492 13.3727C2.05552 12.9859 2.56161 12.599 3.50631 12.1945Z" fill="currentColor"/>
</svg>
