<svg width="26" height="26" viewBox="0 0 26 26" fill="none" xmlns="http://www.w3.org/2000/svg">
<path d="M22.1774 5.59125C20.5591 4.84787 18.8287 4.30762 17.0197 4C16.7975 4.39436 16.538 4.92479 16.359 5.34674C14.4359 5.0628 12.5306 5.0628 10.6429 5.34674C10.4639 4.92479 10.1985 4.39436 9.97433 4C8.16334 4.30762 6.431 4.84986 4.8127 5.59518C1.54859 10.4379 0.663738 15.1603 1.10616 19.8156C3.2711 21.4029 5.36918 22.3671 7.43185 22.998C7.94113 22.3099 8.39535 21.5784 8.78664 20.8074C8.04141 20.5294 7.32763 20.1863 6.6532 19.788C6.83213 19.6579 7.00714 19.5218 7.17623 19.3818C11.2898 21.2708 15.7593 21.2708 19.8237 19.3818C19.9948 19.5218 20.1697 19.6579 20.3467 19.788C19.6703 20.1883 18.9546 20.5313 18.2093 20.8094C18.6006 21.5784 19.0529 22.3119 19.5641 23C21.6288 22.369 23.7288 21.4049 25.8937 19.8156C26.4129 14.4189 25.0069 9.73984 22.1774 5.59125ZM9.34706 16.9526C8.11221 16.9526 7.09953 15.8208 7.09953 14.4425C7.09953 13.0643 8.09059 11.9305 9.34706 11.9305C10.6036 11.9305 11.6162 13.0623 11.5946 14.4425C11.5965 15.8208 10.6036 16.9526 9.34706 16.9526ZM17.6529 16.9526C16.418 16.9526 15.4053 15.8208 15.4053 14.4425C15.4053 13.0643 16.3963 11.9305 17.6529 11.9305C18.9093 11.9305 19.922 13.0623 19.9004 14.4425C19.9004 15.8208 18.9093 16.9526 17.6529 16.9526Z" fill="currentColor"/>
</svg>
