<svg width="26" height="26" viewBox="0 0 26 26" fill="none" xmlns="http://www.w3.org/2000/svg">
<path d="M24.5057 7.66C24.2289 6.62 23.4184 5.8 22.3904 5.52C20.5123 5 12.9999 5 12.9999 5C12.9999 5 5.48763 5 3.60954 5.5C2.60131 5.78 1.771 6.62 1.49423 7.66C1 9.56 1 13.5 1 13.5C1 13.5 1 17.46 1.49423 19.34C1.771 20.38 2.58154 21.2 3.60954 21.48C5.50739 22 12.9999 22 12.9999 22C12.9999 22 20.5123 22 22.3904 21.5C23.4184 21.22 24.2289 20.4 24.5057 19.36C24.9999 17.46 24.9999 13.52 24.9999 13.52C24.9999 13.52 25.0197 9.56 24.5057 7.66Z" fill="currentColor"/>
<path d="M10.6104 17.1404L16.8574 13.5004L10.6104 9.86035V17.1404Z" fill="#1F1F1F"/>
</svg>
