<svg width="26" height="26" viewBox="0 0 26 26" fill="none" xmlns="http://www.w3.org/2000/svg">
<path d="M10.0008 13.5C10.0008 11.5671 11.5674 9.99972 13.5004 9.99972C15.4334 9.99972 17.0008 11.5671 17.0008 13.5C17.0008 15.4329 15.4334 17.0003 13.5004 17.0003C11.5674 17.0003 10.0008 15.4329 10.0008 13.5ZM8.10858 13.5C8.10858 16.4778 10.5225 18.8916 13.5004 18.8916C16.4783 18.8916 18.8923 16.4778 18.8923 13.5C18.8923 10.5222 16.4783 8.10838 13.5004 8.10838C10.5225 8.10838 8.10858 10.5222 8.10858 13.5ZM17.8457 7.8946C17.8456 8.1438 17.9194 8.38744 18.0577 8.5947C18.1961 8.80196 18.3928 8.96354 18.623 9.059C18.8533 9.15445 19.1066 9.17951 19.351 9.13099C19.5955 9.08247 19.8201 8.96255 19.9963 8.78641C20.1726 8.61027 20.2927 8.3858 20.3415 8.14141C20.3902 7.89701 20.3653 7.64366 20.27 7.41338C20.1748 7.18311 20.0133 6.98626 19.8062 6.84773C19.599 6.70919 19.3554 6.6352 19.1062 6.6351C18.7722 6.63526 18.4513 6.76799 18.2151 7.00414C17.9788 7.24029 17.846 7.56056 17.8457 7.8946ZM9.25825 22.0467C8.2345 22.0001 7.67806 21.8296 7.30828 21.6855C6.81804 21.4947 6.46825 21.2674 6.10048 20.9001C5.73271 20.5329 5.50506 20.1835 5.31505 19.6932C5.1709 19.3236 5.00037 18.7671 4.95383 17.7433C4.90293 16.6366 4.89276 16.3041 4.89276 13.5001C4.89276 10.6961 4.90377 10.3645 4.95383 9.25682C5.00046 8.23312 5.17224 7.67762 5.31505 7.30693C5.5059 6.81671 5.73322 6.46693 6.10048 6.09918C6.46774 5.73143 6.8172 5.50379 7.30828 5.31378C7.6779 5.16964 8.2345 4.99912 9.25825 4.95258C10.3651 4.90168 10.6976 4.89151 13.5004 4.89151C16.3033 4.89151 16.6361 4.90252 17.7439 4.95258C18.7676 4.9992 19.3231 5.17098 19.6938 5.31378C20.1841 5.50379 20.5339 5.73193 20.9016 6.09918C21.2694 6.46643 21.4962 6.81671 21.6871 7.30693C21.8312 7.67653 22.0017 8.23312 22.0483 9.25682C22.0992 10.3645 22.1093 10.6961 22.1093 13.5001C22.1093 16.3041 22.0992 16.6356 22.0483 17.7433C22.0016 18.7671 21.8303 19.3235 21.6871 19.6932C21.4962 20.1835 21.2689 20.5332 20.9016 20.9001C20.5344 21.2671 20.1841 21.4947 19.6938 21.6855C19.3242 21.8297 18.7676 22.0002 17.7439 22.0467C16.637 22.0977 16.3045 22.1078 13.5004 22.1078C10.6963 22.1078 10.3647 22.0977 9.25825 22.0467ZM9.17131 3.06359C8.05347 3.11449 7.28963 3.29173 6.62256 3.55129C5.93172 3.81934 5.34689 4.17894 4.76247 4.7624C4.17806 5.34587 3.81937 5.9316 3.55131 6.62242C3.29174 7.28988 3.1145 8.05327 3.06359 9.17106C3.01184 10.2906 3 10.6485 3 13.5C3 16.3515 3.01184 16.7094 3.06359 17.8289C3.1145 18.9468 3.29174 19.7101 3.55131 20.3776C3.81937 21.068 4.17815 21.6544 4.76247 22.2376C5.3468 22.8208 5.93172 23.1799 6.62256 23.4487C7.29089 23.7083 8.05347 23.8855 9.17131 23.9364C10.2915 23.9873 10.6488 24 13.5004 24C16.352 24 16.7099 23.9882 17.8295 23.9364C18.9475 23.8855 19.7108 23.7083 20.3783 23.4487C21.0687 23.1799 21.654 22.8211 22.2384 22.2376C22.8228 21.6541 23.1807 21.068 23.4495 20.3776C23.7091 19.7101 23.8872 18.9467 23.9373 17.8289C23.9882 16.7085 24 16.3515 24 13.5C24 10.6485 23.9882 10.2906 23.9373 9.17106C23.8863 8.05319 23.7091 7.28946 23.4495 6.62242C23.1807 5.93202 22.8219 5.34679 22.2384 4.7624C21.6549 4.17802 21.0687 3.81934 20.3791 3.55129C19.7108 3.29173 18.9474 3.11365 17.8304 3.06359C16.7108 3.01268 16.3528 3 13.5013 3C10.6497 3 10.2915 3.01184 9.17131 3.06359Z" fill="currentColor"/>
</svg>
