<svg width="18" height="18" viewBox="0 0 18 18" fill="none" xmlns="http://www.w3.org/2000/svg">
<path d="M13 14.3829H9.8L6.23999 16.8587C5.71199 17.2268 5 16.8337 5 16.1645V14.3829C2.6 14.3829 1 12.7101 1 10.2008V5.18215C1 2.67286 2.6 1 5 1H13C15.4 1 17 2.67286 17 5.18215V10.2008C17 12.7101 15.4 14.3829 13 14.3829Z" stroke="#878787" stroke-width="1.2" stroke-miterlimit="10" stroke-linecap="round" stroke-linejoin="round"/>
<path d="M9.00083 8.47097V8.29535C9.00083 7.72658 9.33685 7.42545 9.67285 7.18288C10.0009 6.94868 10.3288 6.64758 10.3288 6.09553C10.3288 5.32602 9.73683 4.70703 9.00083 4.70703C8.26483 4.70703 7.67285 5.32602 7.67285 6.09553" stroke="#878787" stroke-width="1.2" stroke-linecap="round" stroke-linejoin="round"/>
<path d="M8.99601 10.467H9.00321" stroke="#878787" stroke-width="1.2" stroke-linecap="round" stroke-linejoin="round"/>
</svg>
