<svg width="24" height="36" viewBox="0 0 24 36" fill="none" xmlns="http://www.w3.org/2000/svg">
<path d="M12.2563 2C8.06642 2 4.66016 5.40626 4.66016 9.59612C4.66016 13.706 7.87452 17.0323 12.0644 17.1763C12.1923 17.1603 12.3202 17.1603 12.4162 17.1763C12.4482 17.1763 12.4642 17.1763 12.4962 17.1763C12.5121 17.1763 12.5122 17.1763 12.5281 17.1763C16.6221 17.0323 19.8364 13.706 19.8524 9.59612C19.8524 5.40626 16.4461 2 12.2563 2Z" fill="#754FE0"/>
<path d="M20.3821 21.4301C15.9204 18.4556 8.6441 18.4556 4.15039 21.4301C2.11943 22.7894 1 24.6284 1 26.5954C1 28.5624 2.11943 30.3855 4.1344 31.7288C6.37326 33.2321 9.31576 33.9837 12.2583 33.9837C15.2008 33.9837 18.1433 33.2321 20.3821 31.7288C22.3971 30.3695 23.5165 28.5465 23.5165 26.5635C23.5005 24.5965 22.3971 22.7734 20.3821 21.4301Z" fill="#754FE0"/>
</svg>
