<svg width="24" height="36" viewBox="0 0 24 36" fill="none" xmlns="http://www.w3.org/2000/svg">
<path d="M11.8973 16.1848C11.7373 16.1688 11.5454 16.1688 11.3695 16.1848C7.56347 16.0568 4.54102 12.9384 4.54102 9.10038C4.54102 5.18238 7.7074 2 11.6414 2C15.5594 2 18.7418 5.18238 18.7418 9.10038C18.7258 12.9384 15.7033 16.0568 11.8973 16.1848Z" stroke="var(--stroke-color)" fill="var(--fill-color)" stroke-width="1.5" stroke-linecap="round" stroke-linejoin="round"/>
<path d="M3.90252 22.0855C0.0324936 24.6762 0.0324936 28.898 3.90252 31.4727C8.30028 34.4152 15.5126 34.4152 19.9104 31.4727C23.7804 28.882 23.7804 24.6602 19.9104 22.0855C15.5286 19.159 8.31627 19.159 3.90252 22.0855Z" stroke="var(--stroke-color)" fill="var(--fill-color)" stroke-width="1.5" stroke-linecap="round" stroke-linejoin="round"/>
</svg>
