<svg width="25" height="25" viewBox="0 0 25 25" fill="none" xmlns="http://www.w3.org/2000/svg">
<path d="M22.9775 5.46072V17.5307C22.9775 18.4907 22.1975 19.3907 21.2375 19.5107L20.9075 19.5507C18.7275 19.8407 15.3675 20.9507 13.4475 22.0107C13.1875 22.1607 12.7575 22.1607 12.4875 22.0107L12.4475 21.9907C10.5275 20.9407 7.17757 19.8407 5.00757 19.5507L4.71753 19.5107C3.75753 19.3907 2.97754 18.4907 2.97754 17.5307V5.45071C2.97754 4.26071 3.94751 3.36072 5.13751 3.46072C7.23751 3.63072 10.4175 4.69074 12.1975 5.80074L12.4475 5.95071C12.7375 6.13071 13.2176 6.13071 13.5076 5.95071L13.6776 5.84072C14.3076 5.45072 15.1075 5.06072 15.9775 4.71072V8.79073L17.9775 7.46072L19.9775 8.79073V3.57076C20.2475 3.52076 20.5076 3.49073 20.7476 3.47073H20.8076C21.9976 3.37073 22.9775 4.26072 22.9775 5.46072Z" stroke="#BCBCBC" stroke-width="1.5" stroke-linecap="round" stroke-linejoin="round"/>
<path d="M12.9775 6.28027V21.2803" stroke="#BCBCBC" stroke-width="1.5" stroke-linecap="round" stroke-linejoin="round"/>
<path d="M19.9775 3.57031V8.79028L17.9775 7.46027L15.9775 8.79028V4.71027C17.2875 4.19027 18.7475 3.77031 19.9775 3.57031Z" stroke="#BCBCBC" stroke-width="1.5" stroke-linecap="round" stroke-linejoin="round"/>
</svg>
