<svg width="38" height="37" viewBox="0 0 38 37" fill="none" xmlns="http://www.w3.org/2000/svg">
<path d="M25.4568 3.08105H12.546C6.93798 3.08105 3.59473 6.4243 3.59473 12.0323V24.9277C3.59473 30.5512 6.93798 33.8944 12.546 33.8944H25.4414C31.0494 33.8944 34.3927 30.5512 34.3927 24.9431V12.0323C34.4081 6.4243 31.0648 3.08105 25.4568 3.08105Z" fill="#7D5AB5"/>
<path d="M19.0013 22.9713C18.7086 22.9713 18.4159 22.8634 18.1848 22.6323L12.7462 17.1938C12.2994 16.747 12.2994 16.0075 12.7462 15.5607C13.193 15.1139 13.9325 15.1139 14.3793 15.5607L19.0013 20.1827L23.6233 15.5607C24.0701 15.1139 24.8097 15.1139 25.2564 15.5607C25.7032 16.0075 25.7032 16.747 25.2564 17.1938L19.8179 22.6323C19.5868 22.8634 19.2941 22.9713 19.0013 22.9713Z" fill="white"/>
</svg>
