<svg width="28" height="28" viewBox="0 0 28 28" fill="none" xmlns="http://www.w3.org/2000/svg">
<path d="M26.6 0H5.6C4.85739 0 4.1452 0.294999 3.6201 0.820101C3.095 1.3452 2.8 2.05739 2.8 2.8V7H0V9.8H2.8V12.6H0V15.4H2.8V18.2H0V21H2.8V25.2C2.8 25.9426 3.095 26.6548 3.6201 27.1799C4.1452 27.705 4.85739 28 5.6 28H26.6C26.9713 28 27.3274 27.8525 27.59 27.59C27.8525 27.3274 28 26.9713 28 26.6V1.4C28 1.0287 27.8525 0.672601 27.59 0.41005C27.3274 0.1475 26.9713 0 26.6 0ZM15.4 4.1986C17.7072 4.1986 19.6 6.09 19.6 8.3986C19.5959 9.51139 19.1522 10.5775 18.3655 11.3645C17.5787 12.1515 16.5128 12.5956 15.4 12.6C13.0942 12.6 11.2 10.7058 11.2 8.3986C11.2 6.09 13.0942 4.1986 15.4 4.1986ZM23.8 22.4H7V21.35C7 18.2434 10.787 15.05 15.4 15.05C20.013 15.05 23.8 18.2434 23.8 21.35V22.4Z" fill="white"/>
</svg>
