<svg width="28" height="27" viewBox="0 0 28 27" fill="none" xmlns="http://www.w3.org/2000/svg">
<path d="M7.75589 10.5299C3.24772 10.8503 3.25877 17.3805 7.75589 17.7009H18.4296C19.7224 17.712 20.971 17.2258 21.9323 16.3529C25.0925 13.5906 23.4019 8.06581 19.2363 7.53544C17.7446 -1.45879 4.71731 1.9555 7.80009 10.5299" stroke="#BCBCBC" stroke-width="1.5" stroke-miterlimit="10" stroke-linecap="round" stroke-linejoin="round"/>
<path d="M13.9766 17.7012V21.016" stroke="#BCBCBC" stroke-width="1.5" stroke-miterlimit="10" stroke-linecap="round" stroke-linejoin="round"/>
<path d="M13.9755 25.4364C15.196 25.4364 16.1854 24.447 16.1854 23.2265C16.1854 22.006 15.196 21.0166 13.9755 21.0166C12.755 21.0166 11.7656 22.006 11.7656 23.2265C11.7656 24.447 12.755 25.4364 13.9755 25.4364Z" stroke="#BCBCBC" stroke-width="1.5" stroke-miterlimit="10" stroke-linecap="round" stroke-linejoin="round"/>
<path d="M20.6053 23.2266H16.1855" stroke="#BCBCBC" stroke-width="1.5" stroke-miterlimit="10" stroke-linecap="round" stroke-linejoin="round"/>
<path d="M11.7655 23.2266H7.3457" stroke="#BCBCBC" stroke-width="1.5" stroke-miterlimit="10" stroke-linecap="round" stroke-linejoin="round"/>
</svg>
