<svg width="28" height="29" viewBox="0 0 28 29" fill="none" xmlns="http://www.w3.org/2000/svg">
<path d="M19.643 21.6539H15.0567L9.95442 25.0478C9.19768 25.5523 8.17724 25.0134 8.17724 24.0962V21.6539C4.7375 21.6539 2.44434 19.3608 2.44434 15.921V9.04149C2.44434 5.60175 4.7375 3.30859 8.17724 3.30859H19.643C23.0828 3.30859 25.3759 5.60175 25.3759 9.04149V15.921C25.3759 19.3608 23.0828 21.6539 19.643 21.6539Z" stroke="#BCBCBC" stroke-width="1.5" stroke-miterlimit="10" stroke-linecap="round" stroke-linejoin="round"/>
<path d="M13.9101 13.5483V13.3075C13.9101 12.5279 14.3917 12.1151 14.8733 11.7826C15.3434 11.4615 15.8134 11.0488 15.8134 10.292C15.8134 9.23718 14.965 8.38867 13.9101 8.38867C12.8553 8.38867 12.0068 9.23718 12.0068 10.292" stroke="#BCBCBC" stroke-width="1.5" stroke-linecap="round" stroke-linejoin="round"/>
<path d="M13.905 16.2881H13.9154" stroke="#BCBCBC" stroke-width="1.5" stroke-linecap="round" stroke-linejoin="round"/>
</svg>
