<svg width="32" height="33" viewBox="0 0 32 33" fill="none" xmlns="http://www.w3.org/2000/svg">
<path d="M8.53358 1.50319C8.63025 1.09044 8.76785 0.639028 8.83942 0.50024C9.0157 0.158137 9.31846 0.414158 9.4369 1.00561C9.6308 1.97308 9.63717 1.97573 10.104 1.27526C10.3829 0.856806 10.6645 0.596613 10.87 0.567409C11.1531 0.527219 11.1822 0.563098 11.0954 0.845541C10.9455 1.3338 10.0606 3.42229 9.0139 5.75902C7.116 9.99553 6.35233 12.6756 6.21906 15.5674C6.09519 18.2569 6.47688 19.2201 7.81348 19.5902C8.69821 19.835 8.90126 19.6887 9.09335 18.6679C9.18699 18.1701 9.22886 17.4243 9.18628 17.0108C9.12012 16.3677 9.1426 16.259 9.34149 16.2619C9.92248 16.2701 10.7057 16.55 10.932 16.8302C11.0765 17.0091 11.2291 17.0846 11.2969 17.0109C11.3611 16.9414 11.8806 16.3176 12.451 15.625L13.4884 14.3656L13.0021 13.3999L12.5158 12.4342L12.5977 9.25765C12.6677 6.54919 12.7156 6.02645 12.9238 5.71146L13.1679 5.34182L13.9879 7.88548C14.7496 10.2479 14.792 10.4468 14.5836 10.6778C14.2982 10.9939 14.295 11.5851 14.5771 11.8681C14.894 12.1858 15.8206 12.1509 16.1622 11.8084C16.5131 11.4566 16.5114 11.2423 16.154 10.7867L15.8686 10.4227L16.7275 7.91705C17.1999 6.5389 17.6329 5.41136 17.6895 5.41136C17.7462 5.41136 17.8783 5.51482 17.983 5.64109C18.13 5.81868 18.184 6.65836 18.2204 9.33636L18.2677 12.8019L18.5859 12.3694L18.9041 11.9369L19.2649 12.9504C20.4118 16.1709 20.9792 17.9315 20.8344 17.8196C20.1924 17.3231 17.3099 15.1795 17.1802 15.1021C17.0781 15.0412 16.7826 15.4173 16.3721 16.1309C15.7539 17.2054 15.7134 17.2455 15.4682 17.0229C15.2249 16.8022 15.1998 16.8123 14.9933 17.2127C14.8733 17.4452 14.7753 17.8787 14.7753 18.1761C14.7753 18.6064 14.5339 19.1228 13.593 20.706C12.9428 21.8002 12.428 22.7065 12.4488 22.72C13.662 23.5078 15.128 24.3707 15.2529 24.3707C15.4245 24.3707 18.1039 22.6748 18.1039 22.5662C18.1039 22.5328 17.988 22.2733 17.8462 21.9895C17.4099 21.116 17.3719 20.7473 17.6858 20.4326C18.0743 20.0431 18.2426 20.0824 18.2426 20.5631C18.2426 21.4285 18.9025 22.0947 19.3887 21.72C19.483 21.6472 20.3092 21.005 21.2246 20.2927C22.1399 19.5804 24.0983 18.1924 25.5765 17.2081C28.3063 15.3904 29.8267 14.2063 31.0666 12.9326C31.4452 12.5438 31.804 12.2256 31.8641 12.2256C32.2 12.2256 31.8634 14.7114 31.3967 15.6782C30.8235 16.8654 27.934 19.6356 24.8245 21.9792C23.7202 22.8113 23.4912 22.9318 23.2541 22.8045C22.7155 22.5155 21.9967 22.6249 21.5606 23.0621C20.9212 23.7032 21.0494 24.3437 21.9036 24.7759L22.3051 24.9792L22.0076 25.2775C21.5986 25.6876 21.1494 25.6515 20.5311 25.1588C20.2432 24.9293 19.8859 24.7416 19.7372 24.7416C19.387 24.7416 17.9652 26.2 17.9652 26.559C17.9652 26.7402 18.1872 26.964 18.6141 27.2135C18.9709 27.4219 19.5795 27.9117 19.9663 28.3021C20.5928 28.9341 20.7515 29.0211 21.4168 29.0974C21.8276 29.1446 22.1932 29.2127 22.2294 29.2489C22.2655 29.2851 22.1721 29.4904 22.0218 29.7051C21.8714 29.92 21.6723 30.3313 21.5791 30.6194C21.4859 30.9074 21.2545 31.2515 21.0649 31.3842C20.8755 31.5169 20.4484 31.8248 20.1161 32.0684L19.5118 32.5115L19.3626 32.0825C19.2806 31.8465 19.2135 31.55 19.2135 31.4237C19.2135 31.2838 18.8181 30.9684 18.2034 30.6177C17.6479 30.3007 16.7662 29.7214 16.2443 29.3302C15.7224 28.939 15.2102 28.6518 15.1059 28.6919C15.0018 28.7319 14.1098 29.2972 13.124 29.9479C11.5691 30.9742 11.3187 31.1915 11.234 31.5868C11.1803 31.8374 11.0756 32.1588 11.0012 32.3008C10.875 32.5421 10.8376 32.5322 10.4283 32.1489C10.1874 31.9235 9.79182 31.6028 9.54938 31.4364C9.00584 31.0634 8.58824 30.4021 8.46092 29.7132C8.36592 29.1998 8.37117 29.1917 8.80501 29.1917C9.39682 29.1917 9.70085 29.0156 10.6974 28.0953C11.1626 27.6657 11.785 27.1209 12.0806 26.8845L12.618 26.4547L11.9015 25.7024C11.3275 25.0998 11.1502 24.9848 11.0107 25.124C10.7433 25.3907 10.5288 25.3361 9.99417 24.8655L9.50306 24.433L9.16506 25.1992C8.53566 26.6262 8.23483 27.7275 8.15578 28.8938C8.08823 29.8894 8.01528 30.1486 7.64663 30.7003C7.13221 31.4706 6.89241 31.543 6.36551 31.0872L5.96815 30.7434L5.98465 29.0984C5.99852 27.7175 6.27258 25.4619 6.53319 24.584C6.58423 24.412 6.47343 24.3331 6.07635 24.2592C5.788 24.2053 5.24 24.05 4.85859 23.9137C4.07331 23.6331 1.57292 22.0895 1.48748 21.8325C1.45656 21.7397 1.5671 21.6282 1.73297 21.5846C2.01009 21.512 1.98027 21.4573 1.36613 20.9104C0.799421 20.4056 0.720922 20.2767 0.850323 20.0619C0.934234 19.9225 1.23021 19.7547 1.50787 19.6889L2.01258 19.5692L1.01828 18.6352C-0.0375997 17.6435 -0.168524 17.232 0.571689 17.232C0.927995 17.232 0.932435 17.2221 0.712881 16.9191C0.588056 16.7469 0.351439 16.3439 0.186809 16.0232C-0.176155 15.3164 -0.0154037 15.0069 0.714684 15.0069C0.972379 15.0069 1.18319 14.9777 1.18319 14.9421C1.18319 14.9065 0.96031 14.471 0.688052 13.9742C0.371551 13.3968 0.208863 12.9309 0.237295 12.683C0.275991 12.3448 0.348252 12.2896 0.801783 12.252C1.08791 12.2282 1.32189 12.1889 1.32189 12.1644C1.32189 12.1401 1.16197 11.77 0.966551 11.342C0.532853 10.3921 0.538678 9.53661 0.979172 9.47334C1.13382 9.45123 1.623 9.6163 2.06613 9.84047C2.69678 10.1594 2.85557 10.1984 2.7969 10.02C2.19191 8.17891 1.97999 6.80202 2.3019 6.80202C2.51979 6.80202 2.98982 7.06875 3.55722 7.51459L4.05902 7.90871L4.13045 6.55573C4.23627 4.55123 4.42933 4.30286 5.17634 5.21152L5.5837 5.70687L5.68202 4.83507C5.79478 3.83601 6.08271 3.04723 6.33486 3.04723C6.43 3.04723 6.67438 3.2073 6.87799 3.40282L7.24816 3.75842L7.34095 2.9364C7.39185 2.48429 7.52444 1.99561 7.6354 1.85071C7.83109 1.59483 7.8447 1.59678 8.09754 1.92038L8.35786 2.25372L8.53358 1.50319Z" fill="white"/>
<path d="M20.0852 1.70981C20.1871 1.45923 20.3811 1.02003 20.5161 0.733764C20.8351 0.0576517 21.052 0.248245 21.338 1.45574C21.5436 2.3235 21.5813 2.37453 21.8484 2.14445C22.4409 1.63418 22.8695 2.23664 22.8695 3.5799V4.121L23.229 3.78872C23.4267 3.60587 23.712 3.45628 23.8629 3.45628C24.1561 3.45628 24.1092 3.53814 22.3661 6.06931L21.56 7.23975L20.824 5.66306C20.4192 4.79575 19.6823 3.35483 19.1867 2.46094C18.6909 1.56691 18.2852 0.782362 18.2852 0.717363C18.2852 0.652363 18.4447 0.635202 18.6399 0.679092C19.0724 0.776591 19.8668 1.56205 19.886 1.91134C19.8936 2.05105 19.9833 1.96039 20.0852 1.70981Z" fill="white"/>
<path d="M18.2885 10.6745C19.596 8.80737 20.2997 7.81007 20.489 7.55544C20.7071 7.26216 20.8427 7.23926 22.3618 7.23926C23.2625 7.23926 23.9994 7.2661 23.9994 7.29898C23.9994 7.33186 23.2792 7.78505 22.3991 8.30598C21.5189 8.8269 20.213 9.60288 19.4971 10.0302C18.7812 10.4577 18.2373 10.7476 18.2885 10.6745Z" fill="white"/>
</svg>
