<svg width="34" height="34" viewBox="0 0 34 34" fill="none" xmlns="http://www.w3.org/2000/svg">
<path d="M11.3485 3.43854C13.2392 1.88766 15.6937 0.759514 17.8406 0.454637C22.5072 -0.207919 27.7112 2.22731 30.6247 6.43734C31.6612 7.93491 32.7483 10.6196 33.0055 12.3167C33.0872 12.8557 33.0247 12.7838 32.4703 11.7024C31.4912 9.79248 30.0652 7.61696 29.0788 6.5287C27.9021 5.2304 26.937 4.73783 25.5655 4.73568C24.6561 4.73419 24.4826 4.78567 24.1392 5.15874C23.8403 5.48364 23.7684 5.69302 23.8337 6.04854C23.9159 6.49394 23.8909 6.51695 23.2416 6.59656C22.8686 6.64224 22.458 6.77465 22.3291 6.89101C22.1216 7.07804 22.1392 7.15302 22.4813 7.54099C22.8899 8.00443 22.9788 8.52001 22.7016 8.82108C22.5813 8.95183 22.1491 8.80436 21.14 8.28829C19.5328 7.46634 18.2168 6.97708 16.8778 6.70415C15.6155 6.44677 11.694 6.48682 9.99459 6.77449C9.24045 6.9021 8.59982 6.98486 8.57103 6.95821C8.44153 6.83854 10.26 5.68259 10.9146 5.46858C11.315 5.33766 12.1974 5.22428 12.8754 5.21667L14.108 5.2026L13.4896 4.89308C13.1496 4.72294 12.3335 4.48608 11.6761 4.36691L10.4807 4.15042L11.3485 3.43854Z" fill="white"/>
<path d="M24.5903 13.8349L24.5305 12.0102L24.4707 10.1855H25.6429C26.697 10.1855 26.9475 10.2701 28.1306 11.0258C29.2584 11.7463 29.4318 11.9331 29.3458 12.3359C29.2906 12.5943 29.2066 12.8056 29.1593 12.8056C29.1119 12.8056 28.5142 12.553 27.8308 12.2442C27.1473 11.9354 26.5385 11.6827 26.4779 11.6827C26.4171 11.6827 26.3673 12.176 26.3673 12.779V13.8753L25.4788 13.8551L24.5903 13.8349Z" fill="white"/>
<path d="M29.3633 15.9291C29.3633 15.9004 29.6785 15.6928 30.0637 15.4679C30.75 15.0673 30.7847 15.061 31.7753 15.1528C32.3314 15.2042 32.8074 15.2646 32.8329 15.2867C32.8585 15.3089 32.9244 15.844 32.9795 16.4762C33.0719 17.5368 33.0606 17.6189 32.8341 17.5436C32.699 17.4987 32.311 17.462 31.9718 17.462H31.3549L31.1881 16.7274C31.0964 16.3234 30.9933 15.9928 30.959 15.9928C30.9247 15.9928 30.6254 16.1305 30.2939 16.299L29.6912 16.6052L29.5273 16.2932C29.437 16.1216 29.3633 15.9578 29.3633 15.9291Z" fill="white"/>
<path d="M11.2521 25.7973C11.9087 25.7973 12.003 25.7476 12.0915 25.3554C12.2196 24.7879 12.3592 24.7993 12.9626 25.4263C13.7851 26.2811 13.6488 26.4501 12.066 26.5386C10.3321 26.6357 9.64333 26.9789 9.64333 27.7459C9.64333 28.2588 9.66255 28.2715 10.4376 28.2715C11.2867 28.2715 11.3165 28.2959 11.0751 28.7975C10.9311 29.097 9.97551 29.8621 9.74579 29.8621C9.69162 29.8621 9.38709 29.2872 9.06905 28.5847C8.52542 27.3838 8.49921 27.2495 8.63027 26.3444C8.79279 25.2213 9.16674 24.8913 9.16674 25.871C9.16674 26.2191 9.20281 26.5042 9.24681 26.5042C9.29082 26.5042 9.59345 26.3451 9.91959 26.1507C10.2691 25.9424 10.8159 25.7973 11.2521 25.7973Z" fill="white"/>
<path d="M17.6655 28.7201C19.2838 28.3686 20.1983 27.8855 21.0758 26.9184L21.7524 26.1729L21.9248 26.548C22.0882 26.9035 22.0758 26.9526 21.6857 27.4889C21.3682 27.9253 21.272 28.1854 21.2645 28.6267C21.2591 28.9414 21.2034 29.255 21.1409 29.3237C20.9067 29.5804 20.0208 29.6819 18.7907 29.5928C17.5858 29.5055 16.6001 29.5854 16.0745 29.8126C15.846 29.9114 15.847 29.8971 16.0976 29.4597C16.3461 29.0261 16.4225 28.9901 17.6655 28.7201Z" fill="white"/>
<path d="M8.56445 31.8199C8.56445 30.8669 8.60002 30.0141 8.64333 29.9241C8.74846 29.7064 9.48205 30.0809 10.3258 30.7823L11.0115 31.3525L10.6823 31.9927C10.2753 32.7844 9.41164 33.5521 8.92759 33.5521C8.58052 33.5521 8.56445 33.4755 8.56445 31.8199Z" fill="white"/>
<path fill-rule="evenodd" clip-rule="evenodd" d="M6.9462 7.99331C5.60176 8.36757 3.37597 9.58283 3.01539 10.1393C2.62489 10.7422 -0.00346842 18.227 3.4364e-06 18.7266C0.00330997 19.2073 0.318753 20.1772 0.649902 20.7248C0.857883 21.0688 0.911783 21.6789 0.911783 23.6912V26.2247L1.9406 27.2327C3.61933 28.8777 6.01227 29.8849 8.18615 29.8616C8.92334 29.8537 8.96815 29.8325 8.59947 29.665C3.32588 27.2695 1.74221 25.5252 3.37415 23.9104C3.9361 23.3543 3.90981 23.0094 3.27297 22.578C2.98729 22.3845 2.68854 22.0156 2.60902 21.7579C2.48139 21.3444 2.54803 21.2057 3.17611 20.5757L3.88766 19.8619L3.01787 20.2087C1.71477 20.7284 1.65575 20.7032 1.65608 19.6322C1.65657 17.7236 2.46734 16.97 5.12761 16.4064C7.87997 15.823 14.0273 16.2986 16.6998 17.3015C17.0923 17.4489 17.4458 17.5349 17.4854 17.4927C17.5772 17.3951 15.9231 15.6055 15.3893 15.2247L14.9875 14.9381L15.4481 12.6025C15.7016 11.3181 15.9415 10.2098 15.9811 10.1396C16.0688 9.98538 17.7991 10.6606 19.5581 11.5352L20.8452 12.175L20.7331 12.9798C20.6715 13.4224 20.4588 14.8529 20.2608 16.1588L19.9005 18.533L16.9366 18.7296C12.8203 19.0026 9.5825 19.7252 7.69017 20.7936L7.02886 21.1668L8.38471 21.2628C9.95085 21.3736 10.4126 21.6107 9.06255 21.6107C8.3485 21.6107 7.89534 21.7451 6.99629 22.2236C6.36293 22.5606 5.72245 22.98 5.57316 23.1557C5.31294 23.4616 5.34088 23.4697 6.24786 23.349C6.76831 23.2799 8.54788 23.2166 10.2025 23.2083C13.1299 23.1939 13.2714 23.2102 15.4637 23.8131C18.1519 24.5525 19.3538 24.7087 20.2867 24.4401C21.554 24.0753 22.5542 22.3402 22.7681 20.1352C22.8207 19.5924 22.8963 19.1485 22.9361 19.1485C22.9758 19.1485 23.2348 19.3895 23.5118 19.684C23.7885 19.9786 24.3692 20.4104 24.8018 20.6436C25.337 20.932 25.6225 21.2108 25.6942 21.515C25.7979 21.9544 25.8277 21.9624 27.3426 21.9624C29.4901 21.9624 30.5879 21.5159 30.5879 20.6422C30.5879 20.2866 30.4859 20.2475 29.3066 20.1503C26.8476 19.9477 24.8387 18.9681 24.0916 17.6074C23.7404 16.9677 23.6591 15.7544 23.857 14.1118L23.9871 13.0322L23.4604 12.8368C23.1705 12.7293 22.7637 12.6414 22.5558 12.6414C22.2675 12.6414 22.1658 12.5278 22.1258 12.1607C22.081 11.748 21.8403 11.5506 20.4203 10.7619C18.0985 9.4722 15.5779 8.43703 13.82 8.05118C11.9625 7.64333 8.31362 7.61256 6.9462 7.99331ZM13.5889 9.87759C13.5809 9.80161 13.1431 9.64104 12.6162 9.52075C11.335 9.22845 7.87368 9.09637 6.9462 9.3046C6.01971 9.51266 4.29651 10.402 3.88683 10.8837C3.58395 11.2397 3.5904 11.2575 4.32842 12.0751L5.07736 12.9052L4.84093 13.7555C4.71098 14.2232 4.62915 14.6289 4.6594 14.6574C4.68966 14.6857 5.30947 14.5944 6.0369 14.4544C7.32116 14.2075 10.732 14.2327 11.9905 14.4984L12.4883 14.6036L13.0459 12.3095C13.3524 11.0478 13.597 9.95339 13.5889 9.87759Z" fill="white"/>
</svg>
