<svg width="35" height="31" viewBox="0 0 35 31" fill="none" xmlns="http://www.w3.org/2000/svg">
<path d="M1.84833e-06 1.67365C0.0013105 1.51114 0.501214 1.16524 1.16844 0.865332C3.16338 -0.0312921 3.59561 0.0956675 6.59372 2.45973C7.59951 3.25278 8.80683 4.16256 9.27645 4.48141C12.4385 6.6277 18.93 11.1139 21.6839 13.0561C23.4833 14.3251 25.7968 15.9051 26.8251 16.5673C27.8533 17.2293 29.3865 18.2844 30.232 18.9118C31.0776 19.5393 32.0531 20.1751 32.3999 20.3248C32.7465 20.4746 33.4734 20.9592 34.015 21.4018L35 22.2064L34.8772 23.1633C34.5906 25.3966 32.5814 30.6524 31.9164 30.9081C31.7895 30.957 30.5751 30.9543 29.2175 30.9023L26.749 30.8078L22.8612 26.5338C20.7228 24.183 16.6597 19.7776 13.832 16.7437C11.0044 13.7101 7.42957 9.84026 5.88817 8.14441C4.34658 6.44855 2.39053 4.36276 1.54159 3.50942C0.692464 2.65589 -0.0013068 1.82979 1.84833e-06 1.67365Z" fill="white"/>
<path d="M24.7486 0.927908C25.7485 0.682585 26.7224 0.444299 26.9129 0.398382C27.5889 0.235821 28.4833 0.500772 29.3768 1.12787C30.3197 1.78979 30.6231 2.38801 30.3248 2.99715C30.0505 3.55723 29.5967 5.94286 29.5967 6.82491C29.5967 7.50997 29.5349 7.66345 29.2239 7.75047C29.0189 7.80787 28.6771 8.10312 28.4298 7.96259C27.5518 7.46343 21.2095 2.32938 21.3058 2.16293C21.3596 2.0698 21.9335 1.54446 22.2873 1.4841C22.641 1.42355 23.7486 1.17342 24.7486 0.927908Z" fill="white"/>
<path d="M0.00105136 28.7783C-0.0532888 28.6935 2.0123 25.2135 3.06738 23.6121C3.18227 23.4376 3.383 23.2949 3.51342 23.2949C3.64383 23.2949 5.98822 24.6745 8.7232 26.3606L13.6957 29.4263L12.6494 29.7416C12.0741 29.9151 11.446 30.0577 11.2539 30.0587C11.0618 30.0597 10.1635 30.2227 9.25772 30.4207C8.26186 30.6385 6.86521 30.813 5.72451 30.8622L3.83813 30.9435L1.95397 29.9147C0.917734 29.3488 0.0389786 28.8374 0.00105136 28.7783Z" fill="white"/>
</svg>
