<svg width="24" height="34" viewBox="0 0 24 34" fill="none" xmlns="http://www.w3.org/2000/svg">
<path fill-rule="evenodd" clip-rule="evenodd" d="M3.13782 3.46828L0 6.58891V14.1972V21.8054L5.85724 27.6616C9.07871 30.8825 11.8272 33.5178 11.9652 33.5178C12.1032 33.5178 14.8675 30.8907 18.108 27.6799L24 21.8417V14.187V6.53205L20.8676 3.44055L17.7353 0.34906L12.0055 0.348358L6.27565 0.347656L3.13782 3.46828ZM22.5882 6.87481L19.8088 4.23014L17.0294 1.58531L12.0231 1.58074L7.017 1.57618L4.34665 4.16416C2.87806 5.58766 1.61806 6.83146 1.54676 6.92833C1.47547 7.02521 1.416 10.3036 1.41441 14.2135L1.41176 21.3226L6.70765 26.5865L12.0035 31.8505L17.2959 26.5795L22.5882 21.3084V14.0917V6.87481ZM11.7353 2.76381L7.32353 2.81067L5.24682 4.86985L3.16994 6.92904L6.48212 7.01679L9.79412 7.10454L9.83965 17.478L9.88518 27.8515L10.9426 28.7662L12 29.6808L13.0574 28.7662L14.1148 27.8515L14.1604 17.478L14.2059 7.10454L17.5179 7.01679L20.8301 6.92904L18.7532 4.89039C17.6111 3.76927 16.5574 2.82155 16.4118 2.78435C16.2662 2.74732 14.1618 2.73801 11.7353 2.76381ZM2.47059 15.0008V20.3524L4.15941 22.0209C5.08818 22.9388 5.94371 23.6896 6.06053 23.6896C6.17735 23.6896 6.90212 23.0603 7.67082 22.2912L9.06882 20.8928L7.88735 19.6757L6.70588 18.4586V14.054V9.64934H4.58824H2.47059V15.0008ZM17.2059 14.032V18.4149L15.9727 19.6508L14.7397 20.8867L16.3256 22.357L17.9118 23.8272L19.2353 22.5873C20.1505 21.7298 20.6741 21.3365 20.9723 20.8154C21.4438 19.9914 21.3514 18.8484 21.3521 15.0461L21.3529 9.64934H19.2794L17.2059 9.64917V14.032Z" fill="white"/>
</svg>
