<svg width="30" height="32" viewBox="0 0 30 32" fill="none" xmlns="http://www.w3.org/2000/svg">
<path d="M3.80767 1.91446C3.03105 1.21053 2.39562 0.569893 2.39562 0.49072C2.39562 0.411547 4.52883 0.34668 7.13608 0.34668H11.8765V13.2501V26.1533L15.3562 26.2817C17.2702 26.3521 21.0435 26.4101 23.7413 26.4105L28.6468 26.411L28.5066 26.852C28.1824 27.8724 27.6212 28.6003 26.0698 30.012L24.4279 31.5063H13.2099C5.28347 31.5063 1.99219 31.444 1.99219 31.2939C1.99219 31.1769 2.39441 30.5817 2.88601 29.9711C3.94848 28.6514 4.71764 27.212 5.00267 26.0109C5.13097 25.47 5.21166 20.9587 5.21489 14.1657L5.21973 3.19436L3.80767 1.91446Z" fill="white"/>
<path d="M13.4902 3.81899V3.25969V2.7002L15.2553 2.70157C20.9125 2.70588 25.8782 5.64014 28.3009 10.4099C29.383 12.5405 29.8023 13.9879 29.9678 16.1636C30.1824 18.9845 29.3222 22.4025 27.8184 24.7063C27.2667 25.5515 27.1495 25.6287 26.4187 25.6287H25.6208L26.2861 24.6685C27.1572 23.4109 28.1188 21.1351 28.426 19.604C28.5739 18.8672 28.632 17.542 28.572 16.2725C28.4907 14.5478 28.358 13.8646 27.842 12.5152C25.8403 7.28179 21.5176 4.28657 15.457 3.93363L13.4902 3.81899Z" fill="white"/>
<path d="M13.2871 16.8415C13.2871 13.4093 13.347 9.38569 13.4204 7.90018L13.5538 5.19922L15.589 5.29936C18.8853 5.46163 21.1493 6.38861 23.6484 8.59923L24.6294 9.46702L21.7771 11.6334L18.9244 13.7997L18.8665 15.55C18.7957 17.6967 18.2259 19.4615 17.1624 20.828C16.3509 21.8708 14.5174 23.0818 13.7499 23.0818H13.2871V16.8415Z" fill="white"/>
<path d="M2.24307 24.6033C-0.901162 19.2274 -0.746845 14.4477 2.7504 8.89332L3.50403 7.69629L3.56697 8.66226C3.61881 9.45636 3.48486 9.93141 2.81333 11.3358C1.77992 13.4966 1.39262 15.0931 1.38898 17.209C1.38515 19.3025 1.75672 20.7525 2.84944 22.909C3.50262 24.1984 3.68175 24.7526 3.60489 25.2453C3.54942 25.6004 3.40781 25.9218 3.2902 25.9596C3.1726 25.9972 2.70138 25.387 2.24307 24.6033Z" fill="white"/>
<path d="M20.4539 14.3805L22.8378 12.5569C24.1488 11.5539 25.3032 10.7334 25.4029 10.7334C25.6792 10.7334 26.5057 12.4331 27.0253 14.0699C27.624 15.9565 27.666 18.7385 27.1199 20.3361C26.6031 21.8483 25.4866 23.8785 24.6493 24.8288L23.94 25.6339L18.6633 25.5816C13.4308 25.5298 13.386 25.5259 13.3247 25.1065C13.2749 24.7677 13.3953 24.6558 13.9299 24.5435C15.6778 24.1762 17.9058 22.5769 18.8501 21.0116C19.6023 19.7647 19.9422 18.6114 20.2098 16.3998L20.4539 14.3805Z" fill="white"/>
<path d="M3.0966 20.2942C2.48337 18.213 2.61711 15.192 3.4123 13.16C3.51255 12.9038 3.64226 12.6943 3.70036 12.6943C3.75865 12.6943 3.80626 14.7281 3.80626 17.2137C3.80626 19.6992 3.72819 21.6862 3.63258 21.6287C3.53716 21.5715 3.2959 20.971 3.0966 20.2942Z" fill="white"/>
</svg>
