<svg width="35" height="35" viewBox="0 0 35 35" fill="none" xmlns="http://www.w3.org/2000/svg">
<rect x="0.755859" y="0.0654297" width="34.0906" height="34.0906" rx="15" fill="#E4E4E4"/>
<path d="M14.2512 17.1113C14.2512 15.1502 15.8406 13.5599 17.8018 13.5599C19.7629 13.5599 21.3531 15.1502 21.3531 17.1113C21.3531 19.0725 19.7629 20.6627 17.8018 20.6627C15.8406 20.6627 14.2512 19.0725 14.2512 17.1113ZM12.3314 17.1113C12.3314 20.1326 14.7805 22.5817 17.8018 22.5817C20.823 22.5817 23.2721 20.1326 23.2721 17.1113C23.2721 14.09 20.823 11.641 17.8018 11.641C14.7805 11.641 12.3314 14.09 12.3314 17.1113ZM22.2103 11.4241C22.2102 11.6769 22.285 11.9241 22.4254 12.1344C22.5658 12.3447 22.7654 12.5086 22.999 12.6055C23.2325 12.7023 23.4896 12.7277 23.7376 12.6785C23.9856 12.6293 24.2134 12.5076 24.3923 12.3289C24.5711 12.1502 24.693 11.9225 24.7424 11.6745C24.7918 11.4265 24.7666 11.1695 24.6699 10.9358C24.5733 10.7022 24.4095 10.5025 24.1993 10.3619C23.9892 10.2214 23.742 10.1463 23.4892 10.1462H23.4887C23.1498 10.1463 22.8248 10.281 22.5851 10.5206C22.3454 10.7602 22.2106 11.0852 22.2103 11.4241ZM13.4978 25.7829C12.4592 25.7356 11.8946 25.5626 11.5195 25.4164C11.0221 25.2228 10.6672 24.9921 10.2941 24.6195C9.92094 24.2469 9.68998 23.8924 9.4972 23.395C9.35095 23.02 9.17794 22.4553 9.13072 21.4166C9.07907 20.2937 9.06876 19.9564 9.06876 17.1114C9.06876 14.2665 9.07993 13.9301 9.13072 12.8062C9.17802 11.7675 9.35231 11.2039 9.4972 10.8278C9.69083 10.3304 9.92145 9.97556 10.2941 9.60244C10.6667 9.22932 11.0212 8.99836 11.5195 8.80557C11.8944 8.65932 12.4592 8.48631 13.4978 8.4391C14.6208 8.38745 14.9581 8.37714 17.8018 8.37714C20.6454 8.37714 20.9831 8.3883 22.107 8.4391C23.1456 8.4864 23.7092 8.66069 24.0853 8.80557C24.5827 8.99836 24.9376 9.22983 25.3107 9.60244C25.6838 9.97505 25.914 10.3304 26.1076 10.8278C26.2538 11.2028 26.4269 11.7675 26.4741 12.8062C26.5257 13.9301 26.536 14.2665 26.536 17.1114C26.536 19.9564 26.5257 20.2928 26.4741 21.4166C26.4268 22.4553 26.2529 23.0198 26.1076 23.395C25.914 23.8924 25.6833 24.2473 25.3107 24.6195C24.9381 24.9918 24.5827 25.2228 24.0853 25.4164C23.7103 25.5626 23.1456 25.7357 22.107 25.7829C20.984 25.8345 20.6467 25.8448 17.8018 25.8448C14.9568 25.8448 14.6204 25.8345 13.4978 25.7829ZM13.4096 6.52252C12.2755 6.57417 11.5005 6.754 10.8237 7.01735C10.1228 7.28931 9.5295 7.65416 8.93658 8.24615C8.34365 8.83813 7.97974 9.43241 7.70778 10.1333C7.44443 10.8105 7.2646 11.5851 7.21295 12.7192C7.16045 13.8551 7.14844 14.2182 7.14844 17.1113C7.14844 20.0044 7.16045 20.3676 7.21295 21.5035C7.2646 22.6377 7.44443 23.4121 7.70778 24.0893C7.97974 24.7898 8.34374 25.3848 8.93658 25.9765C9.52941 26.5682 10.1228 26.9326 10.8237 27.2053C11.5018 27.4687 12.2755 27.6485 13.4096 27.7001C14.5461 27.7518 14.9087 27.7646 17.8018 27.7646C20.6949 27.7646 21.058 27.7526 22.1939 27.7001C23.3281 27.6485 24.1026 27.4687 24.7798 27.2053C25.4802 26.9326 26.074 26.5685 26.6669 25.9765C27.2599 25.3845 27.623 24.7898 27.8957 24.0893C28.1591 23.4121 28.3398 22.6376 28.3906 21.5035C28.4422 20.3667 28.4542 20.0044 28.4542 17.1113C28.4542 14.2182 28.4422 13.8551 28.3906 12.7192C28.3389 11.585 28.1591 10.8101 27.8957 10.1333C27.623 9.43284 27.2589 8.83907 26.6669 8.24615C26.075 7.65323 25.4802 7.28931 24.7806 7.01735C24.1026 6.754 23.328 6.57332 22.1948 6.52252C21.0589 6.47088 20.6957 6.45801 17.8026 6.45801C14.9095 6.45801 14.5461 6.47002 13.4096 6.52252Z" fill="#282229"/>
</svg>
