<svg width="30" height="31" viewBox="0 0 30 31" fill="none" xmlns="http://www.w3.org/2000/svg">
<path d="M23.8246 23.4092L21.1496 18.0718L18.4746 23.4092" stroke="currentColor" stroke-width="2" stroke-linecap="round" stroke-linejoin="round"/>
<path d="M18.9629 22.4595H23.3629" stroke="currentColor" stroke-width="2" stroke-linecap="round" stroke-linejoin="round"/>
<path d="M21.1508 27.5715C17.6508 27.5715 14.8008 24.734 14.8008 21.2215C14.8008 17.7215 17.6383 14.8716 21.1508 14.8716C24.6508 14.8716 27.5008 17.709 27.5008 21.2215C27.5008 24.734 24.6633 27.5715 21.1508 27.5715Z" stroke="currentColor" stroke-width="2" stroke-linecap="round" stroke-linejoin="round"/>
<path d="M6.27501 2.57178H11.175C13.7625 2.57178 15.0125 3.8218 14.95 6.3468V11.2468C15.0125 13.8343 13.7625 15.0843 11.175 15.0218H6.27501C3.75001 15.0718 2.5 13.8218 2.5 11.2343V6.33429C2.5 3.82179 3.75001 2.57178 6.27501 2.57178Z" stroke="currentColor" stroke-width="2" stroke-linecap="round" stroke-linejoin="round"/>
<path d="M11.2625 7.38428H6.1875" stroke="currentColor" stroke-width="2" stroke-linecap="round" stroke-linejoin="round"/>
<path d="M8.71289 6.53418V7.38417" stroke="currentColor" stroke-width="2" stroke-linecap="round" stroke-linejoin="round"/>
<path d="M9.98829 7.37158C9.98829 9.55908 8.27578 11.3341 6.17578 11.3341" stroke="currentColor" stroke-width="2" stroke-linecap="round" stroke-linejoin="round"/>
<path d="M11.2637 11.3343C10.3512 11.3343 9.52617 10.8468 8.95117 10.0718" stroke="currentColor" stroke-width="2" stroke-linecap="round" stroke-linejoin="round"/>
<path d="M2.5 18.8218C2.5 23.6593 6.4125 27.5718 11.25 27.5718L9.9375 25.3843" stroke="currentColor" stroke-width="2" stroke-linecap="round" stroke-linejoin="round"/>
<path d="M27.5 11.3218C27.5 6.48428 23.5875 2.57178 18.75 2.57178L20.0625 4.75928" stroke="currentColor" stroke-width="2" stroke-linecap="round" stroke-linejoin="round"/>
</svg>
