<svg width="12" height="12" viewBox="0 0 12 12" fill="none" xmlns="http://www.w3.org/2000/svg">
<path opacity="0.4" d="M8.07459 0.530273H3.43066C1.41348 0.530273 0.210938 1.73282 0.210938 3.74999V8.38839C0.210938 10.4111 1.41348 11.6136 3.43066 11.6136H8.06905C10.0862 11.6136 11.2888 10.4111 11.2888 8.39393V3.74999C11.2943 1.73282 10.0918 0.530273 8.07459 0.530273Z" fill="white"/>
<path d="M5.75327 7.68452C5.64798 7.68452 5.54268 7.64573 5.45956 7.5626L3.50334 5.60639C3.34264 5.44568 3.34264 5.17968 3.50334 5.01897C3.66405 4.85826 3.93005 4.85826 4.09076 5.01897L5.75327 6.68147L7.41577 5.01897C7.57648 4.85826 7.84248 4.85826 8.00319 5.01897C8.1639 5.17968 8.1639 5.44568 8.00319 5.60639L6.04698 7.5626C5.96385 7.64573 5.85856 7.68452 5.75327 7.68452Z" fill="white"/>
</svg>
