<svg width="18" height="18" viewBox="0 0 18 18" fill="none" xmlns="http://www.w3.org/2000/svg">
<path d="M5.62256 13.722L7.77908 15.3916C8.05734 15.6698 8.68343 15.8089 9.10082 15.8089H11.7443C12.5791 15.8089 13.4834 15.1829 13.6921 14.3481L15.3617 9.26981C15.7095 8.29589 15.0834 7.46111 14.04 7.46111H11.2574C10.84 7.46111 10.4921 7.11328 10.5617 6.62633L10.9095 4.40023C11.0487 3.77415 10.6313 3.07849 10.0052 2.8698C9.44865 2.6611 8.753 2.93936 8.47474 3.35676L5.62256 7.60024" stroke="white" stroke-miterlimit="10"/>
<path d="M2.07501 13.7217V6.90426C2.07501 5.93035 2.4924 5.58252 3.46632 5.58252H4.16197C5.13589 5.58252 5.55328 5.93035 5.55328 6.90426V13.7217C5.55328 14.6956 5.13589 15.0434 4.16197 15.0434H3.46632C2.4924 15.0434 2.07501 14.6956 2.07501 13.7217Z" stroke="white" stroke-linecap="round" stroke-linejoin="round"/>
</svg>
