<svg width="28" height="24" viewBox="0 0 28 24" fill="none" xmlns="http://www.w3.org/2000/svg">
  <path d="M25.6379 0C27.4965 0 28.6247 2.07854 27.6302 3.67066C23.6291 10.0765 19.628 16.4824 15.6268 22.8882C14.6934 24.3826 12.5383 24.3677 11.6251 22.8605L9.52431 19.393C11.0979 16.8679 14.1869 11.8513 14.2451 11.8203C14.2835 11.8007 13.79 10.8244 13.2562 9.79514C12.6986 8.72004 13.4719 7.42328 14.6699 7.42958C15.8863 7.43596 17.0666 7.43492 17.101 7.40702C17.1724 7.34916 21.6178 0 21.6178 0H25.6379Z" fill="white" />
  <path d="M0.339714 3.62199C-0.596969 2.04842 0.513346 0.0749568 2.32599 0.0680621C8.48502 0.0446361 10.5382 0.0232507 18.6501 0C17.5684 1.86243 15.9578 4.8064 15.5238 5.60206C15.4544 5.7291 15.3237 5.80594 15.1806 5.80594H11.6055C10.4381 5.80594 9.67791 7.05049 10.1979 8.1102L11.8214 11.4185C11.8805 11.5391 11.8756 11.6819 11.8082 11.798L8.54924 17.4178C7.6362 15.8173 3.13209 8.31306 0.339714 3.62199Z" fill="#754FE0" />
</svg>