<svg width="23" height="23" viewBox="0 0 23 23" fill="none" xmlns="http://www.w3.org/2000/svg">
<path d="M15.6059 12.5748L10.0646 15.2908C8.74671 15.933 7.38277 14.5224 8.07791 13.2319L8.87885 11.7233C9.10088 11.3094 9.12086 10.8068 8.9173 10.3862L8.19905 8.82837C7.5846 7.50572 9.03872 6.16517 10.3062 6.89282L15.6879 9.91744C16.7378 10.5172 16.6936 12.0531 15.6059 12.5748Z" stroke="#F2F2F2" stroke-width="1.5" stroke-linecap="round" stroke-linejoin="round"/>
<path d="M3.76543 14.7772L6.98505 18.1875C9.66808 21.0295 11.8781 21.093 14.72 18.41L18.1303 15.1904C20.9723 12.5074 21.0358 10.2974 18.3528 7.45545L15.1332 4.04512C12.4502 1.20318 10.2402 1.13962 7.39824 3.82264L3.98791 7.04227C1.14597 9.72529 1.0824 11.9353 3.76543 14.7772Z" stroke="#F2F2F2" stroke-width="1.5" stroke-linecap="round" stroke-linejoin="round"/>
</svg>
