<svg width="13" height="13" viewBox="0 0 13 13" fill="none" xmlns="http://www.w3.org/2000/svg">
<path d="M7.06762 1.02918L8.1239 3.15637C8.26793 3.44644 8.65204 3.73651 8.97212 3.78485L10.8846 4.10716C12.1089 4.31665 12.397 5.20298 11.5168 6.08931L10.0284 7.59606C9.78033 7.84585 9.6363 8.33736 9.71632 8.69189L10.1404 10.5532C10.4765 12.0196 9.70031 12.5917 8.41197 11.8263L6.6195 10.7546C6.29141 10.5612 5.76327 10.5612 5.43519 10.7546L3.63471 11.8182C2.34637 12.5837 1.57017 12.0116 1.90626 10.5451L2.33037 8.68383C2.41039 8.33736 2.26635 7.84585 2.01829 7.58801L0.537895 6.09736C-0.342338 5.21104 -0.0542616 4.31665 1.17006 4.11521L3.08257 3.79291C3.40265 3.73651 3.78675 3.4545 3.93079 3.16443L4.98707 1.03724C5.55522 -0.123045 6.49947 -0.123045 7.06762 1.02918Z" fill="#F0F0F0"/>
</svg>
