<svg width="36" height="35" viewBox="0 0 36 35" fill="none" xmlns="http://www.w3.org/2000/svg">
<rect x="1.33008" y="0.0654297" width="34.0906" height="34.0906" rx="15" fill="#E4E4E4"/>
<path d="M17.5762 12.5503C17.5762 12.5789 17.5762 12.6076 17.5777 12.6345L13.404 18.6936C12.7279 18.6629 12.0494 18.7814 11.4061 19.0462C11.1225 19.1618 10.8568 19.3037 10.6075 19.4676L1.15406 15.6208C1.15406 15.6208 0.0927333 18.8373 0.976508 21.4358L8.59339 24.4539C8.9187 25.9068 9.91601 27.1811 11.3874 27.7942C13.7947 28.7993 16.5704 27.6537 17.5718 25.2469C17.8324 24.6178 17.9539 23.9579 17.9364 23.2995L23.9083 19.0345C23.9566 19.036 24.0063 19.0374 24.0547 19.0374C27.6284 19.0374 30.5331 16.1258 30.5331 12.5503C30.5331 8.9744 27.6284 6.06543 24.0547 6.06543C20.4824 6.06543 17.5762 8.9744 17.5762 12.5503ZM16.5748 24.8284C15.7997 26.6881 13.6613 27.5703 11.8026 26.7963C10.9451 26.4393 10.2977 25.7853 9.92421 25.0055L12.0332 25.879C13.404 26.4496 14.9767 25.8 15.5465 24.4305C16.118 23.0595 15.4696 21.4852 14.0995 20.9146L11.9194 20.0119C12.7607 19.6929 13.717 19.6812 14.6105 20.0528C15.5113 20.4274 16.2103 21.1326 16.5807 22.0339C16.9511 22.9352 16.9496 23.9301 16.5748 24.8284ZM24.0547 16.872C21.6756 16.872 19.7386 14.9334 19.7386 12.5503C19.7386 10.169 21.6756 8.22982 24.0547 8.22982C26.4352 8.22982 28.3721 10.169 28.3721 12.5503C28.3721 14.9334 26.4352 16.872 24.0547 16.872ZM20.8206 12.5437C20.8206 10.7509 22.2729 9.29687 24.062 9.29687C25.8525 9.29687 27.3049 10.7509 27.3049 12.5437C27.3049 14.3366 25.8525 15.7893 24.062 15.7893C22.2729 15.7893 20.8206 14.3366 20.8206 12.5437Z" fill="#272229"/>
</svg>
