<svg width="27" height="28" viewBox="0 0 27 28" fill="none" xmlns="http://www.w3.org/2000/svg">
<path d="M24.4664 9.36756V14.8936C24.4664 19.3144 22.256 21.5248 17.8352 21.5248H17.2826C16.94 21.5248 16.6084 21.6906 16.3984 21.9669L14.7406 24.1773C14.0112 25.1499 12.8175 25.1499 12.0881 24.1773L10.4303 21.9669C10.2535 21.7238 9.84454 21.5248 9.54614 21.5248H8.99354C4.57272 21.5248 2.3623 20.4196 2.3623 14.8936V9.36756C2.3623 4.94674 4.57272 2.73633 8.99354 2.73633H13.4144" stroke="#BCBCBC" stroke-width="1.5" stroke-miterlimit="10" stroke-linecap="round" stroke-linejoin="round"/>
<path d="M16.951 5.6327C16.5863 4.53854 17.0173 3.19019 18.2109 2.81442C18.8298 2.62654 19.6035 2.78127 20.0455 3.36703C20.4655 2.75916 21.2613 2.62654 21.8802 2.81442C23.0738 3.17914 23.5048 4.53854 23.1401 5.6327C22.5765 7.36787 20.5981 8.26309 20.0455 8.26309C19.4929 8.26309 17.5367 7.37892 16.951 5.6327Z" stroke="#BCBCBC" stroke-width="1.5" stroke-linecap="round" stroke-linejoin="round"/>
<path d="M17.8307 12.6835H17.8406" stroke="#BCBCBC" stroke-width="1.5" stroke-linecap="round" stroke-linejoin="round"/>
<path d="M13.4088 12.6835H13.4188" stroke="#BCBCBC" stroke-width="1.5" stroke-linecap="round" stroke-linejoin="round"/>
<path d="M8.98696 12.6835H8.99689" stroke="#BCBCBC" stroke-width="1.5" stroke-linecap="round" stroke-linejoin="round"/>
</svg>
