<svg width="35" height="35" viewBox="0 0 35 35" fill="none" xmlns="http://www.w3.org/2000/svg">
<rect x="0.511719" y="0.0654297" width="34.0906" height="34.0906" rx="15" fill="#E4E4E4"/>
<path d="M25.9104 13.426C25.9104 13.6124 25.9104 13.7989 25.9104 13.9587C25.9104 19.4718 21.7023 25.8371 14.0319 25.8371C11.6615 25.8371 9.47761 25.1447 7.61328 23.9728C7.93288 23.9994 8.27911 24.0261 8.59871 24.0261C10.5429 24.0261 12.354 23.3602 13.7922 22.2416C11.9545 22.215 10.4098 20.9899 9.90374 19.3386C10.1701 19.3919 10.4098 19.4185 10.7027 19.4185C11.0756 19.4185 11.4485 19.3652 11.7947 19.2587C9.87711 18.8858 8.43891 17.2079 8.43891 15.1838C8.43891 15.1572 8.43891 15.1572 8.43891 15.1305C8.99821 15.4501 9.63741 15.6366 10.3299 15.6632C9.21128 14.9175 8.46555 13.6391 8.46555 12.1742C8.46555 11.4019 8.67861 10.6828 9.02485 10.0702C11.0756 12.6004 14.1651 14.2516 17.6274 14.4381C17.5475 14.1451 17.5209 13.7989 17.5209 13.4793C17.5209 11.1622 19.3852 9.29785 21.7023 9.29785C22.9008 9.29785 23.9928 9.80388 24.7385 10.6029C25.6973 10.4165 26.5762 10.0702 27.4018 9.59082C27.0822 10.5762 26.4164 11.3752 25.5641 11.9079C26.4164 11.8014 27.2154 11.5883 27.9611 11.2421C27.4285 12.0943 26.736 12.8401 25.9104 13.426Z" fill="#262127"/>
</svg>
