<svg width="35" height="35" viewBox="0 0 35 35" fill="none" xmlns="http://www.w3.org/2000/svg">
<rect x="0.378906" y="0.0654297" width="34.0906" height="34.0906" rx="15" fill="#E4E4E4"/>
<path fill-rule="evenodd" clip-rule="evenodd" d="M28.2662 11.8084C28.4242 11.2817 28.2662 10.8945 27.5142 10.8945H25.0279C24.3956 10.8945 24.1044 11.2289 23.9463 11.5978C23.9463 11.5978 22.6818 14.6797 20.8906 16.6815C20.3111 17.261 20.0477 17.4452 19.7316 17.4452C19.5735 17.4452 19.3448 17.261 19.3448 16.7343V11.8084C19.3448 11.1762 19.1613 10.8945 18.6344 10.8945H14.7273C14.3323 10.8945 14.0947 11.1879 14.0947 11.466C14.0947 12.0654 14.9901 12.2036 15.0825 13.8893V17.5509C15.0825 18.3536 14.9375 18.4992 14.6214 18.4992C13.7785 18.4992 11.7284 15.4034 10.5122 11.8612C10.2739 11.1726 10.0348 10.8945 9.39937 10.8945H6.91301C6.20262 10.8945 6.06055 11.2289 6.06055 11.5978C6.06055 12.2563 6.9036 15.5227 9.98544 19.8426C12.0402 22.7924 14.9347 24.3919 17.5688 24.3919C19.1494 24.3919 19.3448 24.0367 19.3448 23.4249V21.1951C19.3448 20.4848 19.4945 20.343 19.9948 20.343C20.3638 20.343 20.9959 20.5274 22.4712 21.9498C24.1569 23.6353 24.4347 24.3919 25.3831 24.3919H27.8694C28.5798 24.3919 28.935 24.0367 28.7301 23.3357C28.5059 22.6371 27.7011 21.6237 26.633 20.4221C26.0535 19.7371 25.1842 18.9995 24.921 18.6308C24.5521 18.1566 24.6574 17.946 24.921 17.5248C24.921 17.5248 27.9501 13.2575 28.2662 11.8086V11.8084Z" fill="#352638"/>
</svg>
