<svg width="35" height="35" viewBox="0 0 35 35" fill="none" xmlns="http://www.w3.org/2000/svg">
<rect x="0.888672" y="0.0654297" width="34.0906" height="34.0906" rx="15" fill="#E4E4E4"/>
<path fill-rule="evenodd" clip-rule="evenodd" d="M26.2711 10.1077C27.1837 10.3534 27.9033 11.073 28.149 11.9856C28.6054 13.6529 28.5878 17.128 28.5878 17.128C28.5878 17.128 28.5878 20.5855 28.149 22.2528C27.9033 23.1654 27.1837 23.885 26.2711 24.1307C24.6038 24.5695 17.9345 24.5695 17.9345 24.5695C17.9345 24.5695 11.2828 24.5695 9.59794 24.1131C8.68531 23.8674 7.96573 23.1479 7.72002 22.2352C7.28125 20.5855 7.28125 17.1104 7.28125 17.1104C7.28125 17.1104 7.28125 13.6529 7.72002 11.9856C7.96573 11.073 8.70286 10.3358 9.59794 10.0901C11.2653 9.65137 17.9345 9.65137 17.9345 9.65137C17.9345 9.65137 24.6038 9.65137 26.2711 10.1077ZM21.3566 17.1102L15.8105 20.3045V13.916L21.3566 17.1102Z" fill="#352638"/>
</svg>
