<svg width="24" height="19" viewBox="0 0 24 19" fill="none" xmlns="http://www.w3.org/2000/svg">
<path d="M20.2281 2.17558C18.7376 1.4909 17.1438 0.993298 15.4776 0.709961C15.273 1.07319 15.0339 1.56174 14.8691 1.95038C13.0978 1.68886 11.3429 1.68886 9.60423 1.95038C9.43944 1.56174 9.19494 1.07319 8.98847 0.709961C7.32046 0.993298 5.72488 1.49273 4.23435 2.17921C1.22793 6.63956 0.412942 10.9891 0.820438 15.2769C2.81445 16.7389 4.74689 17.627 6.64672 18.2081C7.11579 17.5743 7.53415 16.9005 7.89455 16.1904C7.20815 15.9344 6.55073 15.6184 5.92954 15.2515C6.09434 15.1316 6.25554 15.0063 6.41128 14.8774C10.2001 16.6172 14.3167 16.6172 18.0602 14.8774C18.2178 15.0063 18.379 15.1316 18.542 15.2515C17.9189 15.6202 17.2597 15.9362 16.5733 16.1923C16.9337 16.9005 17.3503 17.5761 17.8212 18.2099C19.7228 17.6288 21.657 16.7407 23.6511 15.2769C24.1292 10.3063 22.8343 5.99665 20.2281 2.17558ZM8.41072 12.64C7.27336 12.64 6.34064 11.5975 6.34064 10.3281C6.34064 9.0586 7.25345 8.01435 8.41072 8.01435C9.56803 8.01435 10.5007 9.05677 10.4808 10.3281C10.4826 11.5975 9.56803 12.64 8.41072 12.64ZM16.0608 12.64C14.9234 12.64 13.9907 11.5975 13.9907 10.3281C13.9907 9.0586 14.9035 8.01435 16.0608 8.01435C17.2181 8.01435 18.1508 9.05677 18.1309 10.3281C18.1309 11.5975 17.2181 12.64 16.0608 12.64Z" fill="#754FE0"/>
</svg>
