<svg width="20" height="21" viewBox="0 0 20 21" fill="none" xmlns="http://www.w3.org/2000/svg">
<path d="M6.72291 10.4611C6.72291 8.68075 8.16581 7.23714 9.9462 7.23714C11.7266 7.23714 13.1703 8.68075 13.1703 10.4611C13.1703 12.2414 11.7266 13.685 9.9462 13.685C8.16581 13.685 6.72291 12.2414 6.72291 10.4611ZM4.98004 10.4611C4.98004 13.2038 7.20339 15.427 9.9462 15.427C12.689 15.427 14.9124 13.2038 14.9124 10.4611C14.9124 7.71837 12.689 5.49511 9.9462 5.49511C7.20339 5.49511 4.98004 7.71837 4.98004 10.4611ZM13.9484 5.29821C13.9483 5.52774 14.0163 5.75214 14.1437 5.94304C14.2712 6.13394 14.4524 6.28276 14.6644 6.37068C14.8764 6.4586 15.1098 6.48168 15.3349 6.43699C15.5601 6.3923 15.7669 6.28185 15.9293 6.11962C16.0917 5.95738 16.2023 5.75064 16.2471 5.52554C16.292 5.30044 16.2691 5.06708 16.1814 4.85499C16.0936 4.6429 15.9449 4.46159 15.7541 4.33399C15.5633 4.2064 15.339 4.13824 15.1094 4.13815H15.109C14.8013 4.13829 14.5062 4.26055 14.2886 4.47805C14.071 4.69556 13.9487 4.99054 13.9484 5.29821ZM6.03895 18.3331C5.09602 18.2901 4.58351 18.1331 4.24293 18.0004C3.79139 17.8246 3.46921 17.6152 3.13048 17.277C2.79175 16.9387 2.58207 16.6169 2.40706 16.1654C2.27429 15.8249 2.11722 15.3123 2.07436 14.3694C2.02747 13.35 2.01811 13.0438 2.01811 10.4611C2.01811 7.87852 2.02825 7.57315 2.07436 6.55289C2.1173 5.61 2.27553 5.09837 2.40706 4.75694C2.58285 4.30542 2.79221 3.98326 3.13048 3.64454C3.46875 3.30582 3.79061 3.09615 4.24293 2.92115C4.58336 2.78838 5.09602 2.63133 6.03895 2.58846C7.05839 2.54158 7.36463 2.53222 9.9462 2.53222C12.5278 2.53222 12.8343 2.54235 13.8546 2.58846C14.7975 2.6314 15.3092 2.78962 15.6506 2.92115C16.1022 3.09615 16.4244 3.30629 16.7631 3.64454C17.1018 3.9828 17.3107 4.30542 17.4865 4.75694C17.6193 5.09736 17.7763 5.61 17.8192 6.55289C17.8661 7.57315 17.8755 7.87852 17.8755 10.4611C17.8755 13.0438 17.8661 13.3492 17.8192 14.3694C17.7763 15.3123 17.6184 15.8248 17.4865 16.1654C17.3107 16.6169 17.1013 16.939 16.7631 17.277C16.4248 17.6149 16.1022 17.8246 15.6506 18.0004C15.3102 18.1331 14.7975 18.2902 13.8546 18.3331C12.8352 18.3799 12.5289 18.3893 9.9462 18.3893C7.36347 18.3893 7.05808 18.3799 6.03895 18.3331ZM5.95887 0.848607C4.92929 0.895492 4.22575 1.05874 3.61134 1.29781C2.97504 1.54469 2.43638 1.8759 1.89811 2.4133C1.35984 2.9507 1.02946 3.49019 0.782569 4.12647C0.543491 4.74124 0.380237 5.44436 0.33335 6.4739C0.28569 7.50506 0.27478 7.83473 0.27478 10.4611C0.27478 13.0874 0.28569 13.4171 0.33335 14.4482C0.380237 15.4779 0.543491 16.1809 0.782569 16.7957C1.02946 17.4316 1.35991 17.9717 1.89811 18.5088C2.4363 19.046 2.97504 19.3768 3.61134 19.6243C4.22691 19.8634 4.92929 20.0267 5.95887 20.0735C6.99061 20.1204 7.31975 20.1321 9.9462 20.1321C12.5726 20.1321 12.9023 20.1212 13.9335 20.0735C14.9632 20.0267 15.6663 19.8634 16.2811 19.6243C16.917 19.3768 17.456 19.0462 17.9943 18.5088C18.5326 17.9714 18.8622 17.4316 19.1098 16.7957C19.3489 16.1809 19.5129 15.4778 19.559 14.4482C19.6059 13.4163 19.6168 13.0874 19.6168 10.4611C19.6168 7.83473 19.6059 7.50506 19.559 6.4739C19.5122 5.44428 19.3489 4.74085 19.1098 4.12647C18.8622 3.49058 18.5317 2.95155 17.9943 2.4133C17.4569 1.87505 16.917 1.54469 16.2818 1.29781C15.6663 1.05874 14.9631 0.894718 13.9343 0.848607C12.9031 0.801722 12.5734 0.790039 9.94697 0.790039C7.32053 0.790039 6.99061 0.800948 5.95887 0.848607Z" fill="#754FE0"/>
</svg>
