<svg width="22" height="21" viewBox="0 0 22 21" fill="none" xmlns="http://www.w3.org/2000/svg">
<path d="M21.3795 10.6853C21.3321 9.36991 20.2566 8.34272 18.9719 8.38736C18.4025 8.40769 17.861 8.64724 17.45 9.04905C15.6393 7.7823 13.5124 7.08795 11.326 7.03931L12.3577 1.944L15.7616 2.679C15.8563 3.57625 16.6392 4.22596 17.5129 4.12832C18.3866 4.03105 19.0192 3.22708 18.9242 2.32983C18.8291 1.43258 18.0466 0.782873 17.1729 0.880511C16.6707 0.933141 16.22 1.23368 15.9712 1.68049L12.0732 0.880511C11.8085 0.819533 11.5434 0.990126 11.484 1.26634C11.484 1.27034 11.484 1.27034 11.484 1.27433L10.3099 6.94203C8.09597 6.97869 5.94143 7.67704 4.1071 8.95177C3.17403 8.05053 1.70339 8.09517 0.825811 9.05739C-0.0517687 10.0156 -0.008296 11.5259 0.928661 12.4272C1.11068 12.6018 1.31991 12.752 1.55318 12.8576C1.53728 13.0972 1.53728 13.3368 1.55318 13.5763C1.55318 17.2343 5.70428 20.2102 10.8238 20.2102C15.9433 20.2102 20.0944 17.2383 20.0944 13.5763C20.1103 13.3368 20.1103 13.0972 20.0944 12.8576C20.8932 12.4475 21.3954 11.6029 21.3795 10.6853ZM5.4749 12.3215C5.4749 11.4203 6.1906 10.6853 7.06818 10.6853C7.94576 10.6853 8.66147 11.4203 8.66147 12.3215C8.66147 13.2228 7.94576 13.9578 7.06818 13.9578C6.18672 13.9494 5.4749 13.2228 5.4749 12.3215ZM14.714 16.8768V16.8118C13.5834 17.6847 12.1997 18.1312 10.7842 18.0706C9.36869 18.1315 7.98535 17.6847 6.85436 16.8118C6.70415 16.6249 6.73171 16.345 6.91373 16.1908C7.07172 16.0568 7.29721 16.0568 7.45944 16.1908C8.41618 16.9094 9.58252 17.2749 10.7683 17.2179C11.9544 17.2829 13.1246 16.9337 14.0931 16.2234C14.267 16.0488 14.5515 16.0528 14.7218 16.2314C14.8918 16.41 14.8879 16.7022 14.714 16.8768ZM14.4967 14.0754C14.4691 14.0754 14.4454 14.0754 14.4175 14.0754L14.4295 14.0144C13.552 14.0144 12.8362 13.2794 12.8362 12.3782C12.8362 11.4769 13.552 10.7419 14.4295 10.7419C15.3071 10.7419 16.0228 11.4769 16.0228 12.3782C16.0582 13.2798 15.3743 14.0387 14.4967 14.0754Z" fill="#525F63"/>
</svg>
