<svg width="21" height="19" viewBox="0 0 21 19" fill="none" xmlns="http://www.w3.org/2000/svg">
<path fill-rule="evenodd" clip-rule="evenodd" d="M1.6889 8.25755C7.12712 5.79568 10.7474 4.15983 12.5653 3.3662C17.7394 1.11487 18.8271 0.726157 19.5263 0.709961C19.6816 0.709961 20.0235 0.742354 20.2565 0.936713C20.443 1.09868 20.4896 1.30923 20.5207 1.4712C20.5518 1.63316 20.5828 1.97329 20.5518 2.23244C20.2721 5.30978 19.0601 12.7764 18.4386 16.2101C18.1745 17.6677 17.6617 18.1536 17.1645 18.2022C16.0769 18.2994 15.2534 17.4572 14.2123 16.7445C12.5653 15.627 11.6486 14.9305 10.0482 13.8292C8.19923 12.5658 9.39564 11.8694 10.4522 10.7356C10.7319 10.4441 15.502 5.90905 15.5952 5.50414C15.6107 5.45555 15.6107 5.26119 15.502 5.16401C15.3932 5.06683 15.2378 5.09923 15.1135 5.13162C14.9426 5.16401 12.3323 6.97803 7.25143 10.5575C6.50561 11.0919 5.83749 11.3511 5.23151 11.3349C4.56339 11.3187 3.28929 10.9462 2.32595 10.6222C1.16062 10.2335 0.228352 10.023 0.306041 9.34272C0.352654 8.9864 0.818787 8.63007 1.6889 8.25755Z" fill="#754FE0"/>
</svg>
