<svg width="19" height="22" viewBox="0 0 19 22" fill="none" xmlns="http://www.w3.org/2000/svg">
<path d="M16.0957 5.20172C15.9594 5.13104 15.8268 5.05355 15.6982 4.96955C15.3244 4.72153 14.9816 4.42929 14.6773 4.09913C13.916 3.2249 13.6316 2.33801 13.5269 1.71706H13.5311C13.4436 1.20164 13.4798 0.868164 13.4853 0.868164H10.0176V14.3247C10.0176 14.5054 10.0176 14.684 10.01 14.8604C10.01 14.8824 10.0079 14.9026 10.0067 14.9263C10.0067 14.936 10.0067 14.9461 10.0046 14.9562C10.0046 14.9588 10.0046 14.9613 10.0046 14.9638C9.968 15.4467 9.81378 15.9131 9.55545 16.322C9.29712 16.731 8.94261 17.07 8.52309 17.3092C8.08586 17.5588 7.59135 17.6897 7.08832 17.6891C5.47268 17.6891 4.16325 16.367 4.16325 14.7342C4.16325 13.1014 5.47268 11.7793 7.08832 11.7793C7.39415 11.779 7.6981 11.8273 7.98889 11.9224L7.99309 8.37907C7.11034 8.26464 6.21354 8.33505 5.35926 8.58585C4.50498 8.83665 3.71176 9.26241 3.02965 9.83626C2.43196 10.3574 1.92948 10.9793 1.54483 11.6738C1.39845 11.9271 0.846158 12.9448 0.779278 14.5966C0.737215 15.5341 1.01778 16.5054 1.15154 16.9069V16.9153C1.23566 17.1517 1.56165 17.9584 2.09291 18.6385C2.52129 19.184 3.02742 19.6631 3.59498 20.0606V20.0522L3.60339 20.0606C5.28213 21.2054 7.14342 21.1303 7.14342 21.1303C7.46562 21.1172 8.54496 21.1303 9.77068 20.5473C11.1302 19.901 11.9041 18.9382 11.9041 18.9382C12.3986 18.3628 12.7917 17.7072 13.0667 16.9993C13.3805 16.1715 13.4853 15.1787 13.4853 14.7819V7.64288C13.5273 7.66821 14.0876 8.04011 14.0876 8.04011C14.0876 8.04011 14.8948 8.55932 16.1542 8.89745C17.0577 9.13806 18.275 9.18871 18.275 9.18871V5.73403C17.8485 5.78046 16.9824 5.64538 16.0957 5.20172Z" fill="#754FE0"/>
</svg>
