<svg width="23" height="14" viewBox="0 0 23 14" fill="none" xmlns="http://www.w3.org/2000/svg">
<path fill-rule="evenodd" clip-rule="evenodd" d="M22.2675 1.42389C22.4212 0.920657 22.2675 0.550781 21.5361 0.550781H19.1178C18.5028 0.550781 18.2196 0.870265 18.0658 1.22266C18.0658 1.22266 16.8359 4.1669 15.0937 6.07939C14.5301 6.63301 14.2739 6.80896 13.9664 6.80896C13.8127 6.80896 13.5902 6.63301 13.5902 6.12978V1.42389C13.5902 0.819874 13.4118 0.550781 12.8992 0.550781H9.09902C8.71485 0.550781 8.48373 0.831072 8.48373 1.09677C8.48373 1.6694 9.35467 1.8014 9.44449 3.41188V6.90991C9.44449 7.67681 9.30354 7.81593 8.99607 7.81593C8.17625 7.81593 6.18217 4.85829 4.99927 1.47428C4.76745 0.81648 4.53495 0.550781 3.9169 0.550781H1.49857C0.807623 0.550781 0.669434 0.870265 0.669434 1.22266C0.669434 1.85179 1.48942 4.97231 4.48693 9.0993C6.4855 11.9175 9.30077 13.4455 11.8628 13.4455C13.4002 13.4455 13.5902 13.1062 13.5902 12.5217V10.3915C13.5902 9.71281 13.7358 9.57742 14.2224 9.57742C14.5814 9.57742 15.1961 9.75353 16.6311 11.1124C18.2707 12.7227 18.5408 13.4455 19.4633 13.4455H21.8816C22.5725 13.4455 22.918 13.1062 22.7187 12.4365C22.5007 11.769 21.7178 10.8009 20.679 9.65292C20.1153 8.99852 19.2698 8.29389 19.0138 7.94166C18.655 7.48865 18.7575 7.28742 19.0138 6.88497C19.0138 6.88497 21.96 2.8082 22.2675 1.42406V1.42389Z" fill="#754FE0"/>
</svg>
