<svg width="23" height="17" viewBox="0 0 23 17" fill="none" xmlns="http://www.w3.org/2000/svg">
<path d="M22.4247 3.08085C22.1698 2.12296 21.4232 1.3677 20.4764 1.10981C18.7466 0.630859 11.8273 0.630859 11.8273 0.630859C11.8273 0.630859 4.90811 0.630859 3.1783 1.09138C2.24967 1.34928 1.48491 2.12296 1.22999 3.08085C0.77478 4.83085 0.77478 8.45979 0.77478 8.45979C0.77478 8.45979 0.77478 12.1072 1.22999 13.8387C1.48491 14.7966 2.23146 15.5519 3.1783 15.8098C4.92632 16.2887 11.8273 16.2887 11.8273 16.2887C11.8273 16.2887 18.7466 16.2887 20.4764 15.8282C21.4232 15.5703 22.1698 14.815 22.4247 13.8572C22.8799 12.1072 22.8799 8.47821 22.8799 8.47821C22.8799 8.47821 22.8981 4.83085 22.4247 3.08085Z" fill="#525F63"/>
<path d="M9.62598 11.8127L15.3799 8.46005L9.62598 5.10742V11.8127Z" fill="#1F1F1F"/>
</svg>
