<svg width="249" height="40" viewBox="0 0 249 40" fill="none" xmlns="http://www.w3.org/2000/svg">
<path d="M12.1302 16.4364L19.6989 8.86808L27.2715 16.4404L31.6754 12.0365L19.6989 0.0595703L7.72628 12.0325L12.1302 16.4364Z" fill="white"/>
<path d="M9.02 19.5416L4.61613 15.1377L0.212036 19.5418L4.61591 23.9457L9.02 19.5416Z" fill="white"/>
<path d="M12.1299 22.6577L19.6985 30.226L27.2709 22.654L31.6773 27.0555L31.6751 27.0579L19.6985 39.0345L7.71951 27.0558L12.1299 22.6577Z" fill="white"/>
<path d="M34.7816 23.9529L39.1857 19.5488L34.7818 15.145L30.3777 19.549L34.7816 23.9529Z" fill="white"/>
<path d="M24.1657 19.5467L19.6986 15.0778L15.2276 19.5489L15.2337 19.5554L19.6986 24.0203L24.1675 19.5514L24.1697 19.5489L24.1657 19.5467Z" fill="white"/>
<path d="M67.1114 18.3524C67.3741 18.1189 67.5785 17.9145 67.6953 17.7393C67.7829 17.5642 67.8704 17.4474 67.8996 17.389C68.1332 17.1263 68.3667 16.7468 68.5711 16.2505C68.7754 15.7542 68.8338 15.1703 68.8046 14.4697C68.7754 13.8858 68.6295 13.2727 68.3667 12.6597C68.0748 12.0466 67.6953 11.4919 67.199 10.9956C66.7027 10.4993 66.1188 10.1198 65.4474 9.79869C64.7759 9.47756 64.0169 9.33159 63.1703 9.33159H53.7115V29.7671H64.3964C65.3306 29.7671 66.1772 29.5919 66.9654 29.2124C67.7245 28.8621 68.3667 28.395 68.9214 27.8111C69.4761 27.2273 69.8848 26.5558 70.2059 25.7968C70.4979 25.0377 70.6438 24.2495 70.6438 23.4613C70.6438 22.9358 70.5562 22.4103 70.3811 21.8556C70.2059 21.301 69.9724 20.8047 69.6804 20.3376C69.3593 19.8705 69.009 19.4618 68.5711 19.1114C68.1332 18.7611 67.6369 18.4984 67.1114 18.3524ZM57.098 17.1847V12.6889H63.2287C63.4914 12.6889 63.7833 12.7472 64.0461 12.8348C64.3088 12.9516 64.5424 13.0976 64.7467 13.3019C64.9511 13.5063 65.097 13.7398 65.243 14.0026C65.389 14.2945 65.4474 14.6156 65.4474 14.9368C65.4474 15.6082 65.2138 16.1337 64.7759 16.5424C64.3088 16.9803 63.7833 17.1847 63.1703 17.1847H57.098ZM64.338 26.3806H57.098V20.5419H64.338C64.6883 20.5419 65.0387 20.6003 65.389 20.7463C65.7393 20.8922 66.0604 21.0966 66.3232 21.3593C66.5859 21.6221 66.8195 21.914 66.9946 22.2643C67.1406 22.6439 67.2282 23.0234 67.2282 23.4613C67.2282 23.87 67.1406 24.2495 66.9946 24.5998C66.8487 24.9794 66.6151 25.2713 66.3524 25.534C66.0896 25.7968 65.7685 26.0011 65.4182 26.1471C65.0679 26.2931 64.7175 26.3806 64.338 26.3806Z" fill="white"/>
<path d="M77.822 29.7671V9.33159H74.4647V29.7671H77.822Z" fill="white"/>
<path d="M86.3739 29.7671V15.6082L96.9711 29.7671H99.8613V9.33159H96.4748V23.4905L85.8776 9.33159H82.9874V29.7671H86.3739Z" fill="white"/>
<path d="M124.533 29.7671L120.621 21.2426L115.104 9.33159H112.301L105.733 23.5781L104.886 25.3589L102.872 29.7671H106.579L108.331 26.0011H119.074L120.826 29.7671H124.533ZM117.527 22.6439H109.878L110.929 20.3084L113.702 14.3237L117.527 22.6439Z" fill="white"/>
<path d="M130.731 29.7671V15.6082L141.328 29.7671H144.219V9.33159H140.832V23.4905L130.235 9.33159H127.345V29.7671H130.731Z" fill="white"/>
<path d="M157.138 29.7671C158.919 29.7671 160.495 29.3584 161.896 28.541C163.269 27.7527 164.436 26.6142 165.4 25.1545L162.422 23.5197C162.159 23.8992 161.896 24.2203 161.663 24.4831C161.4 24.7458 161.108 24.9794 160.758 25.2421C160.291 25.5632 159.765 25.8552 159.152 26.0595C158.539 26.2931 157.897 26.4098 157.196 26.3806C156.174 26.3806 155.299 26.2055 154.51 25.826C153.722 25.4464 153.08 24.9502 152.584 24.3371C152.058 23.724 151.679 22.9942 151.416 22.1768C151.153 21.3885 151.007 20.5419 150.978 19.6369C150.949 18.7611 151.066 17.9145 151.328 17.0679C151.591 16.2505 151.971 15.5206 152.496 14.8492C152.992 14.2069 153.664 13.6814 154.452 13.2727C155.24 12.8932 156.145 12.6889 157.196 12.6889C159.444 12.7472 161.167 13.7106 162.422 15.579L165.4 13.9442C164.903 13.1559 164.32 12.4553 163.706 11.8714C163.093 11.2876 162.364 10.7913 161.575 10.3826C161.021 10.1198 160.378 9.85707 159.649 9.62352C158.89 9.41917 158.043 9.30239 157.138 9.33159C155.474 9.36078 153.985 9.76949 152.613 10.4993C151.241 11.2584 150.131 12.3093 149.226 13.6522C148.672 14.4697 148.263 15.3747 148 16.3964C147.738 17.4182 147.592 18.4692 147.592 19.5493C147.592 20.6295 147.738 21.6805 148 22.7023C148.263 23.724 148.672 24.6582 149.226 25.4756C150.102 26.7602 151.241 27.7819 152.613 28.5702C153.985 29.3584 155.474 29.7671 157.138 29.7671Z" fill="white"/>
<path d="M172.038 17.8561V12.6889H183.628V9.33159H168.652V29.7671H183.628V26.3806H172.038V21.2426H182.314V17.8561H172.038Z" fill="white"/>
<path d="M203.783 9.33159H194.791V29.7671H198.149V22.3811H203.783C204.688 22.3811 205.535 22.206 206.323 21.8556C207.111 21.5345 207.783 21.0674 208.396 20.4543C208.979 19.8705 209.447 19.1698 209.797 18.3816C210.118 17.5934 210.293 16.776 210.293 15.871C210.293 14.966 210.118 14.1193 209.797 13.3311C209.447 12.5429 208.979 11.8422 208.396 11.2292C207.783 10.6453 207.111 10.1782 206.323 9.82788C205.535 9.50675 204.688 9.33159 203.783 9.33159ZM203.783 19.0239H198.149V12.6889H203.783C204.221 12.6889 204.63 12.7764 205.009 12.9224C205.389 13.0976 205.71 13.3311 206.002 13.623C206.294 13.915 206.527 14.2361 206.702 14.6156C206.848 14.9951 206.936 15.433 206.936 15.871C206.936 16.3089 206.848 16.6884 206.702 17.0679C206.527 17.4474 206.294 17.7977 206.002 18.0897C205.71 18.3816 205.389 18.6151 205.009 18.7611C204.63 18.9363 204.221 19.0239 203.783 19.0239Z" fill="white"/>
<path d="M230.607 29.7671L226.695 21.2426L221.177 9.33159H218.375L211.806 23.5781L210.96 25.3589L208.945 29.7671H212.653L214.404 26.0011H225.148L226.899 29.7671H230.607ZM223.6 22.6439H215.952L217.003 20.3084L219.776 14.3237L223.6 22.6439Z" fill="white"/>
<path d="M226.89 9.33159L236.232 20.6879V29.7671H239.619V20.6879L248.99 9.33159H244.611L237.926 17.4474L231.24 9.33159H226.89Z" fill="white"/>
</svg>
