<svg width="34" height="34" viewBox="0 0 34 34" fill="none" xmlns="http://www.w3.org/2000/svg">
<path d="M10.9565 14.1656L17.2879 7.83444L23.6227 14.1689L27.3068 10.4849L17.2879 0.46582L7.27249 10.4815L10.9565 14.1656Z" fill="white"/>
<path d="M8.35473 16.7632L4.67074 13.0792L0.986572 16.7634L4.67056 20.4474L8.35473 16.7632Z" fill="white"/>
<path d="M10.9563 19.3699L17.2877 25.7011L23.6222 19.3668L27.3083 23.0488L27.3065 23.0509L17.2877 33.0697L7.26683 23.0491L10.9563 19.3699Z" fill="white"/>
<path d="M29.9052 20.4534L33.5893 16.7692L29.9053 13.0852L26.2212 16.7694L29.9052 20.4534Z" fill="white"/>
<path d="M21.0246 16.7675L17.2878 13.0291L13.5476 16.7693L13.5527 16.7747L17.2878 20.5097L21.0261 16.7714L21.0279 16.7693L21.0246 16.7675Z" fill="white"/>
</svg>
