<svg width="27" height="33" viewBox="0 0 27 33" fill="none" xmlns="http://www.w3.org/2000/svg">
<path d="M0 7.09972L3.95009 14.1603V18.467L0.00462095 25.5136L0 7.09972Z" fill="white"/>
<path d="M15.1668 11.5914L18.8681 9.32276L26.4432 9.31569L15.1668 16.2237V11.5914Z" fill="white"/>
<path d="M15.1459 7.05836L15.1668 16.4063L11.2075 13.9735V0L15.1459 7.05836Z" fill="white"/>
<path d="M26.4432 9.31569L18.8679 9.32263L15.1459 7.05836L11.2075 0L26.4432 9.31569Z" fill="white"/>
<path d="M15.1668 25.5533V21.018L11.2075 18.6314L11.2096 32.6187L15.1668 25.5533Z" fill="white"/>
<path d="M18.8589 23.3048L3.95009 14.1603L0 7.09972L26.4272 23.2956L18.8589 23.3048Z" fill="white"/>
<path d="M11.2099 32.6185L15.1665 25.5531L18.8586 23.3051L26.4269 23.2959L11.2099 32.6185Z" fill="white"/>
<path d="M0.00464537 25.514L11.2398 18.6315L7.46258 16.314L3.95012 18.4674L0.00464537 25.514Z" fill="white"/>
</svg>
