<svg width="98" height="50" viewBox="0 0 98 50" fill="none" xmlns="http://www.w3.org/2000/svg">
<path d="M86.3452 26.5771H82.0032V18.0472H77.8224V26.5771H73.4803V14.4164H86.3452V26.5771Z" fill="white"/>
<path fill-rule="evenodd" clip-rule="evenodd" d="M64.5628 27.0117C68.4498 27.0117 71.3362 24.6285 71.3362 21.0155C71.3362 17.5185 69.2066 15.248 65.6475 15.248C64.005 15.248 62.6496 15.8262 61.6288 16.8239C61.8725 14.7619 63.6162 13.2565 65.536 13.2565C65.9791 13.2565 69.3148 13.2494 69.3148 13.2494L71.2011 9.63976C71.2011 9.63976 67.0132 9.73509 65.0664 9.73509C60.6183 9.81259 57.6137 13.8558 57.6137 18.7665C57.6137 24.4875 60.5441 27.0117 64.5628 27.0117ZM64.5865 18.4453C66.0297 18.4453 67.0302 19.3936 67.0302 21.0151C67.0302 22.4744 66.1412 23.6768 64.5865 23.6801C63.0993 23.6801 62.0988 22.566 62.0988 21.0399C62.0988 19.4181 63.0993 18.4453 64.5865 18.4453Z" fill="white"/>
<path d="M54.0795 22.5061C54.0795 22.5061 53.0541 23.0971 51.5226 23.209C49.7619 23.2613 48.1931 22.1492 48.1931 20.1734C48.1931 18.2461 49.5775 17.1415 51.4782 17.1415C52.6438 17.1415 54.1856 17.9493 54.1856 17.9493C54.1856 17.9493 55.3138 15.879 55.8982 14.8437C54.828 14.0325 53.4027 13.5878 51.7448 13.5878C47.5606 13.5878 44.3198 16.3159 44.3198 20.149C44.3198 24.031 47.3658 26.6956 51.7448 26.6152C52.9687 26.5696 54.6573 26.1398 55.6864 25.4787L54.0795 22.5061Z" fill="white"/>
<path d="M0.687622 11.0459L6.71079 21.8119V28.3789L0.694668 39.1238L0.687622 11.0459Z" fill="white"/>
<path d="M23.8142 17.8944L29.4581 14.4352L41.0087 14.4245L23.8142 24.958V17.8944Z" fill="white"/>
<path d="M23.7822 10.9824L23.8141 25.2363L17.7769 21.5267V0.219727L23.7822 10.9824Z" fill="white"/>
<path d="M41.0087 14.4245L29.4577 14.435L23.7822 10.9824L17.7769 0.219727L41.0087 14.4245Z" fill="white"/>
<path d="M23.8141 39.1834V32.2679L17.7769 28.6288L17.7802 49.9569L23.8141 39.1834Z" fill="white"/>
<path d="M29.444 35.7557L6.71079 21.8119L0.687622 11.0459L40.9843 35.7417L29.444 35.7557Z" fill="white"/>
<path d="M17.7806 49.957L23.8141 39.1834L29.4436 35.7557L40.9838 35.7417L17.7806 49.957Z" fill="white"/>
<path d="M0.694668 39.1238L17.8262 28.629L12.0666 25.0952L6.71079 28.3789L0.694668 39.1238Z" fill="white"/>
<path d="M48.1943 34.7607C48.0617 34.9298 47.8872 35.0574 47.6779 35.1437C47.4631 35.2311 47.2333 35.2756 47.0015 35.2746C46.7709 35.2778 46.5416 35.2393 46.3246 35.1611C46.1298 35.0903 45.9517 34.9799 45.8016 34.8369C45.6533 34.6937 45.537 34.5208 45.46 34.3296C45.3767 34.1202 45.3352 33.8964 45.3378 33.671C45.3378 33.4472 45.3763 33.24 45.4563 33.0435C45.533 32.8466 45.6445 32.6779 45.7841 32.5362C45.9238 32.3915 46.0913 32.2813 46.2794 32.1951C46.4714 32.1122 46.6807 32.0674 46.9107 32.0674C47.1586 32.0674 47.3886 32.0985 47.5979 32.1603C47.8072 32.2224 47.985 32.326 48.1313 32.4711L47.8768 32.9022C47.7538 32.7906 47.6088 32.7059 47.4512 32.6535C47.3013 32.6052 47.1448 32.5809 46.9874 32.5814C46.8481 32.5814 46.7155 32.6087 46.5866 32.6605C46.4595 32.7117 46.3435 32.7867 46.2446 32.8814C46.1436 32.9789 46.064 33.0963 46.0109 33.2263C45.9516 33.3606 45.9238 33.509 45.9238 33.6743C45.9238 33.8434 45.9549 33.9951 46.0142 34.1261C46.0739 34.2608 46.1539 34.3748 46.255 34.471C46.3561 34.568 46.4747 34.6401 46.6106 34.6886C46.747 34.7404 46.89 34.7644 47.0433 34.7644C47.2315 34.7644 47.4027 34.7263 47.549 34.6537C47.694 34.5837 47.8242 34.4867 47.9328 34.3678L48.1943 34.7607ZM48.9126 35.2021V32.1329H49.4639V34.4196L51.2565 32.1329H51.8077V35.2025H51.2565V32.9158L49.4639 35.2025L48.9126 35.2021ZM55.4593 34.7607C55.3237 34.9312 55.1457 35.0632 54.9432 35.1437C54.7283 35.231 54.4984 35.2755 54.2664 35.2746C54.0359 35.2777 53.8068 35.2393 53.59 35.1611C53.395 35.0903 53.2168 34.9799 53.0665 34.8369C52.9183 34.6937 52.8019 34.5208 52.725 34.3296C52.6417 34.1202 52.6002 33.8964 52.6027 33.671C52.6027 33.4472 52.6412 33.24 52.7212 33.0435C52.7983 32.8466 52.9098 32.6779 53.0491 32.5362C53.1888 32.3915 53.3562 32.2813 53.5444 32.1951C53.7432 32.1075 53.9585 32.064 54.1756 32.0674C54.4235 32.0674 54.6535 32.0985 54.8628 32.1603C55.0722 32.2224 55.25 32.326 55.3967 32.4711L55.1418 32.9022C55.0189 32.7905 54.8741 32.7058 54.7165 32.6535C54.5667 32.6052 54.4102 32.5809 54.2527 32.5814C53.9757 32.5823 53.7096 32.6897 53.5096 32.8814C53.4094 32.9796 53.3299 33.0969 53.2758 33.2263C53.2165 33.3606 53.1888 33.509 53.1888 33.6743C53.1888 33.8434 53.2203 33.9951 53.2795 34.1261C53.3388 34.2608 53.4188 34.3748 53.5199 34.471C53.6211 34.568 53.74 34.6401 53.876 34.6886C54.0119 34.7366 54.1549 34.7644 54.3083 34.7644C54.4969 34.7644 54.6643 34.7263 54.8139 34.6537C54.9589 34.5837 55.0892 34.4867 55.1977 34.3678L55.4593 34.7607ZM55.7419 32.1329H58.5703V32.6779H57.4334V35.2021H56.8822V32.6779H55.7453V32.1329H55.7419Z" fill="white"/>
<path fill-rule="evenodd" clip-rule="evenodd" d="M61.1447 35.1717C61.354 35.1063 61.5318 35.006 61.6851 34.8684L61.5177 34.4406C61.4166 34.5305 61.2806 34.6064 61.1169 34.6686C60.9528 34.7307 60.7679 34.7614 60.5656 34.7614C60.2622 34.7614 60.0111 34.6822 59.8121 34.5202C59.6136 34.3577 59.5054 34.1306 59.4809 33.8404H61.8667C61.8911 33.7335 61.9015 33.6129 61.9015 33.4716C61.9015 33.261 61.8629 33.0716 61.7863 32.8992C61.7149 32.7317 61.6106 32.5804 61.4795 32.454C61.3467 32.3289 61.1901 32.2316 61.0191 32.168C60.84 32.0986 60.6495 32.0634 60.4575 32.0644C60.1992 32.0644 59.9725 32.1092 59.774 32.1921C59.5863 32.271 59.4165 32.3872 59.275 32.5336C59.1375 32.6792 59.0319 32.8518 58.9649 33.0405C58.8912 33.2414 58.8546 33.454 58.8567 33.668C58.8567 33.9097 58.8986 34.1302 58.9753 34.327C59.0499 34.5178 59.164 34.6905 59.3102 34.834C59.4532 34.9749 59.6273 35.0822 59.8333 35.1581C60.0538 35.2363 60.2865 35.2747 60.5205 35.2716C60.7324 35.2703 60.9428 35.2364 61.1447 35.1717ZM59.7495 32.8092C59.9203 32.6542 60.147 32.5784 60.433 32.5784C60.7016 32.5784 60.9179 32.6509 61.075 32.796C61.2321 32.9406 61.3154 33.1408 61.3295 33.3957H59.4461C59.4728 33.17 59.5807 32.9613 59.7495 32.8092Z" fill="white"/>
<path d="M62.6513 32.1332H63.1536L64.3465 33.6543L65.4764 32.1332H65.9646V35.2028H65.4138V32.9646L64.3395 34.3888H64.3183L63.2025 32.9642V35.2024H62.6513V32.1332Z" fill="white"/>
<path fill-rule="evenodd" clip-rule="evenodd" d="M67.4642 32.1435C67.2969 32.1872 67.1371 32.2556 66.99 32.3466L67.1364 32.7818C67.2619 32.7196 67.3875 32.6678 67.5131 32.6231C67.6387 32.5779 67.7991 32.5571 67.991 32.5571C68.1444 32.5571 68.2666 32.5816 68.3607 32.6297C68.4548 32.6744 68.5244 32.7437 68.5733 32.8266C68.6222 32.9095 68.6537 33.0127 68.6712 33.1333C68.6886 33.2539 68.6956 33.3849 68.6956 33.5266C68.5828 33.448 68.4543 33.395 68.3189 33.3712C68.1879 33.3451 68.0549 33.3313 67.9214 33.3297C67.7572 33.3297 67.6039 33.3542 67.4572 33.3952C67.3108 33.4367 67.1853 33.4988 67.0841 33.5817C66.9809 33.6645 66.8975 33.7693 66.84 33.8884C66.7786 34.0189 66.7475 34.1616 66.7492 34.3058C66.7492 34.6059 66.8367 34.8405 67.0108 35.0063C67.1853 35.1717 67.4153 35.2541 67.7013 35.2541C67.9595 35.2541 68.1655 35.2094 68.3222 35.1199C68.4793 35.0299 68.6048 34.9267 68.6956 34.8094V35.2061H69.2116V33.3231C69.2116 32.9227 69.1246 32.6127 68.9468 32.3951C68.7723 32.1779 68.4619 32.0676 68.0225 32.0676C67.8269 32.0676 67.642 32.095 67.4642 32.1435ZM68.3856 34.6304C68.26 34.7199 68.0959 34.7609 67.8936 34.7609C67.7158 34.7609 67.5761 34.7162 67.4787 34.6299C67.3809 34.5404 67.332 34.4231 67.332 34.2781C67.332 34.1923 67.3494 34.1197 67.3879 34.0542C67.4265 33.9887 67.4787 33.9369 67.538 33.8955C67.6028 33.8521 67.6748 33.8206 67.7506 33.8022C67.831 33.7815 67.911 33.7711 67.9947 33.7711C68.267 33.7711 68.5004 33.8366 68.6923 33.9747V34.3643C68.6019 34.4656 68.4988 34.5553 68.3856 34.6304ZM74.0776 31.0534C74.1891 31.002 74.2935 30.9158 74.3913 30.7882L74.0913 30.3571C74.0146 30.4607 73.9276 30.5328 73.8297 30.571C73.7261 30.6115 73.6186 30.6415 73.5089 30.6605L73.4045 30.6792C73.3137 30.6949 73.2163 30.7123 73.1114 30.7297C72.9433 30.7608 72.7794 30.8117 72.6232 30.8814C72.3753 30.9884 72.1768 31.133 72.0268 31.3158C71.8767 31.4986 71.7582 31.7054 71.6778 31.9334C71.5963 32.1643 71.5414 32.4037 71.514 32.6471C71.4859 32.8958 71.4722 33.1333 71.4722 33.3608C71.4722 33.6543 71.5103 33.9195 71.587 34.1574C71.6641 34.3958 71.7719 34.5955 71.9148 34.7576C72.0578 34.9234 72.229 35.0477 72.4313 35.1373C72.6336 35.2268 72.8603 35.2716 73.1148 35.2716C73.3485 35.2716 73.5649 35.2268 73.7601 35.1439C73.9483 35.0642 74.119 34.9483 74.2624 34.8028C74.4017 34.661 74.5136 34.4919 74.5903 34.3025C74.6703 34.1127 74.7088 33.9092 74.7088 33.6953C74.7088 33.4644 74.674 33.2543 74.6077 33.0678C74.5466 32.89 74.4492 32.7268 74.3217 32.5886C74.1939 32.4528 74.0379 32.3467 73.8646 32.2778C73.6737 32.2026 73.47 32.1652 73.2648 32.1675C73.1322 32.1675 73.0033 32.1849 72.8777 32.2193C72.7555 32.2538 72.6382 32.3036 72.5287 32.3677C72.4224 32.4286 72.325 32.5039 72.2394 32.5915C72.1557 32.6782 72.086 32.7747 72.0371 32.885H72.023C72.0338 32.7437 72.0512 32.599 72.0823 32.4506C72.1138 32.3022 72.159 32.1605 72.2187 32.0262C72.2779 31.8919 72.3546 31.7709 72.4487 31.6606C72.5496 31.5493 72.6733 31.4611 72.8114 31.402C72.9632 31.3297 73.1239 31.2776 73.2893 31.247L73.3987 31.2271C73.5077 31.2072 73.6117 31.1881 73.7112 31.1674C73.8438 31.1401 73.9657 31.1048 74.0776 31.0534ZM72.1383 34.0024C72.0843 33.8283 72.0584 33.6467 72.0616 33.4644C72.085 33.3598 72.1275 33.2605 72.1872 33.1714C72.2464 33.0781 72.3231 32.9957 72.4139 32.9227C72.6187 32.7622 72.872 32.676 73.1322 32.6782C73.4567 32.6782 73.7008 32.7781 73.8716 32.9749C74.0428 33.1747 74.1265 33.423 74.1265 33.7231C74.1265 33.8715 74.0983 34.0062 74.0498 34.1301C74.0027 34.2523 73.9315 34.3639 73.8404 34.4581C73.7493 34.5523 73.6403 34.6272 73.5197 34.6784C73.3941 34.7336 73.2578 34.7613 73.1044 34.7613C72.951 34.7613 72.8114 34.7302 72.6825 34.6681C72.5543 34.6072 72.4412 34.5189 72.3509 34.4094C72.2564 34.2875 72.1844 34.1497 72.1383 34.0024ZM78.9361 32.1331H78.3848V35.2028H78.9361V32.1331ZM76.0551 32.1331V33.0541H76.5644C76.8048 33.0541 77.0001 33.0852 77.1571 33.1436C77.3142 33.2025 77.4398 33.2817 77.5339 33.3782C77.628 33.4748 77.6943 33.5888 77.7329 33.716C77.771 33.8437 77.7921 33.9747 77.7921 34.1127C77.7921 34.2507 77.771 34.3821 77.7258 34.5131C77.6839 34.644 77.6106 34.7576 77.5128 34.8612C77.4154 34.9648 77.2827 35.0477 77.1153 35.1099C76.9478 35.1717 76.7456 35.2061 76.5014 35.2061H75.5005V32.1331H76.0551ZM76.0551 34.6921H76.4563C76.7319 34.6921 76.9271 34.644 77.0386 34.547C77.1505 34.4505 77.2061 34.3129 77.2061 34.1301C77.2061 33.9436 77.1468 33.8027 77.0353 33.7057C76.9201 33.6091 76.7282 33.5606 76.4633 33.5606H76.0551V34.6921Z" fill="white"/>
<path d="M82.581 34.7607C82.4483 34.9298 82.2738 35.0574 82.0645 35.1437C81.8497 35.231 81.6199 35.2755 81.3881 35.2746C81.1575 35.2778 80.9282 35.2393 80.7113 35.1611C80.5163 35.0904 80.3382 34.98 80.1882 34.8369C80.04 34.6936 79.9235 34.5208 79.8462 34.3296C79.7633 34.1201 79.7219 33.8964 79.7244 33.671C79.7244 33.4472 79.7625 33.24 79.8429 33.0435C79.9196 32.8466 80.0311 32.6779 80.1708 32.5362C80.3105 32.3915 80.4775 32.2813 80.6661 32.1951C80.8648 32.1075 81.0802 32.064 81.2973 32.0674C81.5448 32.0674 81.7752 32.0985 81.9845 32.1603C82.1938 32.2224 82.3716 32.326 82.518 32.4711L82.2635 32.9022C82.1404 32.7906 81.9954 32.7059 81.8378 32.6535C81.688 32.6052 81.5314 32.5809 81.374 32.5814C81.2347 32.5814 81.1021 32.6087 80.9728 32.6605C80.8459 32.7117 80.73 32.7867 80.6313 32.8814C80.531 32.9795 80.4515 33.0968 80.3975 33.2263C80.3382 33.3606 80.3104 33.509 80.3104 33.6743C80.3104 33.8434 80.3415 33.9951 80.4008 34.1261C80.4601 34.2608 80.5405 34.3748 80.6416 34.471C80.7428 34.568 80.8613 34.6401 80.9972 34.6886C81.1336 34.7366 81.2766 34.7644 81.43 34.7644C81.6181 34.7644 81.7856 34.7263 81.9356 34.6537C82.0806 34.5837 82.2109 34.4867 82.3194 34.3678L82.581 34.7607ZM82.8632 32.1329H85.692V32.6779H84.5547V35.2021H84.0039V32.6779H82.8669V32.1329H82.8632Z" fill="white"/>
<path fill-rule="evenodd" clip-rule="evenodd" d="M86.843 32.1334H86.2918V36.5683H86.843V35.0613C86.9545 35.1338 87.0872 35.1856 87.2405 35.22C87.3939 35.2544 87.5543 35.2714 87.7184 35.2714C87.9625 35.2714 88.1822 35.2267 88.3812 35.1442C88.572 35.0626 88.7449 34.9443 88.8901 34.796C89.0331 34.6472 89.1413 34.4748 89.218 34.2713C89.2947 34.0682 89.3332 33.8506 89.3332 33.6197C89.3332 33.3918 89.2984 33.1816 89.2321 32.9918C89.1696 32.8115 89.0725 32.6452 88.9461 32.5023C88.8221 32.3629 88.6682 32.2533 88.496 32.1815C88.3077 32.1006 88.1044 32.0606 87.8996 32.0642C87.6836 32.0642 87.4813 32.1057 87.2894 32.1886C87.0975 32.2714 86.9475 32.3709 86.843 32.4953V32.1334ZM87.2269 32.7025C87.3839 32.6196 87.5547 32.5782 87.7396 32.5782C87.9 32.5782 88.043 32.6022 88.1723 32.654C88.2979 32.7058 88.4023 32.7784 88.4898 32.8749C88.5768 32.9715 88.6431 33.0822 88.685 33.2127C88.7302 33.3437 88.7513 33.4855 88.7513 33.6405C88.7513 33.8063 88.7231 33.9542 88.6746 34.0922C88.6289 34.2231 88.5563 34.343 88.4616 34.4441C88.3664 34.5441 88.2511 34.6228 88.1234 34.675C87.9809 34.7347 87.8276 34.764 87.6732 34.7612C87.5236 34.7612 87.3839 34.7442 87.2513 34.7098C87.1061 34.6703 86.9683 34.6073 86.8435 34.5233V33.0022C86.9409 32.8853 87.0702 32.7854 87.2269 32.7025ZM93.5605 32.133H93.0092V35.2026H93.5605V32.133ZM90.6761 32.133V33.054H91.1851C91.4259 33.054 91.6211 33.0851 91.7782 33.1435C91.9353 33.2024 92.0609 33.2815 92.155 33.3781C92.2491 33.4747 92.3154 33.5887 92.3535 33.7159C92.3921 33.8436 92.4128 33.9745 92.4128 34.1126C92.4128 34.2506 92.3921 34.382 92.3469 34.5129C92.305 34.6439 92.2317 34.7575 92.1338 34.8611C92.0364 34.9647 91.9038 35.0476 91.7364 35.1098C91.5689 35.1715 91.3666 35.2059 91.1225 35.2059H90.1216V32.133H90.6761ZM90.6799 34.692H91.0811C91.3563 34.692 91.5519 34.6439 91.6634 34.5469C91.7749 34.4504 91.8309 34.3127 91.8309 34.13C91.8309 33.9434 91.7716 33.8025 91.6601 33.7055C91.5449 33.609 91.353 33.5605 91.0881 33.5605H90.6799V34.692Z" fill="white"/>
<path d="M96.2044 33.6129L97.3832 35.2028H96.7067L95.7961 33.961L94.8719 35.2028H94.2303L95.402 33.6402L94.2999 32.1332H94.9767L95.8173 33.2921L96.6715 32.1332H97.3135L96.2044 33.6129ZM47.7865 38.9965H46.095V41.5555H45.5438V38.4863H48.3373V41.5555H47.7865V38.9965ZM51.4658 39.0309H50.3778L50.3426 39.5482C50.3045 39.9863 50.2522 40.3382 50.1789 40.6068C50.1055 40.8762 50.0147 41.083 49.9103 41.2276C49.8058 41.3727 49.6836 41.4726 49.5439 41.5211C49.3998 41.5733 49.2474 41.599 49.0942 41.5969L49.0523 41.0656C49.1116 41.0689 49.1812 41.0552 49.2579 41.0208C49.335 40.9864 49.4117 40.9106 49.4846 40.797C49.558 40.6793 49.6243 40.5139 49.6836 40.3C49.7428 40.0829 49.7814 39.8002 49.8021 39.4446L49.8581 38.4892H52.0171V41.5588H51.4658V39.0309Z" fill="white"/>
<path fill-rule="evenodd" clip-rule="evenodd" d="M53.5029 38.493C53.3247 38.5411 53.1643 38.6099 53.0284 38.6961L53.1751 39.1309C53.3007 39.0687 53.4263 39.0169 53.5514 38.9721C53.677 38.9274 53.8379 38.9066 54.0293 38.9066C54.1831 38.9066 54.305 38.9307 54.3991 38.9788C54.4936 39.0239 54.5632 39.0927 54.6121 39.1756C54.6606 39.2585 54.6921 39.3621 54.7095 39.4823C54.7269 39.6034 54.7339 39.7343 54.7339 39.8757C54.6211 39.7972 54.4926 39.7443 54.3572 39.7207C54.2263 39.6946 54.0932 39.6807 53.9597 39.6792C53.796 39.6792 53.6422 39.7033 53.4959 39.7447C53.3492 39.7862 53.2236 39.8483 53.1225 39.9312C53.0192 40.014 52.9358 40.1188 52.8783 40.2379C52.817 40.3684 52.7861 40.5111 52.788 40.6553C52.788 40.955 52.875 41.19 53.0495 41.3554C53.2236 41.5207 53.454 41.6036 53.74 41.6036C53.9982 41.6036 54.2038 41.5589 54.3609 41.4689C54.5176 41.3794 54.6432 41.2758 54.7339 41.1585V41.5551H55.2504V39.6722C55.2504 39.2722 55.1629 38.9618 54.9851 38.7446C54.8106 38.527 54.5002 38.4171 54.0608 38.4171C53.8723 38.4173 53.6847 38.4431 53.5029 38.493ZM54.4272 40.979C54.3021 41.069 54.1379 41.1104 53.9357 41.1104C53.7541 41.1104 53.6182 41.0656 53.5208 40.979C53.423 40.8895 53.3741 40.7722 53.3741 40.6275C53.3741 40.5413 53.3915 40.4688 53.43 40.4033C53.4681 40.3378 53.5208 40.286 53.58 40.2446C53.6393 40.2031 53.7123 40.172 53.7927 40.1513C53.8724 40.1307 53.9544 40.1204 54.0368 40.1206C54.3087 40.1206 54.5425 40.1861 54.7344 40.3237V40.7133C54.6438 40.8147 54.5406 40.904 54.4272 40.979Z" fill="white"/>
<path d="M55.7904 38.4859H58.6192V39.0306H57.4819V41.5551H56.9311V39.031H55.7942V38.4859H55.7904Z" fill="white"/>
<path fill-rule="evenodd" clip-rule="evenodd" d="M61.1936 41.5244C61.4029 41.4589 61.5807 41.3586 61.7341 41.221L61.5666 40.7933C61.4655 40.8832 61.3295 40.9591 61.1654 41.0212C61.0017 41.0834 60.8168 41.1141 60.6146 41.1141C60.3112 41.1141 60.06 41.0349 59.861 40.8729C59.6621 40.7108 59.5543 40.4832 59.5299 40.1931H61.9156C61.9396 40.0866 61.9504 39.9656 61.9504 39.8242C61.9504 39.6141 61.9119 39.4243 61.8352 39.2518C61.7638 39.0844 61.6593 38.9332 61.5281 38.8071C61.3955 38.6817 61.239 38.5843 61.068 38.5207C60.8889 38.4513 60.6984 38.4161 60.5064 38.4171C60.2482 38.4171 60.0214 38.4618 59.8229 38.5447C59.6351 38.6235 59.4653 38.7397 59.3239 38.8863C59.1865 39.032 59.0807 39.2046 59.0134 39.3932C58.9399 39.5941 58.9033 39.8067 58.9053 40.0207C58.9053 40.2623 58.9471 40.4828 59.0238 40.6797C59.1009 40.8762 59.2157 41.0453 59.3587 41.1866C59.5017 41.3279 59.6762 41.4349 59.8822 41.5107C60.1026 41.5891 60.3351 41.6277 60.569 41.6247C60.775 41.6247 60.9843 41.5899 61.1936 41.5244ZM59.7951 39.1586C59.9659 39.0036 60.1926 38.9277 60.4786 38.9277C60.7509 38.9277 60.9635 39.0036 61.1206 39.1449C61.2773 39.29 61.361 39.4897 61.3751 39.7451H59.4917C59.5183 39.5192 59.6262 39.3108 59.7951 39.1586ZM62.219 38.4863H62.9166L63.9801 39.966L62.8432 41.5555H62.1668L63.3592 39.9656L62.219 38.4863ZM64.1161 38.4863H64.6673V41.5555H64.1161V38.4863ZM66.6377 41.5555L65.4241 39.9656L66.5577 38.4859H65.8738L64.8033 39.9656L65.9543 41.5555H66.6377ZM69.1561 41.5244C69.3654 41.4589 69.5432 41.3586 69.6966 41.221L69.5291 40.7933C69.428 40.8832 69.292 40.9591 69.1283 41.0212C68.9642 41.0834 68.7793 41.1141 68.5771 41.1141C68.2737 41.1141 68.0225 41.0349 67.8235 40.8729C67.625 40.7108 67.5168 40.4832 67.4924 40.1931H69.8781C69.9026 40.0866 69.9129 39.9656 69.9129 39.8242C69.9129 39.6141 69.8748 39.4243 69.7977 39.2518C69.7263 39.0845 69.622 38.9333 69.491 38.8071C69.3583 38.6817 69.2016 38.5843 69.0305 38.5207C68.8515 38.4512 68.6609 38.4161 68.4689 38.4171C68.2111 38.4171 67.9844 38.4618 67.7854 38.5447C67.5978 38.6236 67.4281 38.7398 67.2868 38.8863C67.1491 39.0317 67.0434 39.2044 66.9764 39.3932C66.9027 39.5941 66.866 39.8067 66.8682 40.0207C66.8682 40.2623 66.91 40.4828 66.9867 40.6797C67.0634 40.8762 67.1786 41.0453 67.3216 41.1866C67.4646 41.3279 67.6387 41.4349 67.8447 41.5107C68.0652 41.5891 68.2979 41.6277 68.5319 41.6247C68.7438 41.6231 68.9543 41.5893 69.1561 41.5244ZM67.7576 39.1586C67.9288 39.0036 68.1555 38.9277 68.4415 38.9277C68.7101 38.9277 68.926 39.0036 69.0831 39.1449C69.2402 39.29 69.3239 39.4897 69.3376 39.7451H67.4542C67.4808 39.5192 67.5887 39.3108 67.7576 39.1586ZM72.149 37.4551C71.8245 37.4551 71.6467 37.2756 71.6189 36.9171H71.0992C71.0992 37.0547 71.1236 37.179 71.1688 37.2963C71.2144 37.4136 71.2807 37.5135 71.3677 37.5964C71.4548 37.6793 71.5667 37.7448 71.6956 37.7962C71.8245 37.848 71.9745 37.872 72.1453 37.872C72.3024 37.872 72.4421 37.848 72.5676 37.7962C72.6932 37.7481 72.7977 37.6793 72.8884 37.5964C72.9755 37.5135 73.0455 37.4136 73.094 37.2963C73.1429 37.179 73.1674 37.0547 73.1674 36.9171H72.6514C72.6269 37.2756 72.4557 37.4551 72.149 37.4551ZM70.6594 38.4859V41.5555H71.2106L73.0033 39.2688V41.5555H73.5545V38.4859H73.0033L71.2106 40.7725V38.4859H70.6594Z" fill="white"/>
</svg>
