<svg width="244" height="39" viewBox="0 0 244 39" fill="none" xmlns="http://www.w3.org/2000/svg">
<path d="M29.7575 28.0631H24.3512L27.7327 7.5536H33.1387L29.7575 28.0631Z" fill="white"/>
<path d="M49.3537 8.05383C48.2874 7.63885 46.596 7.18066 44.5047 7.18066C39.1658 7.18066 35.4062 9.9733 35.3831 13.9659C35.3388 16.9117 38.0749 18.5478 40.1213 19.53C42.2129 20.5337 42.9239 21.1888 42.9239 22.0834C42.9027 23.4574 41.2338 24.0908 39.6773 24.0908C37.5188 24.0908 36.3623 23.7642 34.6047 22.9998L33.8928 22.6721L33.1363 27.276C34.4043 27.8427 36.7404 28.3455 39.1658 28.3676C44.8385 28.3676 48.5316 25.6181 48.5753 21.3634C48.5969 19.0286 47.1521 17.2397 44.0373 15.7778C42.1464 14.8394 40.9884 14.2066 40.9884 13.2465C41.0106 12.3736 41.9678 11.4795 44.1023 11.4795C45.8599 11.4357 47.1512 11.8501 48.1295 12.2648L48.6185 12.4826L49.3537 8.05383Z" fill="white"/>
<path d="M56.5427 20.7973C56.9879 19.6191 58.7012 15.0589 58.7012 15.0589C58.6787 15.1027 59.1455 13.8589 59.4125 13.0954L59.7903 14.8626C59.7903 14.8626 60.8141 19.7719 61.0364 20.7973C60.1915 20.7973 57.6106 20.7973 56.5427 20.7973ZM63.2161 7.5536H59.0343C57.7448 7.5536 56.765 7.92421 56.2086 9.25528L48.1783 28.0628H53.8509C53.8509 28.0628 54.7849 25.5314 54.9856 24.9863C55.6079 24.9863 61.1263 24.9863 61.9268 24.9863C62.0821 25.7063 62.5719 28.0628 62.5719 28.0628H67.5776L63.2161 7.5536Z" fill="white"/>
<path d="M19.839 7.5536L14.5444 21.5391L13.9659 18.7027C12.987 15.4298 9.91714 11.8739 6.4913 10.1058L11.3409 28.0413H17.0579L25.5557 7.5536H19.839Z" fill="white"/>
<path d="M9.62595 7.5536H0.927731L0.838745 7.968C7.6239 9.66997 12.1176 13.7725 13.9638 18.7036L12.0729 9.27761C11.7616 7.96771 10.8049 7.59681 9.62595 7.5536Z" fill="white"/>
<path fill-rule="evenodd" clip-rule="evenodd" d="M223.369 16.8462V27.8714H229.625V21.4327H236.402C239.356 21.4327 241.858 19.5187 242.788 16.8462H223.369Z" fill="white"/>
<path fill-rule="evenodd" clip-rule="evenodd" d="M236.404 7.67423H222.493C223.189 11.5198 226.03 14.6068 229.705 15.6123C230.539 15.8417 231.416 15.9651 232.32 15.9651H243.042C243.137 15.5065 243.181 15.039 243.181 14.5539C243.181 10.7524 240.148 7.67423 236.404 7.67423Z" fill="white"/>
<path fill-rule="evenodd" clip-rule="evenodd" d="M214.682 7.67423C214.682 7.67423 212.849 7.84181 211.989 9.79106L207.558 19.6696H207.036V7.67423H200.781V27.8723H206.689C206.689 27.8723 208.609 27.6959 209.469 25.7555L213.813 15.8769H214.335V27.8723H220.59V7.67423H214.682Z" fill="white"/>
<path fill-rule="evenodd" clip-rule="evenodd" d="M191.832 7.67383V7.68265C191.824 7.68265 189.087 7.67383 188.357 10.3287C187.688 12.763 185.803 19.484 185.75 19.6692H185.229C185.229 19.6692 183.3 12.7983 182.623 10.3199C181.893 7.66501 179.147 7.67383 179.147 7.67383H172.892V27.8719H179.147V15.8765H179.669L183.318 27.8719H187.662L191.311 15.8854H191.832V27.8719H198.088V7.67383H191.832Z" fill="white"/>
<path d="M125.521 3.49253H114.952V22.5828H125.521V3.49253Z" fill="#141415"/>
<path d="M115.621 13.0363C115.62 11.1978 116.034 9.38299 116.833 7.72928C117.633 6.07557 118.796 4.62632 120.234 3.49122C118.453 2.08344 116.313 1.20796 114.059 0.964847C111.806 0.721737 109.53 1.12079 107.492 2.11643C105.453 3.11206 103.735 4.6641 102.532 6.59513C101.33 8.52615 100.692 10.7583 100.692 13.0363C100.692 15.3144 101.33 17.5465 102.532 19.4775C103.735 21.4086 105.453 22.9606 107.492 23.9562C109.53 24.9519 111.806 25.3509 114.059 25.1078C116.313 24.8647 118.453 23.9892 120.234 22.5814C118.796 21.4463 117.633 19.9971 116.833 18.3434C116.034 16.6897 115.62 14.8749 115.621 13.0363Z" fill="white"/>
<path d="M139.778 13.0363C139.778 15.3144 139.141 17.5465 137.938 19.4775C136.736 21.4085 135.017 22.9606 132.979 23.9562C130.941 24.9519 128.665 25.3509 126.411 25.1078C124.158 24.8647 122.018 23.9892 120.237 22.5815C121.674 21.4452 122.836 19.9957 123.635 18.3423C124.434 16.6888 124.85 14.8746 124.85 13.0363C124.85 11.1981 124.434 9.38386 123.635 7.73041C122.836 6.07696 121.674 4.62747 120.237 3.49123C122.018 2.08344 124.158 1.20795 126.411 0.964844C128.665 0.721736 130.941 1.12081 132.979 2.11646C135.017 3.1121 136.736 4.66414 137.938 6.59517C139.141 8.5262 139.778 10.7583 139.778 13.0363Z" fill="white"/>
<path d="M100.05 35.4967V38.3667H101.19V35.4967C101.19 35.2411 101.15 34.9856 101.062 34.7398C100.974 34.4941 100.846 34.2681 100.689 34.0715C100.531 33.8749 100.345 33.7176 100.118 33.5899C99.8924 33.4719 99.6369 33.4129 99.3616 33.4129C98.9193 33.4129 98.5262 33.5309 98.1822 33.7766C98.0839 33.8356 97.9954 33.8946 97.9266 33.9634C97.8578 34.0322 97.7989 34.101 97.7595 34.1501C97.6121 33.9339 97.4057 33.757 97.1502 33.6194C96.8946 33.4817 96.6391 33.4129 96.3737 33.4129C96.1476 33.4129 95.9314 33.4523 95.7446 33.5309C95.5579 33.6194 95.381 33.7275 95.2139 33.8651V33.4129H94.0737V38.3667H95.2139V35.4967C95.2139 35.3689 95.2335 35.2411 95.2827 35.133C95.3318 35.0249 95.3908 34.9266 95.4793 34.8381C95.5677 34.7595 95.666 34.6907 95.7839 34.6415C95.8921 34.5924 96.01 34.5728 96.1378 34.5728C96.2656 34.5728 96.3835 34.5924 96.4916 34.6415C96.5997 34.6907 96.698 34.7595 96.7865 34.8381C96.8749 34.9266 96.9438 35.0249 96.9929 35.133C97.042 35.2411 97.0617 35.3689 97.0617 35.4967V38.3667H98.2018V35.4967C98.2018 35.3689 98.2313 35.2509 98.2805 35.1428C98.3296 35.0347 98.3886 34.9364 98.477 34.848C98.5557 34.7595 98.654 34.6907 98.7719 34.6415C98.88 34.5924 98.998 34.5728 99.1258 34.5728C99.2535 34.5728 99.3715 34.5924 99.4796 34.6415C99.5877 34.6907 99.686 34.7497 99.7745 34.8381C99.8629 34.9266 99.9317 35.0249 99.9809 35.133C100.03 35.2411 100.05 35.3689 100.05 35.4967Z" fill="white"/>
<path d="M104.554 33.4129C104.21 33.4129 103.856 33.4621 103.472 33.5505C103.089 33.639 102.755 33.7864 102.47 33.983L102.794 34.8873C102.991 34.7398 103.236 34.6219 103.541 34.5236C103.846 34.4351 104.141 34.386 104.436 34.386C104.593 34.386 104.74 34.4057 104.888 34.4351C105.025 34.4646 105.153 34.5236 105.261 34.5924C105.369 34.6612 105.468 34.7595 105.536 34.8774C105.605 34.9954 105.645 35.1428 105.654 35.3099V35.4082C105.32 35.3197 104.966 35.2706 104.583 35.2706C104.288 35.2706 104.003 35.3001 103.718 35.3689C103.433 35.4377 103.178 35.536 102.951 35.6834C102.725 35.8308 102.548 36.0176 102.421 36.2436C102.293 36.4697 102.234 36.7548 102.244 37.0791C102.254 37.3248 102.313 37.5312 102.421 37.6983C102.529 37.8654 102.666 38.003 102.834 38.1111C103.001 38.2192 103.187 38.3077 103.404 38.3568C103.61 38.406 103.826 38.4355 104.042 38.4355C104.426 38.4355 104.77 38.3962 105.074 38.3175C105.379 38.2389 105.615 38.1013 105.763 37.9047V38.3667H106.912V35.536C106.912 34.8185 106.716 34.2877 106.313 33.9339C105.91 33.5899 105.32 33.4129 104.554 33.4129ZM105.664 36.2535V36.8924C105.615 37.0201 105.556 37.1381 105.468 37.2265C105.379 37.315 105.271 37.3936 105.163 37.4526C105.055 37.5116 104.937 37.5509 104.809 37.5804C104.681 37.6099 104.554 37.6197 104.426 37.6197C104.16 37.6295 103.964 37.5902 103.816 37.5116C103.669 37.4428 103.571 37.3347 103.502 37.1872C103.453 37.0398 103.463 36.8924 103.541 36.7547C103.561 36.6368 103.61 36.5385 103.679 36.4501C103.748 36.3616 103.846 36.2928 103.954 36.2338C104.062 36.1847 104.18 36.1355 104.318 36.106C104.455 36.0766 104.603 36.0667 104.75 36.0667C104.898 36.0667 105.055 36.0766 105.222 36.106C105.379 36.1355 105.527 36.1847 105.664 36.2535Z" fill="white"/>
<path d="M108.565 36.9906L107.985 37.7475C108.172 37.9342 108.417 38.0816 108.712 38.1898C109.007 38.3077 109.322 38.3667 109.646 38.3667L110.177 38.3765C110.442 38.3765 110.698 38.3372 110.934 38.2684C111.16 38.1996 111.366 38.0915 111.533 37.9539C111.7 37.8261 111.828 37.6688 111.926 37.4821C112.015 37.2953 112.064 37.0988 112.064 36.8825C112.064 36.6368 112.025 36.4304 111.946 36.2633C111.858 36.0962 111.749 35.9488 111.612 35.8407C111.464 35.7326 111.307 35.6441 111.12 35.5753C110.934 35.5163 110.727 35.477 110.521 35.4475L109.843 35.418C109.774 35.4082 109.695 35.3984 109.617 35.3689C109.528 35.3394 109.459 35.3099 109.39 35.2608C109.322 35.2116 109.263 35.1625 109.214 35.0937C109.164 35.0249 109.145 34.9561 109.145 34.8774C109.145 34.73 109.223 34.6022 109.381 34.4941C109.538 34.3958 109.715 34.3467 109.921 34.3467H110.452C110.531 34.3467 110.619 34.3565 110.708 34.3762C110.796 34.3958 110.894 34.4253 110.983 34.4646C111.071 34.5039 111.16 34.5531 111.238 34.6022C111.317 34.6514 111.376 34.7104 111.415 34.7792L111.936 34.0223C111.867 33.9339 111.789 33.8552 111.681 33.7864C111.572 33.7176 111.464 33.6488 111.337 33.5997C111.209 33.5505 111.071 33.5014 110.934 33.4719C110.786 33.4424 110.649 33.4228 110.511 33.4228H109.882C109.617 33.4129 109.381 33.4523 109.155 33.5211C108.929 33.5899 108.732 33.698 108.565 33.8258C108.398 33.9634 108.26 34.1206 108.172 34.2975C108.083 34.4843 108.034 34.6809 108.034 34.8971C108.034 35.0642 108.064 35.2313 108.132 35.3885C108.191 35.5556 108.28 35.6932 108.388 35.821C108.496 35.9488 108.624 36.0471 108.771 36.1159C108.919 36.1945 109.086 36.2338 109.263 36.2338L109.322 36.2535L110.295 36.3714C110.521 36.3911 110.688 36.4501 110.806 36.5385C110.914 36.6368 110.973 36.7547 110.973 36.8825C110.973 37.03 110.894 37.1479 110.747 37.256C110.59 37.3641 110.403 37.4133 110.177 37.4133H109.685C109.44 37.4035 109.214 37.3641 109.027 37.2855C108.83 37.2069 108.673 37.1086 108.565 36.9906Z" fill="white"/>
<path d="M116.522 37.8556L116.031 36.9317C116.021 36.9415 115.991 36.9612 115.952 37.0005C115.913 37.0398 115.864 37.0791 115.805 37.1184C115.746 37.1676 115.677 37.2069 115.608 37.2364C115.539 37.2658 115.461 37.2855 115.382 37.2855L115.254 37.2953C115.107 37.2953 114.979 37.2462 114.881 37.1577C114.773 37.0693 114.724 36.9513 114.724 36.8236V34.4548H115.864L115.854 33.4129H114.724V32.1254H113.583V33.4129H112.866V34.4548H113.583V36.8137C113.583 37.0594 113.642 37.2953 113.75 37.5017C113.859 37.718 114.016 37.8949 114.203 38.0423C114.311 38.1308 114.468 38.2094 114.655 38.2782C114.841 38.347 115.038 38.3765 115.225 38.3667H115.382C115.588 38.3667 115.805 38.3175 116.011 38.2291C116.218 38.1406 116.385 38.0128 116.522 37.8556Z" fill="white"/>
<path d="M118.147 36.2535H121.941C121.95 36.1847 121.96 36.106 121.97 36.0372C121.97 35.9684 121.97 35.9193 121.97 35.8898C121.97 35.5458 121.901 35.2313 121.773 34.9266C121.646 34.6317 121.469 34.3663 121.243 34.1403C121.017 33.9142 120.761 33.7373 120.466 33.6095C120.161 33.4817 119.847 33.4129 119.503 33.4129H119.395C119.08 33.4129 118.776 33.4719 118.491 33.5899C118.196 33.7176 117.94 33.8749 117.714 34.0813C117.488 34.2877 117.311 34.5334 117.174 34.8185C117.036 35.1035 116.957 35.3984 116.938 35.7129C116.938 35.762 116.938 35.8014 116.938 35.8505C116.928 35.8996 116.928 35.9488 116.938 35.9979C116.938 36.3223 117.006 36.6368 117.144 36.9218C117.282 37.2069 117.468 37.4624 117.694 37.6688C117.921 37.8851 118.176 38.0522 118.471 38.1799C118.766 38.3077 119.07 38.3667 119.395 38.3667H119.503C119.955 38.3667 120.348 38.288 120.692 38.121C121.036 37.9637 121.302 37.7376 121.508 37.4526L120.732 36.8334C120.614 36.9906 120.456 37.1184 120.25 37.2069C120.044 37.3052 119.837 37.3543 119.611 37.3543H119.483C119.316 37.3543 119.149 37.3248 119.002 37.2658C118.854 37.2167 118.717 37.1381 118.599 37.0398C118.481 36.9415 118.382 36.8236 118.304 36.6859C118.225 36.5582 118.176 36.4107 118.147 36.2535ZM119.395 34.5138H119.503C119.808 34.5138 120.073 34.6022 120.299 34.789C120.525 34.9757 120.673 35.2018 120.761 35.4868H118.137C118.206 35.2116 118.363 34.9757 118.589 34.789C118.815 34.6022 119.09 34.5138 119.395 34.5138Z" fill="white"/>
<path d="M124.208 38.3667V35.8996C124.208 35.7031 124.247 35.5163 124.326 35.3492C124.395 35.1821 124.503 35.0445 124.641 34.9168C124.778 34.7988 124.945 34.7103 125.142 34.6415C125.338 34.5727 125.564 34.5433 125.81 34.5531V33.4228C125.407 33.4228 125.083 33.4719 124.847 33.5702C124.611 33.6783 124.395 33.8552 124.208 34.101V33.4129H123.068V38.3667H124.208Z" fill="white"/>
<path d="M128.992 34.5629H129.101C129.277 34.5629 129.464 34.6022 129.651 34.671C129.838 34.7497 130.015 34.8774 130.182 35.0642L131.086 34.3762C130.821 34.0715 130.516 33.8356 130.192 33.6685C129.857 33.5014 129.494 33.4228 129.101 33.4129H128.992C128.648 33.4129 128.334 33.4817 128.029 33.6095C127.725 33.7373 127.469 33.9142 127.243 34.1403C127.017 34.3663 126.84 34.6317 126.712 34.9266C126.584 35.2313 126.516 35.5458 126.516 35.8898C126.516 36.224 126.584 36.5385 126.712 36.8432C126.84 37.1479 127.017 37.4035 127.243 37.6295C127.469 37.8556 127.725 38.0423 128.029 38.1701C128.324 38.2979 128.639 38.3667 128.983 38.3667H129.11C129.484 38.3667 129.848 38.2782 130.192 38.1111C130.536 37.944 130.84 37.7081 131.086 37.4133L130.182 36.7253C130.044 36.8727 129.887 37.0005 129.7 37.0889C129.513 37.1774 129.307 37.2265 129.101 37.2265H128.992C128.806 37.2265 128.629 37.1872 128.462 37.1086C128.295 37.0398 128.157 36.9415 128.039 36.8137C127.921 36.6958 127.833 36.5582 127.764 36.3911C127.695 36.2338 127.656 36.0667 127.656 35.8898C127.656 35.7031 127.695 35.5261 127.764 35.3591C127.833 35.2018 127.931 35.0642 128.059 34.9462C128.186 34.8283 128.324 34.73 128.491 34.6612C128.648 34.5924 128.816 34.5629 128.992 34.5629Z" fill="white"/>
<path d="M134.2 33.4129C133.856 33.4129 133.502 33.4621 133.119 33.5505C132.735 33.639 132.401 33.7864 132.116 33.983L132.441 34.8873C132.637 34.7398 132.883 34.6219 133.188 34.5236C133.492 34.4351 133.787 34.386 134.082 34.386C134.239 34.386 134.387 34.4057 134.534 34.4351C134.672 34.4646 134.8 34.5236 134.908 34.5924C135.016 34.6612 135.114 34.7595 135.183 34.8774C135.252 34.9954 135.291 35.1428 135.301 35.3099V35.4082C134.967 35.3197 134.613 35.2706 134.229 35.2706C133.935 35.2706 133.65 35.3001 133.364 35.3689C133.079 35.4377 132.824 35.536 132.598 35.6834C132.372 35.8308 132.195 36.0176 132.067 36.2436C131.939 36.4697 131.88 36.7548 131.89 37.0791C131.9 37.3248 131.959 37.5312 132.067 37.6983C132.175 37.8654 132.313 38.003 132.48 38.1111C132.647 38.2192 132.834 38.3077 133.05 38.3568C133.256 38.406 133.473 38.4355 133.689 38.4355C134.072 38.4355 134.416 38.3962 134.721 38.3175C135.026 38.2389 135.261 38.1013 135.409 37.9047V38.3667H136.559V35.536C136.559 34.8185 136.362 34.2877 135.959 33.9339C135.556 33.5899 134.967 33.4129 134.2 33.4129ZM135.311 36.2535V36.8924C135.261 37.0201 135.202 37.1381 135.114 37.2265C135.026 37.315 134.917 37.3936 134.809 37.4526C134.701 37.5116 134.583 37.5509 134.455 37.5804C134.328 37.6099 134.2 37.6197 134.072 37.6197C133.807 37.6295 133.61 37.5902 133.463 37.5116C133.315 37.4428 133.217 37.3347 133.148 37.1872C133.099 37.0398 133.109 36.8924 133.188 36.7547C133.207 36.6368 133.256 36.5385 133.325 36.4501C133.394 36.3616 133.492 36.2928 133.6 36.2338C133.709 36.1847 133.826 36.1355 133.964 36.106C134.102 36.0766 134.249 36.0667 134.397 36.0667C134.544 36.0667 134.701 36.0766 134.868 36.106C135.026 36.1355 135.173 36.1847 135.311 36.2535Z" fill="white"/>
<path d="M139.122 38.3667V35.8996C139.122 35.7031 139.162 35.5163 139.24 35.3492C139.309 35.1821 139.417 35.0445 139.555 34.9168C139.693 34.7988 139.86 34.7103 140.056 34.6415C140.253 34.5727 140.479 34.5433 140.725 34.5531V33.4228C140.322 33.4228 139.997 33.4719 139.761 33.5702C139.525 33.6783 139.309 33.8552 139.122 34.101V33.4129H137.982V38.3667H139.122Z" fill="white"/>
<path d="M146.395 31.4865H145.265V34.0125C145.118 33.8356 144.911 33.698 144.665 33.5899C144.42 33.4817 144.135 33.4326 143.82 33.4424H143.702C143.378 33.4424 143.073 33.5112 142.788 33.639C142.503 33.7668 142.248 33.9437 142.041 34.1698C141.835 34.3958 141.668 34.6514 141.54 34.9462C141.412 35.2509 141.353 35.5655 141.353 35.8996C141.353 36.2437 141.412 36.568 141.54 36.8727C141.668 37.1774 141.835 37.4329 142.051 37.6492C142.267 37.8752 142.523 38.0423 142.808 38.1701C143.093 38.2979 143.407 38.3667 143.732 38.3667H143.82C144.115 38.3667 144.39 38.3077 144.656 38.1996C144.911 38.0915 145.118 37.9342 145.265 37.7475V38.3667H146.395V31.4865ZM143.928 37.2265H143.82C143.633 37.2265 143.466 37.1872 143.309 37.1184C143.142 37.0496 143.004 36.9612 142.886 36.8334C142.759 36.7154 142.67 36.5778 142.601 36.4107C142.533 36.2535 142.493 36.0864 142.493 35.8996C142.493 35.7129 142.533 35.5458 142.601 35.3787C142.67 35.2215 142.759 35.0838 142.886 34.9561C143.004 34.8381 143.142 34.7398 143.309 34.671C143.466 34.6022 143.633 34.5728 143.82 34.5728H143.938C144.115 34.5728 144.282 34.6022 144.449 34.671C144.607 34.7398 144.744 34.8381 144.872 34.9561C144.99 35.0838 145.088 35.2215 145.157 35.3787C145.226 35.5458 145.265 35.7129 145.265 35.8996C145.265 36.0864 145.226 36.2535 145.157 36.4107C145.088 36.5778 144.99 36.7154 144.872 36.8334C144.744 36.9612 144.607 37.0496 144.449 37.1184C144.282 37.1872 144.115 37.2265 143.928 37.2265Z" fill="white"/>
</svg>
