<svg width="231" height="54" viewBox="0 0 231 54" fill="none" xmlns="http://www.w3.org/2000/svg">
<path fill-rule="evenodd" clip-rule="evenodd" d="M192.343 26.4515V34.718H197.033V29.8904H202.115C204.33 29.8904 206.206 28.4553 206.903 26.4515H192.343Z" fill="white"/>
<path fill-rule="evenodd" clip-rule="evenodd" d="M202.116 19.5745H191.686C192.207 22.4579 194.338 24.7725 197.093 25.5264C197.719 25.6983 198.377 25.7909 199.054 25.7909H207.093C207.165 25.447 207.197 25.0965 207.197 24.7328C207.197 21.8825 204.924 19.5745 202.116 19.5745Z" fill="white"/>
<path fill-rule="evenodd" clip-rule="evenodd" d="M185.829 19.5745C185.829 19.5745 184.455 19.7002 183.81 21.1617L180.488 28.5684H180.097V19.5745H175.406V34.7187H179.836C179.836 34.7187 181.276 34.5864 181.921 33.1315L185.178 25.7248H185.569V34.7187H190.259V19.5745H185.829Z" fill="white"/>
<path fill-rule="evenodd" clip-rule="evenodd" d="M168.697 19.5742V19.5808C168.691 19.5808 166.639 19.5742 166.091 21.5648C165.59 23.39 164.176 28.4293 164.137 28.5682H163.746C163.746 28.5682 162.3 23.4165 161.792 21.5582C161.245 19.5676 159.186 19.5742 159.186 19.5742H154.496V34.7184H159.186V25.7245H159.577L162.313 34.7184H165.57L168.306 25.7311H168.697V34.7184H173.387V19.5742H168.697Z" fill="white"/>
<path d="M39.0154 35.5557H34.3981L37.2861 18.0392H41.9032L39.0154 35.5557Z" fill="white"/>
<path d="M55.752 18.4664C54.8412 18.112 53.3967 17.7207 51.6106 17.7207C47.0508 17.7207 43.8398 20.1058 43.8201 23.5158C43.7823 26.0316 46.1191 27.429 47.8668 28.2679C49.6532 29.1251 50.2605 29.6846 50.2605 30.4487C50.2423 31.6221 48.817 32.1631 47.4876 32.1631C45.6441 32.1631 44.6564 31.8842 43.1553 31.2313L42.5473 30.9514L41.9012 34.8835C42.9841 35.3675 44.9793 35.7969 47.0508 35.8157C51.8956 35.8157 55.0498 33.4676 55.0872 29.8337C55.1056 27.8397 53.8716 26.3118 51.2114 25.0632C49.5964 24.2618 48.6074 23.7213 48.6074 22.9013C48.6263 22.1558 49.4439 21.3922 51.2669 21.3922C52.768 21.3548 53.8709 21.7087 54.7064 22.0629L55.124 22.2489L55.752 18.4664Z" fill="white"/>
<path d="M61.8918 29.3502C62.2721 28.3439 63.7353 24.4493 63.7353 24.4493C63.7161 24.4867 64.1148 23.4244 64.3428 22.7723L64.6655 24.2816C64.6655 24.2816 65.5399 28.4745 65.7297 29.3502C65.0081 29.3502 62.8038 29.3502 61.8918 29.3502ZM67.5914 18.0392H64.0199C62.9185 18.0392 62.0817 18.3557 61.6065 19.4926L54.748 35.5555H59.5929C59.5929 35.5555 60.3905 33.3935 60.562 32.9279C61.0935 32.9279 65.8065 32.9279 66.4902 32.9279C66.6228 33.5429 67.0412 35.5555 67.0412 35.5555H71.3164L67.5914 18.0392Z" fill="white"/>
<path d="M30.5444 18.0392L26.0225 29.9838L25.5284 27.5613C24.6923 24.766 22.0705 21.7291 19.1446 20.219L23.2865 35.5371H28.1692L35.4269 18.0392H30.5444Z" fill="white"/>
<path d="M21.8218 18.0392H14.3929L14.3169 18.3931C20.1119 19.8467 23.9498 23.3506 25.5266 27.562L23.9116 19.5116C23.6458 18.3929 22.8287 18.0761 21.8218 18.0392Z" fill="white"/>
<path d="M111.504 21.6249C111.502 20.0936 111.847 18.582 112.513 17.2046C113.179 15.8272 114.148 14.6201 115.346 13.6747C113.862 12.5021 112.08 11.7729 110.203 11.5704C108.326 11.368 106.43 11.7003 104.732 12.5296C103.035 13.3589 101.603 14.6516 100.602 16.26C99.6003 17.8683 99.0692 19.7275 99.0692 21.6249C99.0692 23.5223 99.6003 25.3815 100.602 26.9899C101.603 28.5982 103.035 29.8909 104.732 30.7202C106.43 31.5495 108.326 31.8819 110.203 31.6794C112.08 31.4769 113.862 30.7477 115.346 29.5751C114.148 28.6297 113.179 27.4226 112.513 26.0452C111.847 24.6678 111.502 23.1562 111.504 21.6249Z" fill="white"/>
<path d="M131.624 21.6249C131.624 23.5223 131.093 25.3815 130.092 26.9898C129.09 28.5982 127.659 29.8909 125.961 30.7202C124.263 31.5495 122.368 31.8819 120.491 31.6794C118.614 31.4769 116.832 30.7477 115.348 29.5751C116.545 28.6288 117.513 27.4215 118.179 26.0443C118.844 24.6671 119.19 23.156 119.19 21.6249C119.19 20.0938 118.844 18.5827 118.179 17.2056C117.513 15.8284 116.545 14.6211 115.348 13.6747C116.832 12.5021 118.614 11.7729 120.491 11.5704C122.368 11.368 124.263 11.7004 125.961 12.5296C127.659 13.3589 129.09 14.6516 130.092 16.26C131.093 17.8684 131.624 19.7275 131.624 21.6249Z" fill="white"/>
<path d="M98.5338 40.3324V42.7228H99.4835V40.3324C99.4835 40.1195 99.4507 39.9067 99.377 39.702C99.3033 39.4973 99.1969 39.309 99.0659 39.1453C98.935 38.9816 98.7794 38.8506 98.5911 38.7442C98.4028 38.6459 98.19 38.5968 97.9608 38.5968C97.5924 38.5968 97.2649 38.695 96.9784 38.8997C96.8965 38.9488 96.8228 38.998 96.7655 39.0553C96.7082 39.1126 96.6591 39.1699 96.6263 39.2108C96.5036 39.0307 96.3316 38.8833 96.1188 38.7687C95.9059 38.6541 95.6931 38.5968 95.472 38.5968C95.2838 38.5968 95.1037 38.6296 94.9481 38.695C94.7926 38.7687 94.6452 38.8588 94.506 38.9734V38.5968H93.5564V42.7228H94.506V40.3324C94.506 40.2259 94.5224 40.1195 94.5633 40.0295C94.6043 39.9394 94.6534 39.8575 94.7271 39.7839C94.8008 39.7184 94.8826 39.6611 94.9809 39.6201C95.0709 39.5792 95.1691 39.5628 95.2756 39.5628C95.382 39.5628 95.4802 39.5792 95.5703 39.6201C95.6603 39.6611 95.7422 39.7184 95.8159 39.7839C95.8896 39.8575 95.9469 39.9394 95.9878 40.0295C96.0287 40.1195 96.0451 40.2259 96.0451 40.3324V42.7228H96.9947V40.3324C96.9947 40.2259 97.0193 40.1277 97.0602 40.0376C97.1012 39.9476 97.1503 39.8657 97.224 39.792C97.2895 39.7184 97.3713 39.6611 97.4696 39.6201C97.5596 39.5792 97.6579 39.5628 97.7643 39.5628C97.8707 39.5628 97.9689 39.5792 98.059 39.6201C98.149 39.6611 98.2309 39.7102 98.3046 39.7839C98.3783 39.8575 98.4356 39.9394 98.4765 40.0295C98.5174 40.1195 98.5338 40.2259 98.5338 40.3324Z" fill="white"/>
<path d="M102.285 38.5968C101.999 38.5968 101.704 38.6377 101.385 38.7114C101.065 38.7851 100.787 38.9079 100.55 39.0716L100.82 39.8248C100.983 39.702 101.188 39.6038 101.442 39.5219C101.696 39.4482 101.941 39.4073 102.187 39.4073C102.318 39.4073 102.441 39.4236 102.563 39.4482C102.678 39.4728 102.785 39.5219 102.875 39.5792C102.965 39.6365 103.047 39.7184 103.104 39.8166C103.161 39.9148 103.194 40.0376 103.202 40.1768V40.2587C102.924 40.185 102.629 40.1441 102.31 40.1441C102.064 40.1441 101.827 40.1686 101.589 40.2259C101.352 40.2832 101.139 40.3651 100.951 40.4879C100.762 40.6107 100.615 40.7662 100.509 40.9545C100.402 41.1428 100.353 41.3802 100.361 41.6504C100.37 41.8551 100.419 42.027 100.509 42.1661C100.599 42.3053 100.713 42.4199 100.853 42.51C100.992 42.6 101.147 42.6737 101.327 42.7146C101.499 42.7556 101.679 42.7801 101.859 42.7801C102.179 42.7801 102.465 42.7474 102.719 42.6819C102.973 42.6164 103.169 42.5018 103.292 42.3381V42.7228H104.25V40.3651C104.25 39.7675 104.086 39.3254 103.751 39.0307C103.415 38.7442 102.924 38.5968 102.285 38.5968ZM103.21 40.9627V41.4948C103.169 41.6013 103.12 41.6995 103.047 41.7732C102.973 41.8469 102.883 41.9124 102.793 41.9615C102.703 42.0106 102.604 42.0433 102.498 42.0679C102.392 42.0925 102.285 42.1006 102.179 42.1006C101.958 42.1088 101.794 42.0761 101.671 42.0106C101.548 41.9533 101.467 41.8632 101.409 41.7404C101.368 41.6176 101.376 41.4948 101.442 41.3802C101.458 41.282 101.499 41.2001 101.557 41.1265C101.614 41.0528 101.696 40.9955 101.786 40.9463C101.876 40.9054 101.974 40.8645 102.089 40.8399C102.203 40.8154 102.326 40.8072 102.449 40.8072C102.572 40.8072 102.703 40.8154 102.842 40.8399C102.973 40.8645 103.096 40.9054 103.21 40.9627Z" fill="white"/>
<path d="M105.626 41.5767L105.143 42.2071C105.299 42.3626 105.503 42.4854 105.749 42.5755C105.995 42.6737 106.257 42.7228 106.527 42.7228L106.969 42.731C107.19 42.731 107.403 42.6983 107.599 42.641C107.787 42.5837 107.959 42.4936 108.099 42.379C108.238 42.2726 108.344 42.1416 108.426 41.986C108.5 41.8305 108.541 41.6668 108.541 41.4867C108.541 41.282 108.508 41.1101 108.442 40.9709C108.369 40.8317 108.279 40.7089 108.164 40.6189C108.041 40.5288 107.91 40.4552 107.755 40.3978C107.599 40.3487 107.427 40.316 107.255 40.2914L106.69 40.2669C106.633 40.2587 106.568 40.2505 106.502 40.2259C106.428 40.2014 106.371 40.1768 106.314 40.1359C106.257 40.0949 106.207 40.054 106.167 39.9967C106.126 39.9394 106.109 39.8821 106.109 39.8166C106.109 39.6938 106.175 39.5874 106.306 39.4973C106.437 39.4155 106.584 39.3745 106.756 39.3745H107.198C107.264 39.3745 107.337 39.3827 107.411 39.3991C107.485 39.4155 107.566 39.44 107.64 39.4728C107.714 39.5055 107.787 39.5464 107.853 39.5874C107.918 39.6283 107.968 39.6774 108 39.7347L108.434 39.1044C108.377 39.0307 108.311 38.9652 108.221 38.9079C108.131 38.8506 108.041 38.7933 107.935 38.7524C107.828 38.7114 107.714 38.6705 107.599 38.6459C107.476 38.6214 107.362 38.605 107.247 38.605H106.723C106.502 38.5968 106.306 38.6296 106.117 38.6869C105.929 38.7442 105.765 38.8342 105.626 38.9406C105.487 39.0553 105.372 39.1862 105.299 39.3336C105.225 39.4891 105.184 39.6529 105.184 39.833C105.184 39.9721 105.209 40.1113 105.266 40.2423C105.315 40.3815 105.389 40.4961 105.479 40.6025C105.569 40.7089 105.675 40.7908 105.798 40.8481C105.921 40.9136 106.06 40.9463 106.207 40.9463L106.257 40.9627L107.067 41.061C107.255 41.0773 107.395 41.1265 107.493 41.2001C107.583 41.282 107.632 41.3802 107.632 41.4867C107.632 41.6095 107.566 41.7077 107.444 41.7977C107.313 41.8878 107.157 41.9287 106.969 41.9287H106.559C106.355 41.9205 106.167 41.8878 106.011 41.8223C105.847 41.7568 105.716 41.6749 105.626 41.5767Z" fill="white"/>
<path d="M112.254 42.2971L111.845 41.5276C111.836 41.5358 111.812 41.5521 111.779 41.5849C111.746 41.6176 111.705 41.6504 111.656 41.6831C111.607 41.7241 111.55 41.7568 111.493 41.7814C111.435 41.8059 111.37 41.8223 111.304 41.8223L111.198 41.8305C111.075 41.8305 110.969 41.7896 110.887 41.7159C110.797 41.6422 110.756 41.544 110.756 41.4375V39.4646H111.705L111.697 38.5968H110.756V37.5244H109.806V38.5968H109.209V39.4646H109.806V41.4294C109.806 41.634 109.855 41.8305 109.945 42.0024C110.035 42.1825 110.166 42.3299 110.322 42.4527C110.412 42.5263 110.543 42.5918 110.699 42.6491C110.854 42.7065 111.018 42.731 111.173 42.7228H111.304C111.476 42.7228 111.656 42.6819 111.828 42.6082C112 42.5345 112.139 42.4281 112.254 42.2971Z" fill="white"/>
<path d="M113.607 40.9627H116.767C116.775 40.9054 116.783 40.8399 116.791 40.7826C116.791 40.7253 116.791 40.6844 116.791 40.6598C116.791 40.3733 116.734 40.1113 116.628 39.8575C116.521 39.6119 116.374 39.3909 116.186 39.2026C115.997 39.0143 115.785 38.867 115.539 38.7605C115.285 38.6541 115.023 38.5968 114.737 38.5968H114.647C114.385 38.5968 114.131 38.6459 113.893 38.7442C113.648 38.8506 113.435 38.9816 113.247 39.1535C113.058 39.3254 112.911 39.5301 112.796 39.7675C112.682 40.0049 112.616 40.2505 112.6 40.5125C112.6 40.5534 112.6 40.5861 112.6 40.6271C112.592 40.668 112.592 40.7089 112.6 40.7499C112.6 41.02 112.657 41.282 112.772 41.5194C112.887 41.7568 113.042 41.9697 113.23 42.1416C113.419 42.3217 113.631 42.4609 113.877 42.5673C114.123 42.6737 114.376 42.7228 114.647 42.7228H114.737C115.113 42.7228 115.441 42.6573 115.727 42.5182C116.014 42.3872 116.235 42.1989 116.407 41.9615L115.76 41.4457C115.662 41.5767 115.531 41.6831 115.359 41.7568C115.187 41.8387 115.015 41.8796 114.827 41.8796H114.72C114.581 41.8796 114.442 41.8551 114.319 41.8059C114.196 41.765 114.082 41.6995 113.984 41.6176C113.885 41.5358 113.803 41.4375 113.738 41.3229C113.672 41.2165 113.631 41.0937 113.607 40.9627ZM114.647 39.5137H114.737C114.99 39.5137 115.211 39.5874 115.4 39.7429C115.588 39.8985 115.711 40.0868 115.785 40.3242H113.599C113.656 40.0949 113.787 39.8985 113.975 39.7429C114.164 39.5874 114.393 39.5137 114.647 39.5137Z" fill="white"/>
<path d="M118.656 42.7228V40.668C118.656 40.5043 118.688 40.3487 118.754 40.2096C118.811 40.0704 118.901 39.9558 119.016 39.8493C119.13 39.7511 119.27 39.6774 119.433 39.6201C119.597 39.5628 119.785 39.5383 119.99 39.5464V38.605C119.654 38.605 119.384 38.6459 119.188 38.7278C118.991 38.8178 118.811 38.9652 118.656 39.1699V38.5968H117.706V42.7228H118.656Z" fill="white"/>
<path d="M122.641 39.5546H122.731C122.878 39.5546 123.034 39.5874 123.189 39.6447C123.345 39.7102 123.492 39.8166 123.631 39.9721L124.384 39.3991C124.163 39.1453 123.909 38.9488 123.639 38.8097C123.361 38.6705 123.058 38.605 122.731 38.5968H122.641C122.354 38.5968 122.092 38.6541 121.838 38.7605C121.584 38.867 121.372 39.0143 121.183 39.2026C120.995 39.3909 120.848 39.6119 120.741 39.8575C120.635 40.1113 120.578 40.3733 120.578 40.6598C120.578 40.9382 120.635 41.2001 120.741 41.4539C120.848 41.7077 120.995 41.9205 121.183 42.1088C121.372 42.2971 121.584 42.4527 121.838 42.5591C122.084 42.6655 122.346 42.7228 122.632 42.7228H122.739C123.05 42.7228 123.353 42.6491 123.639 42.51C123.926 42.3708 124.18 42.1743 124.384 41.9287L123.631 41.3557C123.517 41.4785 123.386 41.5849 123.23 41.6586C123.074 41.7323 122.903 41.7732 122.731 41.7732H122.641C122.485 41.7732 122.338 41.7404 122.198 41.6749C122.059 41.6176 121.945 41.5358 121.846 41.4294C121.748 41.3311 121.675 41.2165 121.617 41.0773C121.56 40.9463 121.527 40.8072 121.527 40.6598C121.527 40.5043 121.56 40.3569 121.617 40.2177C121.675 40.0868 121.756 39.9721 121.863 39.8739C121.969 39.7757 122.084 39.6938 122.223 39.6365C122.354 39.5792 122.493 39.5546 122.641 39.5546Z" fill="white"/>
<path d="M126.978 38.5968C126.691 38.5968 126.397 38.6377 126.077 38.7114C125.758 38.7851 125.48 38.9079 125.242 39.0716L125.513 39.8248C125.676 39.702 125.881 39.6038 126.135 39.5219C126.389 39.4482 126.634 39.4073 126.88 39.4073C127.011 39.4073 127.133 39.4236 127.256 39.4482C127.371 39.4728 127.477 39.5219 127.567 39.5792C127.657 39.6365 127.739 39.7184 127.797 39.8166C127.854 39.9148 127.887 40.0376 127.895 40.1768V40.2587C127.616 40.185 127.322 40.1441 127.002 40.1441C126.757 40.1441 126.519 40.1686 126.282 40.2259C126.045 40.2832 125.832 40.3651 125.644 40.4879C125.455 40.6107 125.308 40.7662 125.201 40.9545C125.095 41.1428 125.046 41.3802 125.054 41.6504C125.062 41.8551 125.111 42.027 125.201 42.1661C125.292 42.3053 125.406 42.4199 125.545 42.51C125.684 42.6 125.84 42.6737 126.02 42.7146C126.192 42.7556 126.372 42.7801 126.552 42.7801C126.872 42.7801 127.158 42.7474 127.412 42.6819C127.666 42.6164 127.862 42.5018 127.985 42.3381V42.7228H128.943V40.3651C128.943 39.7675 128.779 39.3254 128.443 39.0307C128.108 38.7442 127.616 38.5968 126.978 38.5968ZM127.903 40.9627V41.4948C127.862 41.6013 127.813 41.6995 127.739 41.7732C127.666 41.8469 127.576 41.9124 127.486 41.9615C127.395 42.0106 127.297 42.0433 127.191 42.0679C127.084 42.0925 126.978 42.1006 126.872 42.1006C126.65 42.1088 126.487 42.0761 126.364 42.0106C126.241 41.9533 126.159 41.8632 126.102 41.7404C126.061 41.6176 126.069 41.4948 126.135 41.3802C126.151 41.282 126.192 41.2001 126.249 41.1265C126.307 41.0528 126.389 40.9955 126.479 40.9463C126.569 40.9054 126.667 40.8645 126.781 40.8399C126.896 40.8154 127.019 40.8072 127.142 40.8072C127.264 40.8072 127.395 40.8154 127.535 40.8399C127.666 40.8645 127.788 40.9054 127.903 40.9627Z" fill="white"/>
<path d="M131.078 42.7228V40.668C131.078 40.5043 131.111 40.3487 131.176 40.2096C131.234 40.0704 131.324 39.9558 131.438 39.8493C131.553 39.7511 131.692 39.6774 131.856 39.6201C132.019 39.5628 132.208 39.5383 132.412 39.5464V38.605C132.077 38.605 131.807 38.6459 131.61 38.7278C131.414 38.8178 131.234 38.9652 131.078 39.1699V38.5968H130.128V42.7228H131.078Z" fill="white"/>
<path d="M137.136 36.9922H136.194V39.0962C136.071 38.9488 135.899 38.8342 135.695 38.7442C135.49 38.6541 135.253 38.6132 134.991 38.6214H134.893C134.622 38.6214 134.369 38.6787 134.131 38.7851C133.894 38.8915 133.681 39.0389 133.509 39.2272C133.337 39.4155 133.198 39.6283 133.091 39.8739C132.985 40.1277 132.936 40.3897 132.936 40.668C132.936 40.9545 132.985 41.2247 133.091 41.4785C133.198 41.7323 133.337 41.9451 133.517 42.1252C133.697 42.3135 133.91 42.4527 134.148 42.5591C134.385 42.6655 134.647 42.7228 134.917 42.7228H134.991C135.236 42.7228 135.466 42.6737 135.687 42.5837C135.899 42.4936 136.071 42.3626 136.194 42.2071V42.7228H137.136V36.9922ZM135.081 41.7732H134.991C134.835 41.7732 134.696 41.7404 134.565 41.6831C134.426 41.6258 134.311 41.5522 134.213 41.4457C134.107 41.3475 134.033 41.2329 133.976 41.0937C133.918 40.9627 133.886 40.8235 133.886 40.668C133.886 40.5125 133.918 40.3733 133.976 40.2341C134.033 40.1031 134.107 39.9885 134.213 39.8821C134.311 39.7839 134.426 39.702 134.565 39.6447C134.696 39.5874 134.835 39.5628 134.991 39.5628H135.089C135.236 39.5628 135.376 39.5874 135.515 39.6447C135.646 39.702 135.76 39.7839 135.867 39.8821C135.965 39.9885 136.047 40.1031 136.104 40.2341C136.161 40.3733 136.194 40.5125 136.194 40.668C136.194 40.8235 136.161 40.9627 136.104 41.0937C136.047 41.2329 135.965 41.3475 135.867 41.4457C135.76 41.5522 135.646 41.6258 135.515 41.6831C135.376 41.7404 135.236 41.7732 135.081 41.7732Z" fill="white"/>
</svg>
