<svg width="22" height="21" viewBox="0 0 22 21" fill="none" xmlns="http://www.w3.org/2000/svg">
<path d="M8.01172 12.2012L9.67839 13.7012L14.1228 9.70117" stroke="#ABABAB" stroke-linecap="round" stroke-linejoin="round"/>
<path d="M8.77728 4.5H13.2217C15.4439 4.5 15.4439 3.5 15.4439 2.5C15.4439 0.5 14.3328 0.5 13.2217 0.5H8.77728C7.66616 0.5 6.55505 0.5 6.55505 2.5C6.55505 4.5 7.66616 4.5 8.77728 4.5Z" stroke="#ABABAB" stroke-miterlimit="10" stroke-linecap="round" stroke-linejoin="round"/>
<path d="M15.4444 2.51953C19.1444 2.69953 21 3.92953 21 8.49953V14.4995C21 18.4995 19.8889 20.4995 14.3333 20.4995H7.66667C2.11111 20.4995 1 18.4995 1 14.4995V8.49953C1 3.93953 2.85556 2.69953 6.55556 2.51953" stroke="#ABABAB" stroke-miterlimit="10" stroke-linecap="round" stroke-linejoin="round"/>
</svg>
