<svg width="22" height="22" viewBox="0 0 22 22" fill="none" xmlns="http://www.w3.org/2000/svg">
<path d="M21 5.58325V15.7498C21 18.7997 19.3333 20.833 15.4444 20.833H6.55556C2.66667 20.833 1 18.7997 1 15.7498V5.58325C1 2.5333 2.66667 0.5 6.55556 0.5H15.4444C19.3333 0.5 21 2.5333 21 5.58325Z" stroke="#ABABAB" stroke-miterlimit="10" stroke-linecap="round" stroke-linejoin="round"/>
<path d="M14.8895 0.5V8.49086C14.8895 8.93818 14.3117 9.16184 13.9561 8.86701L11.3784 6.69143C11.1673 6.50843 10.8339 6.50843 10.6228 6.69143L8.04506 8.86701C7.6895 9.16184 7.11169 8.93818 7.11169 8.49086V0.5H14.8895Z" stroke="#ABABAB" stroke-miterlimit="10" stroke-linecap="round" stroke-linejoin="round"/>
<path d="M12.3883 12.7002H17.1105" stroke="#ABABAB" stroke-miterlimit="10" stroke-linecap="round" stroke-linejoin="round"/>
<path d="M7.66663 16.7676H17.1111" stroke="#ABABAB" stroke-miterlimit="10" stroke-linecap="round" stroke-linejoin="round"/>
</svg>
